<?xml version="1.0" standalone="no"?>
<!DOCTYPE svg PUBLIC "-//W3C//DTD SVG 20010904//EN"
 "http://www.w3.org/TR/2001/REC-SVG-20010904/DTD/svg10.dtd">
<svg version="1.0" xmlns="http://www.w3.org/2000/svg"
 width="1920.000000pt" height="720.000000pt" viewBox="0 0 1920.000000 720.000000"
 preserveAspectRatio="xMidYMid meet">

<g transform="translate(0.000000,720.000000) scale(0.100000,-0.100000)"
fill="#000000" stroke="none">
<path d="M3860 5843 c-66 -78 -165 -221 -223 -323 -102 -182 -137 -285 -137
-408 0 -214 121 -405 279 -441 50 -11 67 -7 82 21 9 16 3 31 -30 82 -60 92
-83 165 -84 266 0 88 26 187 58 219 19 19 24 14 42 -55 30 -115 88 -199 134
-192 18 2 27 14 39 47 8 24 20 46 26 48 6 2 31 -28 54 -68 69 -114 67 -208 -8
-291 -29 -32 -34 -43 -25 -56 16 -26 48 -26 108 2 73 33 157 114 186 179 21
44 24 68 24 162 0 102 -2 115 -31 175 -17 36 -60 108 -96 161 -71 104 -102
175 -117 269 -12 75 -15 80 -52 80 -24 0 -36 -9 -61 -45 -18 -25 -35 -45 -39
-45 -7 0 -13 39 -25 165 -10 111 -38 124 -104 48z m80 1 c6 -14 10 -53 10 -87
1 -71 23 -207 39 -234 9 -16 10 -15 11 9 0 42 37 132 65 158 33 31 51 15 58
-53 9 -86 41 -161 123 -284 104 -156 127 -220 122 -338 -5 -109 -28 -166 -91
-227 -46 -45 -141 -98 -176 -98 -28 0 -27 6 10 48 77 87 80 201 9 307 -15 22
-33 57 -41 78 -7 20 -16 37 -20 37 -13 0 -47 -55 -56 -90 -13 -50 -42 -51 -76
-3 -31 45 -63 132 -73 200 -11 79 -18 83 -53 28 -110 -173 -102 -363 22 -543
26 -39 28 -46 15 -59 -12 -12 -23 -12 -54 -4 -191 51 -310 315 -249 551 21 81
85 218 154 330 72 116 212 300 228 300 7 0 18 -12 23 -26z"/>
<path d="M3871 5780 c-111 -139 -230 -335 -280 -461 -45 -113 -56 -197 -36
-292 34 -166 114 -275 223 -307 30 -8 44 1 22 15 -17 10 -67 116 -85 178 -19
67 -22 184 -5 247 6 25 27 74 46 110 73 137 102 145 121 30 16 -95 38 -164 67
-207 l23 -33 17 43 c19 51 68 102 89 94 9 -3 18 -19 22 -35 3 -17 23 -59 44
-94 21 -34 44 -81 51 -102 17 -52 7 -147 -19 -191 -25 -43 -18 -44 42 -4 100
66 148 186 126 320 -12 72 -40 132 -122 253 -72 108 -103 174 -118 260 -7 36
-16 63 -21 60 -20 -13 -41 -73 -47 -138 -15 -172 -92 -27 -109 206 l-7 103
-44 -55z m38 -115 c19 -145 58 -235 101 -235 26 0 40 30 40 84 0 83 22 102 41
34 16 -60 48 -121 128 -242 82 -124 104 -185 104 -281 -1 -76 -18 -128 -59
-182 -38 -50 -54 -44 -47 16 8 67 -10 133 -57 211 -22 36 -42 80 -46 98 -14
69 -67 67 -116 -3 -18 -25 -36 -45 -40 -45 -15 0 -40 71 -55 155 -20 108 -28
125 -56 125 -27 0 -52 -25 -96 -95 -86 -137 -95 -325 -23 -487 11 -26 17 -50
12 -53 -17 -11 -90 67 -120 129 -39 79 -63 195 -54 260 15 113 85 269 194 436
81 124 121 173 130 163 4 -4 13 -44 19 -88z"/>
<path d="M13835 5825 c-171 -46 -400 -113 -386 -114 7 -1 112 26 234 60 144
39 244 62 291 64 64 3 66 3 21 -4 -27 -5 -64 -13 -82 -19 -17 -6 -34 -7 -38
-4 -3 4 -9 2 -13 -4 -8 -13 -347 -109 -379 -107 -14 0 -20 -3 -16 -10 4 -6 -2
-8 -15 -5 -12 4 -22 2 -22 -4 0 -5 -8 -7 -17 -4 -10 3 -62 -7 -115 -23 -54
-15 -98 -27 -98 -25 0 2 12 10 28 19 l27 15 -30 -6 c-16 -4 -114 -30 -216 -59
-102 -29 -201 -56 -220 -60 -33 -8 -33 -9 -9 -15 23 -7 22 -8 -12 -15 -21 -4
-35 -11 -32 -16 3 -5 -3 -6 -12 -2 -12 4 -15 3 -10 -5 4 -7 17 -12 29 -13 20
-1 20 -1 -3 -9 -14 -4 -167 -47 -340 -95 -173 -48 -332 -96 -352 -108 -37 -20
-98 -87 -98 -106 0 -18 -19 -12 -30 8 -15 29 -13 33 26 80 38 43 84 71 169
102 27 10 45 18 38 18 -23 2 -128 -42 -169 -70 -23 -16 -57 -52 -75 -81 -32
-49 -34 -58 -34 -138 1 -76 8 -109 67 -305 165 -542 299 -997 295 -1001 -2 -2
-13 26 -24 63 -11 38 -52 174 -91 303 -165 551 -259 853 -261 835 -1 -6 17
-69 40 -140 22 -72 92 -303 155 -515 63 -212 146 -488 184 -615 145 -482 184
-613 210 -710 15 -55 129 -446 253 -870 123 -424 260 -892 303 -1042 l79 -272
62 -7 c34 -3 66 -5 71 -3 5 2 -33 148 -85 324 -51 176 -144 489 -204 695 -319
1080 -385 1302 -739 2485 -206 686 -222 744 -217 798 5 61 37 115 80 139 21
11 21 10 7 -7 -14 -17 -13 -18 5 -11 10 4 163 47 340 96 310 87 384 103 369
79 -4 -8 -1 -8 12 -1 11 5 117 37 237 71 121 34 238 72 260 85 50 29 673 206
724 206 42 0 107 -34 129 -67 20 -31 222 -700 684 -2263 100 -338 276 -932
391 -1319 148 -498 209 -718 209 -753 0 -82 -42 -144 -127 -187 -36 -18 -461
-147 -1195 -364 -114 -34 -205 -63 -203 -65 5 -6 640 -61 704 -62 53 0 95 11
381 99 85 27 205 63 265 81 192 56 272 108 322 209 25 51 29 170 8 251 -16 65
-188 654 -270 930 -69 229 -180 621 -223 785 -22 83 -65 238 -96 345 -31 107
-66 227 -77 265 -11 39 -33 111 -49 160 -25 79 -96 323 -161 555 -37 132 -221
742 -330 1099 -33 106 -74 221 -91 255 -33 66 -91 128 -111 120 -7 -2 -35 2
-62 11 -71 21 -166 18 -270 -10z m266 -11 c17 -8 29 -17 27 -20 -3 -2 -22 5
-43 16 -22 11 -34 20 -27 20 7 0 27 -7 43 -16z m-731 -179 c0 -2 -10 -9 -22
-15 -22 -11 -22 -10 -4 4 21 17 26 19 26 11z m-140 -54 c0 -5 -7 -12 -16 -15
-14 -5 -15 -4 -4 9 14 17 20 19 20 6z m-912 -2080 c-3 -14 -79 229 -77 245 1
5 19 -45 40 -111 22 -66 38 -126 37 -134z m72 -231 c57 -186 90 -314 56 -215
-24 69 -126 409 -126 419 0 23 12 -12 70 -204z m77 -282 c-3 -8 -6 -5 -6 6 -1
11 2 17 5 13 3 -3 4 -12 1 -19z m10 -40 c-3 -8 -6 -5 -6 6 -1 11 2 17 5 13 3
-3 4 -12 1 -19z m32 -98 c0 -9 -4 -8 -9 5 -5 11 -9 27 -9 35 0 9 4 8 9 -5 5
-11 9 -27 9 -35z m65 -220 c4 -24 3 -29 -3 -15 -4 11 -11 36 -15 55 -4 24 -3
29 3 15 4 -11 11 -36 15 -55z m85 -290 c1 -13 0 -13 -9 0 -5 8 -9 24 -9 35 l0
20 9 -20 c5 -11 9 -27 9 -35z m2767 -1341 c-29 -23 -47 -19 -26 6 7 8 22 15
33 15 18 0 17 -2 -7 -21z"/>
<path d="M13268 5663 c7 -3 16 -2 19 1 4 3 -2 6 -13 5 -11 0 -14 -3 -6 -6z"/>
<path d="M12705 5510 c-13 -5 -14 -9 -5 -9 8 0 24 4 35 9 13 5 14 9 5 9 -8 0
-24 -4 -35 -9z"/>
<path d="M12658 5493 c7 -3 16 -2 19 1 4 3 -2 6 -13 5 -11 0 -14 -3 -6 -6z"/>
<path d="M12555 5470 c-13 -6 -15 -9 -5 -9 8 0 22 4 30 9 18 12 2 12 -25 0z"/>
<path d="M12670 5470 c12 -9 9 -10 -15 -6 -23 5 -27 4 -15 -4 12 -9 10 -11
-12 -7 -15 2 -25 1 -23 -3 2 -4 -59 -24 -137 -45 -78 -21 -137 -40 -132 -42 6
-2 95 21 200 51 104 30 181 55 172 55 -9 1 -25 4 -35 7 -15 5 -16 4 -3 -6z"/>
<path d="M12508 5453 c7 -3 16 -2 19 1 4 3 -2 6 -13 5 -11 0 -14 -3 -6 -6z"/>
<path d="M12288 5393 c7 -3 16 -2 19 1 4 3 -2 6 -13 5 -11 0 -14 -3 -6 -6z"/>
<path d="M12225 5380 c-13 -5 -14 -9 -5 -9 8 0 24 4 35 9 13 5 14 9 5 9 -8 0
-24 -4 -35 -9z"/>
<path d="M12178 5363 c7 -3 16 -2 19 1 4 3 -2 6 -13 5 -11 0 -14 -3 -6 -6z"/>
<path d="M16291 4963 c-12 -10 -28 -36 -35 -58 -10 -29 -20 -41 -38 -44 -42
-6 -54 -51 -13 -51 14 0 25 -4 25 -9 0 -8 -34 -183 -45 -228 -5 -20 -1 -23 23
-23 27 0 28 1 51 118 13 64 26 123 29 130 2 7 22 12 48 12 40 0 44 2 44 25 0
23 -4 25 -41 25 -40 0 -41 1 -35 28 10 38 35 54 72 47 24 -4 33 -1 38 11 10
26 -2 34 -53 34 -32 0 -56 -6 -70 -17z"/>
<path d="M16046 4773 c-20 -104 -39 -196 -42 -205 -4 -14 1 -18 25 -18 17 0
31 1 31 3 0 2 18 93 40 202 22 109 40 200 40 202 0 2 -13 3 -29 3 l-28 0 -37
-187z"/>
<path d="M17484 4941 c-50 -23 -61 -38 -41 -58 13 -13 19 -12 55 6 53 27 106
27 132 1 44 -44 19 -83 -125 -199 -103 -83 -135 -116 -135 -136 0 -3 66 -4
148 -3 143 3 147 4 150 25 3 22 0 22 -94 25 l-98 3 97 78 c53 42 104 91 113
109 19 36 21 87 4 118 -26 49 -132 65 -206 31z"/>
<path d="M17861 4821 c-72 -76 -131 -146 -131 -155 0 -14 15 -16 111 -16 l111
0 -7 -32 c-4 -18 -9 -41 -11 -50 -4 -14 1 -18 25 -18 25 0 30 5 36 33 13 66
14 67 56 67 35 0 39 3 39 25 0 22 -4 25 -35 25 l-35 0 7 45 c6 43 5 45 -21 45
-22 0 -27 -5 -32 -41 -4 -22 -12 -43 -19 -45 -7 -3 -41 -4 -76 -2 l-64 3 118
121 c64 66 117 124 117 127 0 4 -13 7 -29 7 -24 0 -50 -23 -160 -139z"/>
<path d="M17084 4891 c-5 -23 -12 -31 -33 -33 -36 -4 -44 -48 -8 -48 l24 0
-20 -101 -20 -100 20 -27 c32 -43 133 -44 133 -1 0 18 -4 21 -29 16 -17 -4
-36 -1 -47 7 -18 13 -18 17 0 110 l18 96 43 0 c30 0 45 5 49 16 11 29 6 34
-37 34 -43 0 -43 1 -39 30 4 27 2 30 -22 30 -21 0 -28 -6 -32 -29z"/>
<path d="M16435 4838 c-11 -46 -55 -271 -55 -280 0 -5 12 -8 27 -6 22 2 29 10
34 38 4 19 12 61 19 93 15 73 47 113 100 122 34 6 40 11 40 31 0 31 -31 32
-77 4 -33 -20 -33 -20 -33 0 0 30 -48 28 -55 -2z"/>
<path d="M16656 4778 c-19 -97 -20 -167 -3 -189 31 -40 113 -52 167 -24 27 14
30 14 30 0 0 -25 49 -19 55 8 11 45 55 270 55 279 0 5 -12 8 -27 6 -26 -3 -28
-7 -47 -101 -24 -124 -49 -157 -120 -157 -38 0 -48 4 -62 25 -15 24 -15 32 0
113 10 48 19 95 22 105 4 13 -1 17 -24 17 -29 0 -30 -2 -46 -82z"/>
<path d="M15465 4129 c-10 -43 -75 -372 -75 -381 0 -4 13 -8 29 -8 27 0 30 3
36 48 3 26 9 53 13 59 4 5 45 12 92 15 111 7 164 32 191 91 23 51 24 88 4 127
-24 46 -66 62 -181 68 -102 5 -103 5 -109 -19z m180 -39 c47 -11 65 -32 65
-76 0 -42 -32 -81 -78 -94 -35 -9 -152 -14 -152 -6 0 7 31 161 35 174 5 14 72
16 130 2z"/>
<path d="M16645 4128 c-10 -44 -75 -371 -75 -380 0 -5 12 -8 27 -6 27 3 28 6
55 142 15 77 29 141 31 143 2 2 26 -51 52 -117 34 -82 54 -120 64 -120 9 1 56
53 105 116 49 63 91 113 93 111 2 -3 -9 -66 -25 -141 l-29 -136 28 0 c16 0 29
1 29 3 0 2 18 93 40 202 22 109 40 200 40 202 0 2 -11 3 -23 3 -19 0 -47 -30
-132 -140 -59 -77 -111 -140 -114 -140 -3 0 -31 62 -61 138 -46 113 -59 138
-77 140 -16 2 -24 -3 -28 -20z"/>
<path d="M10112 4100 c-114 -19 -152 -28 -119 -29 25 -1 280 39 286 44 8 9
-53 3 -167 -15z"/>
<path d="M9918 4063 c6 -2 18 -2 25 0 6 3 1 5 -13 5 -14 0 -19 -2 -12 -5z"/>
<path d="M9843 4053 c9 -2 25 -2 35 0 9 3 1 5 -18 5 -19 0 -27 -2 -17 -5z"/>
<path d="M9730 4040 c-24 -8 -24 -8 5 -8 17 0 44 4 60 8 l30 8 -35 0 c-19 0
-46 -4 -60 -8z"/>
<path d="M15855 4028 c-11 -46 -55 -271 -55 -280 0 -5 12 -8 27 -6 22 2 29 10
34 38 4 19 12 61 19 93 15 73 47 113 100 122 34 6 40 11 40 31 0 31 -31 32
-77 4 -33 -20 -33 -20 -33 0 0 30 -48 28 -55 -2z"/>
<path d="M16134 4032 c-111 -53 -133 -226 -34 -277 37 -19 122 -19 158 -1 77
40 118 133 92 208 -8 23 -27 50 -42 61 -39 29 -122 33 -174 9z m143 -58 c22
-22 25 -32 20 -77 -6 -71 -46 -107 -116 -107 -42 0 -53 4 -71 28 -18 21 -21
36 -17 72 11 94 122 145 184 84z"/>
<path d="M17210 4031 c-50 -27 -71 -54 -86 -110 -13 -52 -6 -109 17 -137 36
-43 128 -58 183 -29 35 19 37 19 30 0 -5 -11 1 -15 23 -15 l29 0 27 138 c33
170 33 172 3 172 -17 0 -26 -7 -30 -26 l-7 -27 -24 23 c-34 32 -117 38 -165
11z m147 -57 c22 -22 25 -32 20 -77 -3 -41 -10 -56 -36 -79 -43 -39 -110 -40
-148 -2 -22 22 -25 32 -20 72 11 96 122 148 184 86z"/>
<path d="M17570 4047 c0 -2 -13 -71 -30 -152 -16 -81 -30 -150 -30 -152 0 -1
13 -3 29 -3 28 0 29 2 46 89 22 116 42 148 99 163 34 9 45 17 49 35 5 29 -23
31 -76 4 -36 -18 -37 -18 -37 0 0 14 -7 19 -25 19 -14 0 -25 -2 -25 -3z"/>
<path d="M17842 4029 c-110 -56 -126 -226 -26 -274 47 -22 119 -19 165 7 42
23 49 42 21 57 -12 7 -24 4 -41 -10 -28 -23 -97 -25 -128 -4 -42 30 -37 119
11 164 36 34 100 39 137 12 23 -17 33 -20 50 -11 25 14 21 27 -14 54 -40 30
-122 32 -175 5z"/>
<path d="M18172 4029 c-56 -28 -92 -88 -92 -153 0 -89 50 -136 142 -136 110 1
184 79 175 187 -4 59 -24 88 -74 109 -46 20 -102 17 -151 -7z m142 -50 c22
-17 26 -28 26 -71 0 -44 -4 -54 -34 -84 -28 -28 -41 -34 -78 -34 -77 0 -109
43 -88 120 21 80 114 117 174 69z"/>
<path d="M18524 4036 c-59 -26 -82 -89 -47 -128 9 -10 47 -27 85 -38 71 -22
87 -42 53 -70 -15 -13 -127 -10 -157 4 -12 5 -20 1 -28 -14 -10 -18 -7 -22 24
-35 20 -8 62 -15 94 -15 144 0 191 129 61 168 -75 23 -89 31 -89 51 0 11 9 25
19 31 26 13 97 13 123 -1 21 -11 37 1 38 28 0 30 -120 43 -176 19z"/>
<path d="M9593 4023 c-18 -2 -33 -8 -33 -12 0 -8 110 6 119 14 5 5 -35 4 -86
-2z"/>
<path d="M9465 4000 c-42 -11 -1 -11 50 -1 34 7 35 9 10 9 -16 0 -43 -4 -60
-8z"/>
<path d="M9383 3983 c9 -2 23 -2 30 0 6 3 -1 5 -18 5 -16 0 -22 -2 -12 -5z"/>
<path d="M9318 3973 c6 -2 18 -2 25 0 6 3 1 5 -13 5 -14 0 -19 -2 -12 -5z"/>
<path d="M9195 3960 l-30 -8 35 0 c19 0 46 4 60 8 24 8 24 8 -5 8 -16 0 -43
-4 -60 -8z"/>
<path d="M9045 3940 c-22 -4 -79 -13 -127 -20 -49 -7 -88 -15 -88 -19 0 -7
291 34 315 43 17 7 -58 4 -100 -4z"/>
<path d="M8778 3893 c6 -2 18 -2 25 0 6 3 1 5 -13 5 -14 0 -19 -2 -12 -5z"/>
<path d="M8473 3855 c-207 -32 -259 -43 -217 -44 22 -1 473 67 489 73 29 12
-83 0 -272 -29z"/>
<path d="M8185 3717 c-79 -53 -103 -58 -166 -36 -65 23 -197 28 -252 10 -56
-19 -69 -57 -72 -204 -3 -131 13 -223 41 -244 24 -18 79 -16 116 3 28 15 34
14 89 -7 52 -19 67 -20 119 -12 56 9 63 8 111 -18 92 -51 129 -49 212 13 89
66 118 146 82 231 -8 20 -15 62 -15 94 0 71 -20 106 -90 162 -67 53 -105 54
-175 8z m125 -25 c0 -23 6 -30 34 -40 40 -15 62 -38 71 -74 7 -27 5 -28 -28
-28 -25 0 -44 8 -61 25 -42 42 -126 29 -126 -19 0 -32 13 -40 99 -65 98 -27
131 -58 131 -121 0 -53 -20 -79 -83 -105 -25 -10 -37 -22 -37 -35 0 -16 -7
-20 -34 -20 -28 0 -35 4 -38 22 -2 13 -14 25 -33 32 -54 19 -95 61 -95 95 0
22 68 12 94 -14 20 -20 35 -25 74 -25 57 0 75 15 70 57 -3 26 -10 30 -88 56
-100 32 -140 67 -140 121 0 46 40 93 86 102 29 5 34 10 34 35 0 26 3 29 35 29
32 0 35 -3 35 -28z m-311 -59 c14 -11 34 -36 45 -57 25 -51 15 -96 -31 -141
-26 -25 -33 -38 -26 -47 5 -7 24 -39 42 -70 l32 -58 -45 0 -46 0 -35 70 c-34
67 -37 70 -70 70 l-35 0 0 -70 0 -70 -40 0 -40 0 0 201 0 202 111 -5 c88 -5
117 -10 138 -25z"/>
<path d="M7830 3525 l0 -65 49 0 c55 0 101 28 101 61 0 11 -11 31 -25 44 -19
20 -34 25 -75 25 l-50 0 0 -65z"/>
<path d="M2757 3713 c-13 -12 -7 -23 12 -23 26 0 32 -22 21 -80 -23 -121 -110
-370 -175 -501 -38 -76 -47 -110 -78 -280 -29 -159 -57 -351 -40 -274 71 320
109 467 138 535 19 44 58 154 86 243 29 89 54 164 56 167 3 3 10 -3 18 -13 11
-16 13 -15 19 15 3 18 8 63 12 100 6 62 5 68 -19 92 -27 27 -39 31 -50 19z"/>
<path d="M9270 3689 c-84 -31 -98 -33 -124 -15 -38 24 -97 30 -137 13 -19 -8
-56 -33 -82 -56 -27 -22 -54 -41 -62 -41 -8 0 -22 12 -32 26 -41 59 -61 74
-102 74 -119 0 -171 -72 -122 -168 11 -21 22 -65 25 -97 13 -126 30 -177 61
-189 33 -12 85 -6 104 13 43 43 138 42 205 -2 38 -25 118 -23 142 4 41 45 104
63 104 30 0 -35 27 -51 87 -51 54 0 56 1 122 65 37 36 74 65 83 65 25 0 58
-44 58 -78 0 -38 22 -52 83 -52 30 0 53 7 73 22 104 79 155 170 150 264 -4 64
-29 109 -84 151 -60 45 -115 52 -212 24 l-77 -23 -68 21 c-83 26 -125 26 -195
0z m-500 -229 l0 -200 -35 0 -35 0 0 155 c0 166 -4 180 -49 155 -19 -10 -21
-8 -21 24 0 31 4 36 43 49 23 9 54 16 70 16 l27 1 0 -200z m349 78 l-3 -123
27 -3 c22 -3 27 -8 27 -32 0 -22 -5 -29 -22 -32 -19 -2 -24 -11 -28 -43 -5
-38 -7 -40 -42 -43 -36 -3 -38 -2 -38 27 0 59 -4 61 -106 61 l-94 0 0 28 c0
19 28 67 92 155 l91 127 49 0 49 0 -2 -122z m328 102 c18 -10 39 -34 49 -51
27 -54 14 -104 -57 -223 l-64 -105 -42 -1 c-24 0 -43 2 -43 6 0 3 18 32 40 64
22 32 40 64 40 69 0 6 -18 11 -40 11 -62 0 -102 41 -108 111 -4 49 -1 59 24
88 15 18 37 37 48 41 39 16 119 11 153 -10z m369 -23 c47 -51 47 -109 1 -188
-96 -166 -98 -169 -144 -169 -24 0 -43 2 -43 6 0 3 18 32 40 64 22 32 40 64
40 69 0 6 -14 11 -30 11 -124 0 -164 164 -57 231 26 16 45 19 96 16 58 -3 66
-6 97 -40z"/>
<path d="M8973 3490 c-54 -76 -55 -90 -4 -90 67 0 71 4 71 81 0 49 -4 69 -12
69 -7 0 -32 -27 -55 -60z"/>
<path d="M9339 3586 c-56 -28 -42 -116 19 -116 53 0 82 45 59 89 -16 31 -48
42 -78 27z"/>
<path d="M9682 3590 c-28 -12 -44 -52 -33 -84 16 -40 68 -49 101 -16 27 27 25
56 -5 85 -26 27 -29 28 -63 15z"/>
<path d="M10164 3693 c-78 -26 -144 -112 -159 -203 -11 -70 -27 -109 -49 -117
-12 -4 -24 -6 -28 -5 -5 1 -8 -2 -8 -8 0 -5 -6 -10 -14 -10 -18 0 -22 -13 -25
-83 -3 -70 9 -87 60 -87 32 0 43 6 66 35 33 41 60 44 124 15 69 -31 146 -27
226 12 60 29 68 30 97 18 146 -60 204 -63 282 -14 120 75 142 287 41 392 -72
74 -167 87 -272 38 -70 -34 -81 -33 -154 2 -63 30 -128 36 -187 15z m149 -48
c89 -42 121 -212 60 -316 -40 -69 -153 -94 -225 -52 -102 59 -111 263 -16 349
12 12 30 24 38 27 31 11 113 7 143 -8z m397 0 c119 -61 117 -309 -3 -371 -40
-21 -115 -21 -160 1 -57 27 -80 74 -85 169 -3 70 0 87 20 126 32 62 77 90 145
90 30 0 67 -7 83 -15z m-704 -332 c-34 -91 -41 -103 -67 -103 l-27 0 15 60
c15 59 16 60 50 60 29 0 34 -3 29 -17z"/>
<path d="M10204 3585 c-39 -16 -59 -63 -59 -136 1 -64 22 -104 62 -120 87 -33
153 94 105 203 -24 55 -61 73 -108 53z"/>
<path d="M10600 3588 c-39 -13 -62 -60 -62 -129 0 -100 54 -158 119 -127 43
20 65 72 60 141 -5 90 -53 137 -117 115z"/>
<path d="M4416 3675 c-3 -8 -1 -25 4 -37 8 -20 9 -18 9 15 1 39 -3 47 -13 22z"/>
<path d="M2673 3563 c-12 -26 -26 -66 -33 -88 -16 -51 -25 -61 -43 -47 -11 9
-18 -2 -37 -61 -14 -39 -25 -75 -25 -79 0 -3 -3 -10 -7 -14 -5 -4 -8 -13 -8
-21 0 -11 4 -11 21 -3 11 7 23 9 26 6 7 -6 -24 -130 -39 -159 -7 -14 -16 -16
-42 -11 -51 9 -139 -44 -168 -101 -5 -11 4 -3 22 18 63 74 137 90 169 36 l19
-32 11 39 c5 21 15 62 21 89 21 97 91 344 115 406 29 73 27 92 -2 22z"/>
<path d="M2714 3535 c-38 -99 -87 -271 -82 -287 6 -16 120 330 116 351 -2 9
-18 -20 -34 -64z"/>
<path d="M2632 3554 c-12 -25 -17 -42 -11 -39 12 8 42 75 36 81 -2 2 -13 -17
-25 -42z"/>
<path d="M4297 3568 c-4 -15 -23 -43 -41 -62 -28 -27 -47 -36 -103 -46 -61
-10 -82 -21 -83 -42 0 -5 52 -8 115 -8 l115 0 6 28 c3 15 10 44 16 66 5 21 7
41 4 44 -3 3 -7 -3 -7 -14 -1 -10 -5 -1 -8 21 -6 38 -7 39 -14 13z"/>
<path d="M4381 3574 c0 -11 3 -14 6 -6 3 7 2 16 -1 19 -3 4 -6 -2 -5 -13z"/>
<path d="M4362 3503 c-6 -27 -14 -56 -17 -65 -7 -17 4 -18 144 -18 83 0 151 3
151 8 -1 25 -64 43 -158 45 -7 0 -24 13 -38 29 l-24 30 0 -35 c0 -51 -8 -66
-32 -59 -18 4 -20 10 -14 58 3 30 5 54 3 54 -2 0 -9 -21 -15 -47z"/>
<path d="M4970 3441 c0 -19 6 -21 63 -22 77 -2 119 -10 124 -26 3 -8 -21 -10
-91 -6 -69 4 -96 3 -96 -6 0 -7 31 -11 100 -11 l100 0 0 26 c0 32 -39 49 -132
59 -65 7 -68 6 -68 -14z"/>
<path d="M3920 3441 c-30 -3 -61 -10 -67 -14 -15 -9 -18 -57 -4 -57 5 0 8 8 7
18 -1 14 10 17 69 20 38 2 71 5 73 6 5 5 -10 36 -17 35 -3 -1 -31 -5 -61 -8z"/>
<path d="M4165 3380 l-100 -6 73 -3 c39 -2 77 -5 82 -6 6 -1 17 -3 25 -4 21
-2 19 -47 -9 -171 -42 -185 -40 -180 -142 -301 -110 -129 -175 -199 -186 -199
-10 0 -86 113 -108 163 -36 78 -19 160 38 191 15 9 21 15 14 16 -26 0 -52 -22
-73 -62 -31 -61 -20 -104 60 -241 l68 -117 29 37 c16 21 82 100 148 177 l119
138 44 190 c48 214 48 209 31 206 -7 -1 -58 -5 -113 -8z"/>
<path d="M4277 3143 c-68 -294 -157 -727 -156 -751 0 -9 13 42 29 113 15 72
43 193 63 270 19 77 45 198 57 268 28 166 65 298 87 314 11 9 59 13 150 13 82
0 133 4 133 10 0 6 -58 10 -153 10 l-154 0 -56 -247z"/>
<path d="M3918 3373 c18 -2 45 -2 60 0 15 2 0 4 -33 4 -33 0 -45 -2 -27 -4z"/>
<path d="M2722 3125 c-50 -57 -90 -155 -104 -254 -11 -81 -3 -138 27 -176 13
-18 13 -16 0 17 -8 21 -15 57 -15 81 0 105 80 312 138 357 17 14 20 20 9 20
-8 0 -33 -20 -55 -45z"/>
<path d="M2778 3109 c-27 -36 -48 -73 -48 -85 0 -12 40 28 61 63 29 46 18 64
-13 22z"/>
<path d="M3478 3109 c-27 -36 -48 -73 -48 -85 0 -12 40 28 61 63 29 46 18 64
-13 22z"/>
<path d="M5608 3109 c-27 -36 -48 -73 -48 -85 0 -12 40 28 61 63 29 46 18 64
-13 22z"/>
<path d="M3405 3082 c-23 -36 -66 -143 -65 -166 1 -6 14 24 30 66 16 43 38 91
50 108 12 16 19 30 16 30 -3 0 -17 -17 -31 -38z"/>
<path d="M2826 3075 c-11 -19 -45 -60 -77 -90 -64 -61 -79 -96 -79 -182 0
-156 86 -148 240 23 19 21 6 11 -30 -22 -68 -64 -116 -94 -148 -94 -43 0 -60
59 -42 144 10 48 21 67 69 119 63 68 94 113 89 128 -2 5 -12 -6 -22 -26z"/>
<path d="M5526 3067 c-14 -23 -32 -63 -41 -87 -22 -62 -47 -103 -106 -171 -83
-95 -100 -89 -92 30 7 94 -3 90 -17 -6 -10 -73 -5 -133 11 -133 16 0 99 82
145 142 24 31 55 89 70 130 14 40 35 88 46 106 11 17 17 32 14 32 -3 0 -16
-19 -30 -43z"/>
<path d="M3462 3000 c-79 -85 -92 -114 -92 -202 0 -45 5 -62 23 -84 30 -35 66
-28 134 29 69 57 188 201 207 251 8 23 10 33 3 22 -52 -80 -72 -108 -114 -160
-66 -82 -146 -146 -183 -146 -38 0 -60 32 -60 90 0 73 15 108 79 176 51 54 90
106 79 103 -2 0 -36 -36 -76 -79z"/>
<path d="M5601 3009 c-82 -90 -101 -128 -101 -201 0 -68 15 -106 46 -114 25
-6 86 19 106 44 9 11 0 8 -24 -7 -56 -34 -90 -26 -107 25 -23 66 -3 138 58
207 47 53 96 117 89 117 -2 -1 -32 -32 -67 -71z"/>
<path d="M4385 3016 c-76 -51 -106 -118 -86 -193 6 -22 23 -50 37 -64 l26 -24
-23 39 c-42 71 -21 182 39 212 18 9 70 64 60 64 -2 0 -26 -15 -53 -34z"/>
<path d="M4790 3030 c-19 -10 -59 -39 -89 -65 -60 -52 -101 -75 -130 -75 -15
0 -21 9 -26 43 -8 46 -28 92 -47 103 -6 4 -4 -3 5 -17 12 -17 17 -44 17 -96 0
-69 1 -73 23 -73 42 1 109 40 176 104 37 36 82 72 101 80 19 8 28 15 20 15 -8
0 -31 -8 -50 -19z"/>
<path d="M2401 3015 c-59 -50 -113 -195 -97 -260 13 -52 43 -28 134 109 55 82
59 91 49 120 -5 17 -11 37 -13 44 -5 20 -40 14 -73 -13z m57 -41 c3 -35 -94
-197 -121 -202 -47 -9 9 170 68 217 35 27 49 23 53 -15z"/>
<path d="M4441 2991 c-16 -30 -13 -55 10 -85 28 -36 39 -33 38 12 -2 77 -27
114 -48 73z"/>
<path d="M4794 2978 c-21 -18 -48 -55 -60 -83 -24 -50 -32 -125 -14 -125 11 0
99 104 138 162 17 27 31 38 43 35 11 -3 19 2 22 14 7 25 0 29 -49 29 -35 0
-51 -7 -80 -32z m59 -12 c-15 -26 -85 -98 -90 -93 -10 10 9 47 38 77 31 31 67
42 52 16z"/>
<path d="M2284 2924 c-8 -20 -13 -38 -11 -40 2 -2 11 14 20 36 19 50 12 53 -9
4z"/>
<path d="M5046 2907 c-14 -31 -50 -138 -81 -238 -153 -497 -173 -530 -115
-189 16 96 41 234 54 305 28 143 30 165 17 165 -4 0 -13 -28 -19 -62 -5 -35
-42 -252 -81 -483 -39 -231 -74 -431 -77 -445 -3 -17 -2 -22 4 -15 6 6 60 170
122 365 61 195 133 420 159 500 27 80 47 147 45 149 -2 2 -15 -21 -28 -52z"/>
<path d="M4364 2913 c-18 -43 -13 -97 12 -124 22 -24 35 -24 68 2 34 27 33 40
-9 82 -19 19 -35 44 -35 56 0 33 -20 25 -36 -16z m66 -88 c0 -18 -25 -26 -39
-12 -12 12 -15 40 -4 50 8 9 43 -22 43 -38z"/>
<path d="M5105 2898 c-18 -61 -18 -59 -5 -94 l11 -27 30 29 c38 35 93 114 81
114 -5 0 -23 -18 -41 -40 -17 -22 -39 -40 -48 -40 -13 0 -15 9 -9 55 3 30 4
55 1 55 -2 0 -11 -23 -20 -52z"/>
<path d="M3698 2873 c-15 -22 -52 -69 -84 -104 l-58 -64 75 73 c41 39 79 72
84 72 13 0 127 -194 133 -226 3 -16 -9 -44 -35 -86 -48 -75 -68 -114 -77 -148
-4 -14 8 3 27 37 19 34 50 84 70 112 21 28 37 59 37 69 0 20 -20 60 -77 152
-22 36 -46 85 -54 109 l-15 43 -26 -39z"/>
<path d="M4048 2756 l-128 -154 0 -79 c0 -63 -5 -89 -26 -133 -14 -30 -33 -64
-42 -75 -12 -14 -9 -13 10 3 40 36 70 116 76 202 4 68 8 80 42 125 59 79 147
171 155 163 5 -4 -11 -114 -34 -244 -24 -129 -41 -237 -39 -240 3 -2 15 51 27
119 12 67 39 200 60 295 21 94 35 172 32 172 -3 -1 -63 -70 -133 -154z"/>
<path d="M2473 2853 c-15 -26 -47 -72 -71 -100 -43 -54 -45 -73 -1 -27 13 14
33 30 43 36 18 10 19 7 13 -83 l-6 -94 29 155 c16 85 27 156 25 158 -2 2 -16
-18 -32 -45z"/>
<path d="M3332 2880 c0 -14 2 -19 5 -12 2 6 2 18 0 25 -3 6 -5 1 -5 -13z"/>
<path d="M2262 2850 c0 -14 2 -19 5 -12 2 6 2 18 0 25 -3 6 -5 1 -5 -13z"/>
<path d="M4620 2843 c-27 -14 -57 -23 -75 -21 -25 3 -35 -3 -63 -40 -33 -43
-27 -47 14 -10 23 21 126 49 143 39 5 -3 12 -18 16 -33 4 -15 14 -33 23 -40
14 -12 14 -10 2 11 -8 15 -10 42 -7 73 3 26 3 47 -1 47 -4 -1 -27 -13 -52 -26z"/>
<path d="M4815 2819 c-22 -28 -56 -62 -75 -75 -42 -29 -19 -32 28 -4 63 39 64
57 -13 -415 -30 -181 -57 -357 -60 -390 -2 -33 11 32 30 145 19 113 58 335 85
494 28 159 49 290 47 292 -1 2 -21 -19 -42 -47z"/>
<path d="M5179 2798 c-50 -53 -69 -58 -99 -28 -22 22 -2 77 -205 -568 -42
-133 -83 -259 -91 -278 -8 -20 -13 -38 -11 -41 6 -6 54 129 117 327 123 391
161 504 171 516 6 8 27 14 46 14 19 0 47 7 62 15 30 15 41 11 41 -15 0 -9 6
-24 13 -33 10 -15 12 -8 9 40 -5 106 -2 103 -53 51z"/>
<path d="M3323 2800 c0 -25 2 -35 4 -22 2 12 2 32 0 45 -2 12 -4 2 -4 -23z"/>
<path d="M2252 2795 c0 -16 2 -22 5 -12 2 9 2 23 0 30 -3 6 -5 -1 -5 -18z"/>
<path d="M5390 2747 c-66 -72 -65 -77 1 -25 37 28 59 36 59 20 0 -5 7 -17 16
-28 8 -10 12 -13 9 -5 -4 7 -10 35 -14 61 l-6 48 -65 -71z"/>
<path d="M2442 2550 c0 -19 2 -27 5 -17 2 9 2 25 0 35 -3 9 -5 1 -5 -18z"/>
<path d="M3853 2508 c-41 -65 -93 -171 -93 -190 0 -10 5 -18 11 -18 18 0 71
62 90 105 18 41 36 145 25 145 -3 0 -18 -19 -33 -42z m-13 -97 c0 -11 -39 -59
-40 -49 0 14 23 58 32 58 4 0 8 -4 8 -9z"/>
<path d="M2482 2500 c0 -14 2 -19 5 -12 2 6 2 18 0 25 -3 6 -5 1 -5 -13z"/>
<path d="M2432 2480 c0 -14 2 -19 5 -12 2 6 2 18 0 25 -3 6 -5 1 -5 -13z"/>
<path d="M2472 2430 c0 -14 2 -19 5 -12 2 6 2 18 0 25 -3 6 -5 1 -5 -13z"/>
<path d="M2422 2410 c0 -14 2 -19 5 -12 2 6 2 18 0 25 -3 6 -5 1 -5 -13z"/>
<path d="M2462 2355 c0 -16 2 -22 5 -12 2 9 2 23 0 30 -3 6 -5 -1 -5 -18z"/>
<path d="M4112 2350 c0 -14 2 -19 5 -12 2 6 2 18 0 25 -3 6 -5 1 -5 -13z"/>
<path d="M3721 2344 c0 -11 3 -14 6 -6 3 7 2 16 -1 19 -3 4 -6 -2 -5 -13z"/>
<path d="M4102 2300 c0 -14 2 -19 5 -12 2 6 2 18 0 25 -3 6 -5 1 -5 -13z"/>
<path d="M4052 2285 c0 -16 2 -22 5 -12 2 9 2 23 0 30 -3 6 -5 -1 -5 -18z"/>
<path d="M2450 2266 c0 -9 5 -16 10 -16 6 0 10 4 10 9 0 6 -4 13 -10 16 -5 3
-10 -1 -10 -9z"/>
<path d="M4091 2244 c0 -11 3 -14 6 -6 3 7 2 16 -1 19 -3 4 -6 -2 -5 -13z"/>
<path d="M4042 2230 c0 -14 2 -19 5 -12 2 6 2 18 0 25 -3 6 -5 1 -5 -13z"/>
<path d="M4081 2194 c0 -11 3 -14 6 -6 3 7 2 16 -1 19 -3 4 -6 -2 -5 -13z"/>
<path d="M4032 2170 c0 -14 2 -19 5 -12 2 6 2 18 0 25 -3 6 -5 1 -5 -13z"/>
<path d="M4072 2130 c0 -14 2 -19 5 -12 2 6 2 18 0 25 -3 6 -5 1 -5 -13z"/>
<path d="M4021 2104 c0 -11 3 -14 6 -6 3 7 2 16 -1 19 -3 4 -6 -2 -5 -13z"/>
<path d="M4060 2070 c0 -5 5 -10 10 -10 6 0 10 5 10 10 0 6 -4 10 -10 10 -5 0
-10 -4 -10 -10z"/>
</g>
</svg>
