<?xml version="1.0" standalone="no"?>
<!DOCTYPE svg PUBLIC "-//W3C//DTD SVG 20010904//EN"
 "http://www.w3.org/TR/2001/REC-SVG-20010904/DTD/svg10.dtd">
<svg version="1.0" xmlns="http://www.w3.org/2000/svg"
 width="1920.000000pt" height="650.000000pt" viewBox="0 0 1920.000000 650.000000"
 preserveAspectRatio="xMidYMid meet">

<g transform="translate(0.000000,650.000000) scale(0.100000,-0.100000)"
fill="#000000" stroke="none">
<path d="M0 3250 l0 -3250 9600 0 9600 0 0 3250 0 3250 -9600 0 -9600 0 0
-3250z m11046 2409 c19 -21 19 -74 19 -2346 0 -2290 0 -2325 -19 -2339 -17
-12 -285 -14 -1852 -14 l-1833 0 -15 22 c-14 20 -16 258 -16 2338 l0 2316 20
22 21 22 1828 0 1828 0 19 -21z m-4058 -601 c9 -9 12 -407 12 -1733 0 -946 -4
-1726 -8 -1733 -7 -10 -289 -12 -1378 -10 l-1369 3 -3 1729 c-1 1270 1 1732 9
1742 16 19 2718 21 2737 2z m7164 -5 c17 -15 18 -82 18 -1725 0 -1159 -3
-1716 -10 -1729 -11 -19 -36 -19 -1373 -19 -1047 0 -1366 3 -1375 12 -16 16
-18 3429 -2 3459 11 19 36 19 1367 19 1248 0 1358 -1 1375 -17z m1478 -228 c0
-78 -3 -95 -15 -95 -12 0 -15 17 -15 95 0 78 3 95 15 95 12 0 15 -17 15 -95z
m80 60 c0 -32 2 -35 19 -25 51 27 81 -1 81 -76 0 -41 -4 -54 -15 -54 -11 0
-15 12 -15 50 0 38 -4 52 -16 57 -30 11 -49 -11 -52 -61 -2 -32 -7 -46 -18
-46 -11 0 -14 19 -14 95 0 78 3 95 15 95 11 0 15 -11 15 -35z m770 0 c0 -32 2
-35 19 -25 51 27 81 -1 81 -76 0 -41 -4 -54 -15 -54 -11 0 -15 12 -15 50 0 38
-4 52 -16 57 -30 11 -49 -11 -52 -61 -2 -32 -7 -46 -18 -46 -11 0 -14 19 -14
95 0 78 3 95 15 95 11 0 15 -11 15 -35z m570 -58 l0 -93 -55 -2 c-46 -1 -57 2
-70 21 -41 59 15 139 75 107 18 -10 20 -8 20 25 0 24 4 35 15 35 12 0 15 -17
15 -93z m-2125 67 c35 -23 48 -68 31 -109 -17 -39 -42 -55 -89 -55 -90 0 -121
123 -42 168 28 16 72 15 100 -4z m2475 -14 c0 -13 7 -20 20 -20 11 0 20 -4 20
-10 0 -5 -9 -10 -20 -10 -17 0 -20 -7 -20 -40 0 -33 3 -40 20 -40 11 0 20 -7
20 -15 0 -18 -41 -20 -58 -3 -7 7 -12 31 -12 54 0 24 -5 45 -12 48 -10 5 -10
7 0 12 6 3 12 14 12 25 0 10 7 19 15 19 8 0 15 -9 15 -20z m-2336 -16 c26 -10
18 -24 -14 -24 -38 0 -39 -18 -1 -31 73 -26 32 -94 -45 -75 -14 4 -23 12 -21
19 2 7 11 10 18 8 50 -14 65 6 23 30 -35 19 -43 48 -18 66 20 14 34 16 58 7z
m148 -5 c3 -9 9 -9 25 0 29 15 39 14 57 -5 14 -14 18 -14 38 0 28 20 42 20 62
0 22 -21 23 -124 2 -124 -11 0 -16 15 -18 52 -2 43 -7 54 -22 56 -27 6 -46
-24 -46 -70 0 -26 -4 -38 -14 -38 -11 0 -16 15 -18 52 -2 43 -7 54 -22 56 -27
6 -46 -24 -46 -70 0 -27 -4 -38 -15 -38 -12 0 -15 14 -15 63 0 35 3 67 7 70
10 10 21 8 25 -4z m338 -9 c11 -11 20 -29 20 -40 0 -17 -7 -20 -50 -20 -27 0
-50 -4 -50 -10 0 -16 38 -31 65 -24 27 7 35 -10 9 -20 -79 -30 -143 62 -78
113 33 26 58 27 84 1z m405 -5 c30 -30 31 -54 4 -89 -39 -49 -119 -24 -119 37
0 37 7 49 35 65 31 18 54 14 80 -13z m85 15 c0 -7 6 -7 19 0 14 7 22 7 26 -1
4 -6 5 -11 4 -12 -41 -21 -44 -27 -47 -71 -2 -32 -7 -46 -18 -46 -11 0 -14 16
-14 70 0 56 3 70 15 70 8 0 15 -5 15 -10z m178 -17 c6 -9 12 -25 12 -35 0 -15
-8 -18 -50 -18 -52 0 -61 -8 -35 -30 12 -10 22 -10 39 -2 28 12 41 5 25 -15
-15 -18 -59 -17 -87 3 -22 15 -30 66 -14 90 24 35 85 39 110 7z m110 21 c34
-9 21 -30 -16 -26 -41 4 -41 -10 0 -29 72 -31 27 -101 -46 -73 -30 12 -16 25
19 18 46 -8 48 17 3 37 -38 16 -46 39 -23 63 18 17 28 19 63 10z m392 -14 c11
-11 20 -29 20 -40 0 -17 -7 -20 -50 -20 -27 0 -50 -4 -50 -10 0 -16 38 -31 65
-24 27 7 35 -10 9 -20 -79 -30 -143 62 -78 113 33 26 58 27 84 1z m141 10 c15
-9 19 -22 19 -70 l0 -58 -51 1 c-37 2 -55 7 -63 20 -17 27 4 51 48 55 44 4 44
26 0 29 -48 2 -50 3 -30 18 23 18 50 19 77 5z m303 4 c26 -10 18 -24 -14 -24
-38 0 -39 -18 -1 -31 73 -26 32 -94 -45 -75 -14 4 -23 12 -21 19 2 7 11 10 18
8 50 -14 65 6 23 30 -35 19 -43 48 -18 66 20 14 34 16 58 7z m151 -19 c40 -39
33 -55 -25 -55 -52 0 -61 -8 -35 -30 12 -10 22 -10 39 -2 28 12 41 5 25 -15
-16 -19 -73 -16 -91 5 -45 52 -18 118 50 121 7 1 24 -10 37 -24z m-1755 -280
c0 -78 -3 -95 -15 -95 -8 0 -15 5 -15 12 0 9 -3 9 -12 0 -17 -17 -58 -15 -80
5 -24 22 -24 77 2 103 22 22 42 25 71 10 17 -10 19 -7 19 25 0 24 4 35 15 35
12 0 15 -17 15 -95z m1370 2 l0 -94 -51 -1 c-59 -1 -89 21 -89 67 0 49 50 83
90 61 18 -10 20 -8 20 25 0 24 4 35 15 35 12 0 15 -17 15 -93z m610 84 c0 -9
-24 -21 -42 -21 -6 0 -6 6 2 15 14 16 40 20 40 6z m-1160 -31 c0 -13 7 -20 20
-20 11 0 20 -4 20 -10 0 -5 -9 -10 -20 -10 -16 0 -20 -7 -20 -36 0 -27 5 -37
20 -41 29 -8 25 -33 -4 -33 -14 0 -28 5 -31 10 -13 21 -22 115 -14 137 11 28
29 30 29 3z m1000 0 c0 -13 7 -20 20 -20 11 0 20 -4 20 -10 0 -5 -9 -10 -20
-10 -17 0 -20 -7 -20 -40 0 -33 3 -40 20 -40 11 0 20 -7 20 -15 0 -18 -41 -20
-58 -3 -7 7 -12 31 -12 54 0 24 -5 45 -12 48 -10 5 -10 7 0 12 6 3 12 14 12
25 0 10 7 19 15 19 8 0 15 -9 15 -20z m-2504 -20 c34 -13 23 -25 -24 -25 -34
0 -37 -3 -40 -30 -5 -37 20 -58 53 -45 27 10 39 2 24 -17 -15 -18 -59 -17 -87
3 -15 10 -22 25 -22 47 0 37 7 49 35 65 25 14 28 14 61 2z m158 -11 c50 -40
21 -119 -44 -119 -65 0 -94 79 -44 119 15 12 34 21 44 21 10 0 29 -9 44 -21z
m86 12 c0 -5 13 -4 30 2 25 9 33 9 46 -5 15 -14 18 -15 44 0 25 15 30 15 54
-1 23 -15 26 -24 26 -72 0 -42 -3 -55 -15 -55 -11 0 -15 11 -15 39 0 51 -8 71
-29 71 -28 0 -41 -21 -41 -67 0 -32 -4 -43 -15 -43 -11 0 -15 12 -15 50 0 38
-4 52 -16 57 -30 11 -49 -11 -52 -61 -2 -32 -7 -46 -18 -46 -11 0 -14 15 -14
63 0 35 3 67 7 70 9 10 23 9 23 -2z m578 -7 c12 -8 22 -26 22 -39 0 -22 -5
-24 -52 -27 -50 -3 -51 -4 -34 -21 13 -13 27 -16 47 -12 36 8 40 -12 4 -21
-38 -9 -70 3 -83 31 -17 38 -15 53 13 80 28 29 51 31 83 9z m120 10 c34 -9 21
-30 -16 -26 -41 4 -41 -10 1 -29 43 -19 51 -65 13 -75 -32 -8 -76 2 -76 17 0
7 12 9 34 5 48 -9 55 10 12 31 -40 19 -49 54 -18 72 20 12 21 12 50 5z m143
-4 c30 -17 22 -29 -14 -23 -40 6 -62 -15 -53 -51 7 -29 28 -38 61 -26 30 11
44 -5 16 -19 -23 -13 -61 -14 -77 -3 -15 10 -34 47 -34 67 0 21 44 65 65 65 9
0 25 -5 36 -10z m164 -15 c30 -30 31 -54 4 -89 -39 -49 -119 -24 -119 37 0 37
7 49 35 65 31 18 54 14 80 -13z m85 15 c0 -6 10 -5 25 2 19 9 29 8 50 -6 22
-14 25 -24 25 -71 0 -42 -3 -55 -15 -55 -11 0 -15 12 -15 49 0 41 -3 51 -20
56 -32 10 -50 -12 -50 -61 0 -32 -4 -44 -15 -44 -12 0 -15 14 -15 70 0 56 3
70 15 70 8 0 15 -4 15 -10z m344 -11 c50 -40 21 -119 -44 -119 -65 0 -94 79
-44 119 15 12 34 21 44 21 10 0 29 -9 44 -21z m124 15 c34 -9 21 -30 -16 -26
-41 4 -41 -10 0 -29 72 -31 27 -101 -46 -73 -30 12 -16 25 19 18 46 -8 48 17
3 37 -38 16 -46 39 -23 63 18 17 28 19 63 10z m397 -19 c40 -39 33 -55 -25
-55 -52 0 -61 -8 -35 -30 12 -10 22 -10 39 -2 28 12 41 5 25 -15 -16 -19 -73
-16 -91 5 -45 52 -18 118 50 121 7 1 24 -10 37 -24z m215 5 c15 -15 20 -33 20
-69 l0 -48 -49 -2 c-47 -1 -81 16 -81 39 0 20 34 40 67 40 23 0 33 4 30 13 -2
7 -19 12 -41 11 -60 -2 -45 31 17 35 9 0 26 -8 37 -19z m260 0 c11 -11 20 -29
20 -40 0 -17 -7 -20 -50 -20 -52 0 -64 -12 -30 -30 14 -7 26 -7 39 -1 23 13
35 3 20 -16 -15 -18 -59 -17 -87 3 -37 26 -26 101 18 117 29 11 50 7 70 -13z
m-774 -492 c30 -18 54 -35 54 -38 0 -3 -26 -50 -58 -105 -32 -55 -127 -219
-211 -365 -85 -146 -157 -269 -161 -273 -8 -9 -120 50 -120 63 0 11 431 750
437 750 3 0 29 -15 59 -32z m-1595 -12 c88 -37 132 -100 132 -187 0 -65 -26
-116 -75 -147 l-31 -20 24 -12 c68 -35 101 -90 102 -170 1 -94 -53 -164 -151
-198 -93 -32 -244 -23 -344 20 -72 31 -74 36 -39 112 l30 66 49 -25 c132 -66
272 -47 272 37 0 66 -41 88 -162 88 l-68 0 0 74 0 74 86 3 c76 4 88 7 105 28
10 13 19 33 19 46 0 33 -35 72 -73 79 -38 7 -138 -17 -185 -44 l-33 -20 -29
66 c-17 36 -27 70 -24 75 10 16 82 49 142 64 70 18 202 13 253 -9z m598 13
c102 -22 177 -106 205 -230 29 -125 15 -302 -30 -392 -23 -45 -72 -95 -119
-120 -57 -31 -192 -31 -251 0 -115 60 -175 213 -161 408 14 187 83 298 205
331 59 16 89 17 151 3z m588 -10 c62 -30 95 -90 101 -183 5 -89 -10 -146 -51
-193 -40 -45 -82 -63 -150 -63 -123 0 -197 85 -197 225 0 78 12 124 43 169 44
63 170 86 254 45z m-14087 -136 c0 -4 -32 -49 -71 -100 l-71 -93 -49 0 c-27 0
-49 2 -49 5 0 3 21 48 47 100 l48 95 72 0 c40 0 73 -3 73 -7z m668 -95 l-3
-73 -87 -3 -88 -3 0 76 0 75 90 0 91 0 -3 -72z m-1688 33 c19 -6 50 -20 67
-31 l33 -20 -27 -57 c-15 -32 -28 -59 -29 -61 -1 -1 -25 9 -55 23 -71 33 -177
35 -227 5 -48 -30 -72 -88 -72 -180 0 -154 72 -221 218 -204 l52 6 0 64 0 64
-60 0 -61 0 3 58 c3 55 4 57 31 56 15 0 77 -1 137 -2 l110 -2 0 -165 0 -164
-72 -23 c-91 -29 -257 -31 -327 -5 -113 43 -180 126 -202 251 -31 182 57 339
220 391 52 17 203 14 261 -4z m1340 -121 l0 -70 55 0 55 0 0 -60 0 -60 -55 0
-55 0 0 -90 c0 -83 2 -93 25 -115 16 -17 35 -25 58 -25 l35 0 -5 -47 c-3 -27
-6 -54 -8 -60 -5 -16 -67 -17 -135 -2 -103 22 -140 91 -140 259 l0 80 -40 0
-40 0 0 60 0 60 40 0 40 0 0 63 c0 35 3 67 7 70 3 4 42 7 85 7 l78 0 0 -70z
m14308 15 c87 -26 132 -101 132 -222 0 -70 -13 -115 -47 -161 -65 -87 -213
-94 -294 -13 -44 43 -59 92 -59 186 1 109 53 194 128 211 15 3 32 7 37 9 22 7
54 4 103 -10z m-15076 -143 l3 -62 -32 -5 c-18 -3 -50 -8 -70 -11 -21 -3 -48
-15 -60 -27 -22 -19 -23 -28 -23 -159 l0 -138 -85 0 -85 0 0 230 0 230 80 0
80 0 0 -32 c0 -33 1 -33 18 -12 9 12 28 28 42 35 28 15 111 28 122 20 3 -4 8
-34 10 -69z m361 54 c42 -17 83 -66 97 -114 5 -20 10 -106 10 -189 l0 -153
-80 0 c-80 0 -80 0 -80 26 l0 27 -26 -26 c-31 -31 -88 -42 -144 -27 -84 23
-133 108 -108 186 18 55 75 81 191 90 74 6 87 10 87 25 0 51 -71 63 -167 29
-31 -11 -58 -19 -59 -17 -1 1 -11 25 -23 53 l-20 52 37 15 c20 9 51 20 67 26
45 14 181 13 218 -3z m1161 -7 c31 -11 57 -23 60 -27 2 -4 -5 -30 -16 -59
l-20 -51 -43 19 c-62 28 -125 34 -150 15 -18 -13 -18 -16 -5 -29 8 -8 48 -22
88 -32 124 -30 166 -72 159 -159 -4 -41 -10 -55 -40 -82 -64 -59 -219 -70
-329 -22 -54 23 -55 28 -23 105 l14 32 48 -21 c32 -14 70 -22 113 -22 59 -1
65 1 68 20 3 19 -5 24 -70 39 -143 34 -183 66 -183 151 0 54 27 92 85 122 59
30 167 31 244 1z m-414 -219 l0 -230 -85 0 -85 0 0 230 0 230 85 0 85 0 0
-230z m12060 -660 c0 -11 6 -20 14 -20 7 0 16 9 19 20 3 11 10 20 16 20 6 0 8
-7 5 -15 -4 -8 1 -17 10 -21 20 -8 21 -24 1 -24 -8 0 -15 -7 -15 -15 0 -8 5
-15 10 -15 6 0 10 -4 10 -10 0 -5 -7 -10 -15 -10 -8 0 -15 -9 -15 -20 0 -11
-4 -20 -10 -20 -5 0 -10 9 -10 20 0 12 -7 20 -16 20 -9 0 -18 -9 -21 -20 -3
-11 -9 -20 -14 -20 -5 0 -9 9 -9 20 0 11 -4 20 -10 20 -5 0 -10 5 -10 10 0 6
7 10 15 10 21 0 19 26 -2 35 -16 6 -15 8 5 16 12 4 22 15 22 24 0 8 5 15 10
15 6 0 10 -9 10 -20z m186 -25 c20 -15 15 -18 -28 -15 -19 1 -28 -5 -33 -20
-10 -31 12 -52 47 -45 30 7 40 -8 12 -19 -27 -11 -61 -6 -74 9 -20 24 -15 67
10 87 27 22 40 23 66 3z m64 -29 c0 -47 12 -60 43 -44 12 6 17 21 17 48 0 22
5 40 10 40 6 0 10 -26 10 -58 l0 -58 -45 -2 c-35 -1 -47 3 -55 18 -11 21 -14
83 -3 93 15 16 23 4 23 -37z m224 25 c9 -8 16 -28 16 -47 0 -38 -27 -59 -66
-51 -20 3 -24 0 -24 -19 0 -15 -6 -24 -15 -24 -12 0 -15 15 -15 78 l0 79 44
-2 c24 0 51 -7 60 -14z m136 -1 c24 -24 25 -48 4 -78 -18 -26 -65 -30 -88 -6
-24 23 -20 70 6 88 30 21 54 20 78 -4z m70 9 c0 -8 5 -7 15 1 12 10 21 10 41
1 17 -7 31 -8 44 -1 26 14 36 13 54 -6 22 -21 22 -104 1 -104 -11 0 -15 11
-15 40 0 27 -5 43 -15 46 -24 10 -45 -15 -45 -52 0 -49 -18 -42 -22 9 -3 37
-6 42 -28 42 -22 0 -25 -5 -28 -42 -2 -29 -8 -43 -18 -43 -10 0 -14 14 -14 53
0 30 3 57 7 60 10 11 23 8 23 -4z m1689 -80 c-26 -20 -54 -26 -44 -9 4 6 -121
11 -357 12 -234 2 -363 7 -363 13 0 6 132 12 365 15 201 3 361 6 357 8 -5 1
-5 7 -2 12 4 6 18 2 37 -11 l30 -22 -23 -18z m-15619 -100 c78 -18 130 -84
130 -164 0 -53 -10 -77 -53 -122 -48 -51 -87 -54 -529 -51 -390 3 -393 3 -430
26 -130 81 -100 277 47 313 48 11 784 10 835 -2z m1394 1 c45 -10 81 -34 110
-74 30 -39 30 -143 0 -183 -33 -44 -80 -71 -137 -78 -29 -4 -241 -5 -472 -3
-469 3 -456 2 -512 75 -24 31 -28 46 -28 98 0 52 4 67 28 98 30 40 55 56 102
68 44 10 863 10 909 -1z m11906 -450 c0 -6 -31 -10 -74 -10 -41 0 -86 -4 -100
-10 -15 -5 -28 -6 -31 0 -3 5 9 14 27 19 45 13 178 14 178 1z m140 0 c0 -6
-27 -10 -60 -10 -33 0 -60 4 -60 10 0 6 27 10 60 10 33 0 60 -4 60 -10z m140
0 c0 -6 -27 -10 -60 -10 -33 0 -60 4 -60 10 0 6 27 10 60 10 33 0 60 -4 60
-10z m140 0 c0 -6 -27 -10 -60 -10 -33 0 -60 4 -60 10 0 6 27 10 60 10 33 0
60 -4 60 -10z m140 0 c0 -6 -27 -10 -60 -10 -33 0 -60 4 -60 10 0 6 27 10 60
10 33 0 60 -4 60 -10z m140 0 c0 -6 -27 -10 -60 -10 -33 0 -60 4 -60 10 0 6
27 10 60 10 33 0 60 -4 60 -10z m140 0 c0 -6 -27 -10 -60 -10 -33 0 -60 4 -60
10 0 6 27 10 60 10 33 0 60 -4 60 -10z m140 0 c0 -6 -27 -10 -60 -10 -33 0
-60 4 -60 10 0 6 27 10 60 10 33 0 60 -4 60 -10z m140 0 c0 -6 -27 -10 -60
-10 -33 0 -60 4 -60 10 0 6 27 10 60 10 33 0 60 -4 60 -10z m140 0 c0 -6 -27
-10 -60 -10 -33 0 -60 4 -60 10 0 6 27 10 60 10 33 0 60 -4 60 -10z m140 0 c0
-6 -27 -10 -60 -10 -33 0 -60 4 -60 10 0 6 27 10 60 10 33 0 60 -4 60 -10z
m140 0 c0 -6 -27 -10 -60 -10 -33 0 -60 4 -60 10 0 6 27 10 60 10 33 0 60 -4
60 -10z m140 0 c0 -6 -27 -10 -60 -10 -33 0 -60 4 -60 10 0 6 27 10 60 10 33
0 60 -4 60 -10z m140 0 c0 -6 -27 -10 -60 -10 -33 0 -60 4 -60 10 0 6 27 10
60 10 33 0 60 -4 60 -10z m140 0 c0 -6 -27 -10 -60 -10 -33 0 -60 4 -60 10 0
6 27 10 60 10 33 0 60 -4 60 -10z m140 0 c0 -6 -27 -10 -60 -10 -33 0 -60 4
-60 10 0 6 27 10 60 10 33 0 60 -4 60 -10z m140 0 c0 -6 -27 -10 -60 -10 -33
0 -60 4 -60 10 0 6 27 10 60 10 33 0 60 -4 60 -10z m140 0 c0 -6 -27 -10 -60
-10 -33 0 -60 4 -60 10 0 6 27 10 60 10 33 0 60 -4 60 -10z m124 4 c30 -12 8
-19 -48 -16 -31 2 -56 8 -56 13 0 10 80 12 104 3z m95 -58 c35 -38 18 -44 -19
-7 -17 17 -36 31 -41 31 -6 0 -7 5 -4 10 8 13 32 0 64 -34z m-2819 18 c0 -9
-64 -84 -73 -84 -10 0 11 40 36 68 19 21 37 29 37 16z m2864 -96 c9 -36 7 -88
-4 -88 -5 0 -10 18 -10 39 0 22 -3 46 -6 55 -3 9 -2 16 4 16 5 0 12 -10 16
-22z m-2934 -68 c0 -33 -4 -60 -10 -60 -11 0 -14 78 -4 104 11 28 14 18 14
-44z m2940 -100 c0 -33 -4 -60 -10 -60 -6 0 -10 27 -10 60 0 33 4 60 10 60 6
0 10 -27 10 -60z m-16640 -7 c44 -31 80 -61 80 -68 0 -6 -27 -30 -61 -54 l-61
-43 61 -44 c34 -24 61 -48 61 -54 0 -10 -100 -89 -138 -109 -43 -23 -52 -9
-52 79 l0 80 -42 -30 c-46 -34 -63 -37 -72 -15 -3 10 11 27 44 52 28 21 50 40
50 43 0 3 -12 13 -27 22 -41 24 -74 58 -68 69 10 16 37 10 71 -16 18 -14 35
-25 38 -25 3 0 6 33 6 73 0 61 10 97 27 97 1 0 38 -25 83 -57z m1370 38 c6
-12 10 -97 10 -208 0 -198 -7 -234 -44 -220 -14 6 -16 31 -16 220 0 118 3 217
7 220 12 13 32 7 43 -12z m-640 -23 c54 -28 85 -72 95 -134 5 -33 14 -53 31
-66 19 -16 24 -29 24 -65 0 -44 -20 -83 -42 -83 -5 0 -24 -11 -41 -24 -43 -33
-153 -64 -170 -47 -18 18 5 47 36 43 15 -1 42 4 62 12 l35 15 0 75 c0 44 5 78
11 82 19 12 5 102 -21 129 -61 65 -176 51 -216 -26 -16 -33 -19 -90 -4 -105 6
-6 10 -41 8 -80 l-3 -69 -33 -3 c-19 -2 -44 4 -58 13 -20 13 -24 24 -24 65 0
43 4 52 30 72 25 18 30 29 30 63 0 80 82 154 170 155 20 0 56 -10 80 -22z
m12970 -43 c0 -30 -4 -55 -10 -55 -5 0 -10 25 -10 55 0 30 5 55 10 55 6 0 10
-25 10 -55z m-12422 3 c19 -19 16 -272 -3 -288 -12 -10 -18 -10 -30 0 -12 10
-15 39 -15 144 0 123 6 156 30 156 3 0 11 -5 18 -12z m166 6 c14 -5 16 -28 16
-149 0 -123 -2 -144 -16 -149 -37 -14 -44 11 -44 148 0 89 4 136 12 144 14 14
12 14 32 6z m15196 -83 c0 -37 -16 -81 -30 -81 -7 0 -8 6 0 19 5 11 10 36 10
55 0 20 5 36 10 36 6 0 10 -13 10 -29z m-15446 -7 c35 -35 10 -143 -29 -128
-19 8 -21 130 -2 137 6 3 13 6 14 6 1 1 9 -6 17 -15z m346 -59 c0 -62 -9 -78
-37 -68 -16 6 -17 115 -2 130 25 25 39 2 39 -62z m12169 18 c7 -21 15 -44 17
-50 3 -7 1 -13 -4 -13 -11 0 -21 20 -32 68 -11 44 4 40 19 -5z m2869 -88 c-21
-19 -46 -35 -55 -34 -17 0 -16 1 1 12 10 7 31 22 45 34 42 36 49 26 9 -12z
m-2812 4 c3 -6 23 -18 43 -27 26 -11 31 -17 18 -20 -20 -4 -78 27 -85 46 -5
15 14 16 24 1z m214 -49 c0 -6 -27 -10 -60 -10 -33 0 -60 4 -60 10 0 6 27 10
60 10 33 0 60 -4 60 -10z m140 0 c0 -6 -27 -10 -60 -10 -33 0 -60 4 -60 10 0
6 27 10 60 10 33 0 60 -4 60 -10z m140 0 c0 -6 -27 -10 -60 -10 -33 0 -60 4
-60 10 0 6 27 10 60 10 33 0 60 -4 60 -10z m140 0 c0 -6 -27 -10 -60 -10 -33
0 -60 4 -60 10 0 6 27 10 60 10 33 0 60 -4 60 -10z m140 0 c0 -6 -27 -10 -60
-10 -33 0 -60 4 -60 10 0 6 27 10 60 10 33 0 60 -4 60 -10z m140 0 c0 -6 -27
-10 -60 -10 -33 0 -60 4 -60 10 0 6 27 10 60 10 33 0 60 -4 60 -10z m140 0 c0
-6 -27 -10 -60 -10 -33 0 -60 4 -60 10 0 6 27 10 60 10 33 0 60 -4 60 -10z
m140 0 c0 -6 -27 -10 -60 -10 -33 0 -60 4 -60 10 0 6 27 10 60 10 33 0 60 -4
60 -10z m140 0 c0 -6 -27 -10 -60 -10 -33 0 -60 4 -60 10 0 6 27 10 60 10 33
0 60 -4 60 -10z m140 0 c0 -6 -27 -10 -60 -10 -33 0 -60 4 -60 10 0 6 27 10
60 10 33 0 60 -4 60 -10z m140 0 c0 -6 -27 -10 -60 -10 -33 0 -60 4 -60 10 0
6 27 10 60 10 33 0 60 -4 60 -10z m140 0 c0 -6 -27 -10 -60 -10 -33 0 -60 4
-60 10 0 6 27 10 60 10 33 0 60 -4 60 -10z m140 0 c0 -6 -27 -10 -60 -10 -33
0 -60 4 -60 10 0 6 27 10 60 10 33 0 60 -4 60 -10z m140 0 c0 -6 -27 -10 -60
-10 -33 0 -60 4 -60 10 0 6 27 10 60 10 33 0 60 -4 60 -10z m140 0 c0 -6 -27
-10 -60 -10 -33 0 -60 4 -60 10 0 6 27 10 60 10 33 0 60 -4 60 -10z m140 0 c0
-6 -27 -10 -60 -10 -33 0 -60 4 -60 10 0 6 27 10 60 10 33 0 60 -4 60 -10z
m140 0 c0 -6 -27 -10 -60 -10 -33 0 -60 4 -60 10 0 6 27 10 60 10 33 0 60 -4
60 -10z m140 0 c0 -6 -27 -10 -60 -10 -33 0 -60 4 -60 10 0 6 27 10 60 10 33
0 60 -4 60 -10z m135 0 c-3 -5 -31 -10 -61 -10 -30 0 -54 5 -54 10 0 6 27 10
61 10 37 0 58 -4 54 -10z"/>
<path d="M9811 5471 c-25 -25 -28 -79 -7 -119 8 -15 42 -54 75 -87 l61 -59 46
44 c106 103 131 171 80 219 -21 20 -32 22 -68 17 -52 -7 -61 -8 -120 0 -38 5
-50 2 -67 -15z"/>
<path d="M10340 5477 c0 -12 161 -117 180 -117 19 0 180 105 180 118 0 9 -43
12 -180 12 -139 0 -180 -3 -180 -13z"/>
<path d="M10340 5319 l0 -109 180 0 180 0 0 110 0 110 -90 -56 -90 -56 -90 55
-90 56 0 -110z"/>
<path d="M9112 4815 c-148 -34 -279 -110 -402 -234 -86 -86 -140 -163 -140
-199 0 -13 -13 -52 -29 -86 -16 -33 -37 -85 -47 -113 -10 -29 -25 -53 -32 -53
-8 0 -19 -13 -25 -29 -10 -28 -13 -29 -91 -33 -97 -4 -157 -31 -218 -96 -64
-70 -83 -122 -83 -227 0 -108 18 -154 91 -237 27 -31 66 -80 87 -109 56 -81
127 -154 173 -177 41 -21 143 -44 157 -35 13 8 76 -18 87 -35 9 -14 10 -12 5
8 -4 19 -3 21 4 10 5 -9 7 -34 4 -57 -5 -40 -6 -41 -58 -51 -116 -24 -311
-197 -421 -375 -65 -104 -91 -160 -129 -273 -23 -68 -105 -385 -105 -406 0 -5
8 -8 18 -8 14 0 23 23 45 118 16 64 42 157 58 206 16 49 29 101 29 116 0 39
100 231 164 315 64 83 164 181 221 216 35 22 49 25 110 21 l71 -3 18 -51 c12
-34 37 -70 78 -112 33 -33 84 -91 114 -127 75 -94 117 -126 183 -140 43 -9 63
-9 86 1 17 6 37 12 45 14 33 4 130 79 130 101 0 10 28 35 40 35 24 0 125 -60
320 -189 231 -153 222 -148 214 -127 -3 9 -9 14 -13 13 -3 -2 -19 10 -36 26
-35 34 49 -17 260 -157 71 -47 134 -86 140 -86 10 0 45 54 45 70 0 10 -177
124 -222 143 -34 14 -330 201 -492 309 -64 44 -85 63 -75 69 12 7 12 13 0 41
-7 18 -17 47 -23 63 -15 43 -29 68 -61 108 -34 43 -27 65 21 72 21 3 73 12
117 20 44 7 89 13 100 12 11 0 34 2 50 6 l30 7 -25 -21 c-30 -26 -29 -75 2
-101 28 -24 89 -23 135 3 182 103 301 219 367 361 39 81 77 225 83 308 7 93
-11 236 -39 304 -11 28 -35 91 -54 140 -68 176 -165 319 -316 461 -114 108
-226 177 -363 224 -88 30 -114 34 -220 37 -79 2 -141 -2 -183 -11z m386 -250
c279 -66 503 -283 593 -575 30 -96 32 -254 5 -345 -28 -93 -85 -193 -150 -262
-73 -79 -128 -120 -235 -173 -50 -26 -85 -50 -88 -61 -6 -21 -43 -33 -148 -49
-38 -5 -73 -10 -76 -10 -4 0 -9 9 -12 20 -4 15 -14 20 -39 20 -31 0 -35 4 -58
58 -31 71 -98 140 -172 175 -78 37 -192 38 -272 3 -31 -14 -55 -22 -54 -18 1
4 -2 14 -5 22 -18 42 -30 77 -33 90 -2 8 -10 47 -18 85 -9 39 -25 124 -37 189
-16 89 -31 137 -56 184 -19 36 -35 77 -35 91 -1 49 28 97 88 142 36 27 70 65
90 99 57 97 194 223 295 269 132 60 285 77 417 46z m-889 -315 c1 -32 -27
-123 -60 -195 l-13 -30 -4 40 c-2 22 -8 45 -14 52 -10 13 13 87 54 166 18 37
22 40 29 22 4 -11 8 -36 8 -55z"/>
<path d="M8395 2084 c-11 -2 -43 -9 -71 -15 -29 -5 -85 -23 -125 -39 -68 -27
-71 -29 -38 -29 20 -1 61 8 92 18 160 55 451 51 614 -9 17 -6 48 -10 70 -8
l38 3 -40 18 c-96 44 -185 60 -355 63 -91 1 -174 1 -185 -2z"/>
<path d="M7746 1979 c3 -6 21 -17 40 -25 39 -16 98 -19 89 -4 -9 14 8 13 23
-2 9 -9 18 -9 37 0 20 9 24 9 19 1 -5 -9 35 -10 162 -5 281 11 384 18 378 27
-3 5 -1 9 5 9 5 0 13 -4 16 -10 8 -13 61 -13 86 0 10 6 19 7 19 3 0 -4 34 -7
75 -5 41 2 75 8 75 13 0 5 -220 9 -516 9 -376 0 -513 -3 -508 -11z"/>
<path d="M8836 1980 c7 -7 24 -7 50 -1 l39 9 -49 1 c-34 1 -47 -2 -40 -9z"/>
<path d="M9003 1983 c20 -2 54 -2 75 0 20 2 3 4 -38 4 -41 0 -58 -2 -37 -4z"/>
<path d="M9535 1979 c136 -11 235 -10 235 1 0 6 -60 9 -162 8 -151 -1 -156 -2
-73 -9z"/>
<path d="M9785 1981 c8 -15 74 -22 94 -12 11 6 21 7 23 2 3 -8 387 -31 507
-31 40 0 42 1 30 18 -13 16 -13 16 7 0 11 -10 27 -18 34 -18 7 0 23 8 34 18
20 16 20 16 7 0 -12 -16 -10 -18 18 -18 35 0 95 22 105 39 5 8 -111 11 -429
11 -240 0 -433 -5 -430 -9z"/>
<path d="M7742 1615 c-83 -70 -57 -213 60 -321 51 -48 110 -84 137 -84 55 0
178 106 221 190 24 47 30 134 12 166 -6 10 -12 13 -12 7 0 -18 -25 -16 -40 2
-7 8 -28 15 -47 15 -23 0 -33 4 -31 13 7 19 66 20 96 2 25 -15 24 -14 -3 9
-41 36 -108 36 -159 1 l-37 -25 -31 22 c-19 13 -51 23 -83 26 -44 4 -55 1 -83
-23z m139 -15 c27 -22 14 -26 -37 -11 -20 6 -43 4 -67 -4 -41 -14 -49 -4 -15
19 31 22 91 20 119 -4z m-87 -239 c10 -17 15 -35 11 -39 -9 -9 -55 45 -55 64
0 24 23 11 44 -25z"/>
<path d="M10350 1458 l0 -182 75 74 75 74 75 -74 75 -74 0 182 0 182 -150 0
-150 0 0 -182z"/>
<path d="M8389 1511 c-17 -18 -29 -41 -30 -58 -5 -110 32 -143 152 -140 l74 2
2 69 c3 110 -32 156 -120 156 -40 0 -53 -5 -78 -29z"/>
<path d="M8853 1488 c-68 -28 -123 -55 -123 -59 0 -4 25 -13 56 -20 l55 -12
72 71 c40 40 70 72 67 71 -3 0 -60 -23 -127 -51z"/>
<path d="M8926 1451 l-68 -69 13 -56 c7 -31 17 -55 22 -53 10 3 110 237 104
243 -2 2 -34 -27 -71 -65z"/>
<path d="M6071 4911 c-24 -24 -26 -42 -10 -74 16 -30 91 -107 105 -107 18 0
102 95 110 124 4 17 0 35 -11 52 -14 23 -22 25 -53 20 -47 -8 -51 -8 -89 0
-24 5 -36 1 -52 -15z"/>
<path d="M6460 4921 c0 -5 31 -27 70 -50 l69 -41 70 42 c39 23 68 45 65 50 -7
11 -274 10 -274 -1z"/>
<path d="M6460 4805 l0 -76 138 3 137 3 3 73 c2 39 -1 72 -5 72 -4 0 -34 -16
-66 -35 -32 -19 -63 -35 -69 -35 -6 0 -36 16 -68 35 -32 19 -60 35 -64 35 -3
0 -6 -34 -6 -75z"/>
<path d="M5615 4226 c-44 -20 -75 -58 -81 -97 -8 -54 2 -60 76 -48 61 10 124
8 198 -7 25 -5 32 -3 32 10 0 9 4 16 9 16 13 0 5 73 -11 99 -17 28 -31 32
-118 37 -51 2 -85 -1 -105 -10z"/>
<path d="M5547 4030 c-42 -10 -85 -24 -95 -31 -43 -32 -75 -66 -89 -94 -13
-24 -8 -22 25 15 22 25 55 54 73 64 l34 20 -28 -33 c-66 -79 -93 -194 -69
-296 l9 -40 7 60 c4 33 16 79 27 101 18 36 26 43 62 49 23 5 45 7 50 6 4 0 7
4 7 9 0 13 188 12 196 -1 3 -5 22 -9 43 -9 42 0 61 -14 61 -46 0 -29 37 -111
52 -116 8 -3 12 -25 12 -60 l-1 -56 24 47 c20 38 25 62 26 141 1 102 -13 152
-56 199 l-22 24 31 -16 c18 -9 42 -29 54 -44 11 -15 17 -19 11 -8 -25 52 -89
91 -191 116 -98 23 -150 23 -253 -1z"/>
<path d="M5415 3601 c-3 -5 21 -21 52 -36 38 -17 53 -29 45 -34 -7 -4 -10 -15
-6 -24 4 -11 1 -17 -8 -17 -19 0 -38 20 -38 42 0 10 -7 18 -14 18 -12 0 -13
-6 -4 -32 16 -47 27 -58 58 -58 55 0 97 58 71 98 -4 7 -37 22 -72 32 -74 23
-76 23 -84 11z"/>
<path d="M6100 3597 c0 -7 14 -32 30 -54 22 -30 35 -40 50 -36 14 4 24 -3 37
-26 12 -21 26 -31 42 -31 23 0 23 1 8 18 -10 10 -17 23 -18 28 0 9 -10 17 -90
84 -39 32 -59 38 -59 17z"/>
<path d="M5234 3584 c-18 -14 -18 -15 4 -4 12 6 22 13 22 15 0 8 -5 6 -26 -11z"/>
<path d="M5770 3592 c-60 -8 -100 -24 -100 -37 0 -8 4 -15 9 -15 5 0 7 -8 4
-19 -11 -44 95 -81 131 -45 23 22 20 37 -3 24 -29 -15 -52 -12 -67 8 -7 9 -14
20 -14 24 0 10 89 48 113 48 11 0 17 3 13 7 -8 9 -48 11 -86 5z"/>
<path d="M5235 3560 c-3 -6 1 -7 9 -4 18 7 21 14 7 14 -6 0 -13 -4 -16 -10z"/>
<path d="M6080 3519 c0 -20 12 -47 32 -73 48 -62 50 -64 33 -23 -8 20 -12 37
-8 37 5 0 2 4 -6 9 -8 5 -15 20 -17 33 -1 12 -3 26 -3 29 -1 4 -8 9 -16 13
-11 4 -15 -2 -15 -25z"/>
<path d="M5148 3513 c-26 -14 -45 -30 -42 -35 4 -7 94 49 94 59 0 5 -3 4 -52
-24z"/>
<path d="M5231 3500 c-31 -26 -17 -26 16 0 14 11 22 20 17 20 -5 -1 -20 -10
-33 -20z"/>
<path d="M6180 3462 c0 -19 25 -41 38 -33 10 6 7 12 -12 25 -14 9 -26 13 -26
8z"/>
<path d="M5285 3428 c-6 -11 -37 -34 -69 -51 -33 -17 -55 -32 -49 -34 15 -5
143 69 143 83 0 22 -16 23 -25 2z"/>
<path d="M5140 3429 c0 -5 5 -7 10 -4 6 3 10 8 10 11 0 2 -4 4 -10 4 -5 0 -10
-5 -10 -11z"/>
<path d="M5358 3403 c-10 -2 -19 -9 -19 -14 -1 -5 -2 -12 -3 -16 -4 -26 -53
-74 -93 -93 -39 -19 -66 -23 -143 -24 -108 -1 -137 -13 -300 -120 -47 -31 -90
-56 -97 -56 -15 0 -103 107 -103 126 0 21 -17 17 -56 -12 l-34 -26 0 -313 0
-313 63 -8 c79 -10 83 -9 136 27 34 24 50 29 73 24 16 -4 32 -13 34 -20 3 -7
-6 -56 -20 -109 -14 -53 -26 -98 -26 -101 0 -3 441 -5 980 -5 l980 0 0 281 0
282 -35 33 c-18 19 -37 34 -40 34 -3 0 -36 -24 -73 -53 -92 -73 -88 -72 -111
-34 -38 62 -241 245 -317 286 -22 12 -49 28 -61 37 -13 9 -23 12 -23 6 0 -11
46 -42 104 -71 35 -17 198 -165 237 -215 l22 -28 -34 17 c-19 10 -47 30 -64
45 -33 31 -124 61 -195 64 -25 2 -72 15 -104 29 -32 15 -70 27 -85 27 -15 0
-32 5 -37 10 -15 15 -38 4 -49 -23 -9 -21 -59 -46 -70 -36 -2 3 9 41 25 85 44
115 32 124 -48 36 -62 -67 -70 -73 -114 -77 -40 -3 -53 0 -77 21 -16 14 -35
41 -41 62 -7 20 -19 47 -27 60 -11 19 -12 26 -2 38 10 13 16 12 38 -9 52 -49
101 -60 137 -32 18 14 18 15 -6 5 -19 -8 -36 -8 -64 2 -58 19 -55 34 6 34 29
0 66 3 82 8 24 6 28 4 22 -10 -6 -15 -5 -15 18 0 14 9 32 13 41 10 18 -7 45
12 45 32 0 13 -96 84 -112 84 -5 0 -8 -9 -8 -20 0 -11 6 -20 13 -20 8 0 22 -9
32 -20 17 -18 16 -19 -6 -24 -57 -13 -83 -10 -76 8 4 10 -3 14 -28 14 -18 0
-44 3 -56 7 -20 6 -22 5 -11 -6 19 -21 14 -29 -17 -29 -39 0 -46 13 -25 45 23
36 13 40 -36 15 -23 -12 -51 -19 -61 -17 -11 3 -19 3 -19 1 0 -10 34 -71 56
-100 31 -42 23 -70 -24 -78 -20 -3 -41 -2 -46 3 -21 16 -59 19 -118 10 -40 -7
-78 -6 -116 1 -47 9 -67 8 -112 -6 -30 -9 -81 -18 -112 -21 -46 -4 -64 -11
-97 -40 -26 -22 -47 -33 -57 -29 -18 7 0 22 133 111 l73 48 92 -5 c89 -6 94
-5 148 26 57 31 125 98 113 110 -3 3 6 6 21 6 17 0 26 5 24 12 -5 14 -17 17
-40 11z m143 -300 c13 -15 12 -15 -8 -4 -24 12 -29 21 -14 21 5 0 15 -7 22
-17z"/>
<path d="M5920 3399 c0 -5 9 -9 20 -9 11 0 20 2 20 4 0 2 -9 6 -20 9 -11 3
-20 1 -20 -4z"/>
<path d="M5974 3392 c4 -7 13 -12 20 -12 8 0 16 -17 19 -41 3 -23 9 -45 14
-50 5 -5 7 5 5 24 -2 22 2 39 13 50 17 18 9 26 -25 25 -8 0 -24 3 -34 8 -14 5
-17 4 -12 -4z"/>
<path d="M5563 3195 c4 -9 7 -19 7 -21 0 -12 64 -30 91 -26 48 7 34 34 -20 39
-25 3 -54 9 -64 15 -17 9 -19 8 -14 -7z"/>
<path d="M4552 2323 c22 -21 136 -25 373 -13 94 5 216 9 272 9 56 1 104 5 108
10 3 6 -139 10 -382 11 -365 0 -387 -1 -371 -17z"/>
<path d="M5368 2333 c12 -2 30 -2 40 0 9 3 -1 5 -23 4 -22 0 -30 -2 -17 -4z"/>
<path d="M5478 2333 c18 -2 45 -2 60 0 15 2 0 4 -33 4 -33 0 -45 -2 -27 -4z"/>
<path d="M5811 2335 c3 -2 79 -6 169 -10 91 -3 237 -10 325 -15 219 -13 248
-12 239 2 -5 7 -3 8 7 2 24 -15 89 -14 120 1 16 9 29 18 29 20 0 3 -201 5
-446 5 -246 -1 -445 -3 -443 -5z"/>
<path d="M4550 2063 c-36 -24 -40 -33 -40 -88 0 -55 11 -76 69 -138 72 -77
114 -84 186 -29 65 49 111 134 101 187 -4 19 -11 33 -16 30 -5 -3 -21 1 -34
10 -14 9 -30 14 -35 11 -5 -4 -12 -2 -16 4 -4 6 7 10 27 10 25 0 29 3 18 10
-22 14 -47 12 -86 -6 -31 -15 -37 -15 -74 0 -51 20 -69 20 -100 -1z m91 -13
c27 -22 22 -25 -15 -11 -15 6 -37 6 -55 1 -34 -9 -42 3 -13 19 27 16 58 13 83
-9z m-61 -171 c7 -11 9 -24 5 -27 -7 -7 -35 25 -35 40 0 16 19 8 30 -13z"/>
<path d="M6470 1943 l0 -138 57 58 58 57 52 -58 52 -57 1 138 0 137 -110 0
-110 0 0 -137z"/>
<path d="M5026 1989 c-21 -17 -26 -29 -26 -65 0 -65 23 -84 103 -84 l62 0 2
56 c3 50 0 59 -26 85 -35 35 -77 38 -115 8z"/>
<path d="M5348 1972 c-38 -15 -68 -30 -68 -34 0 -4 15 -11 33 -16 17 -5 32 -8
32 -8 0 1 18 20 40 44 21 23 37 42 35 41 -3 0 -35 -12 -72 -27z"/>
<path d="M5397 1942 c-20 -21 -37 -47 -37 -57 0 -21 16 -53 22 -45 9 12 58
134 55 137 -2 1 -20 -14 -40 -35z"/>
<path d="M13237 4912 c-31 -34 -21 -69 34 -128 29 -30 55 -54 60 -54 4 0 30
22 58 49 45 44 51 55 51 91 0 34 -4 42 -26 52 -19 9 -33 9 -57 0 -21 -8 -35
-8 -41 -2 -16 16 -62 11 -79 -8z"/>
<path d="M13630 4921 c0 -9 55 -48 106 -74 30 -15 32 -15 97 24 37 22 67 44
67 50 0 5 -57 9 -135 9 -74 0 -135 -4 -135 -9z"/>
<path d="M13630 4806 l0 -76 135 0 135 0 0 76 0 75 -70 -38 c-64 -35 -71 -37
-92 -24 -13 8 -42 26 -65 39 l-43 24 0 -76z"/>
<path d="M11670 3460 l0 -1110 1115 0 1115 0 0 1110 0 1110 -1115 0 -1115 0 0
-1110z m773 -186 c63 -32 115 -98 103 -131 -4 -11 -15 -3 -38 28 -52 66 -80
83 -151 86 -95 6 -159 -39 -191 -132 -8 -22 -19 -41 -25 -43 -16 -5 -13 44 5
81 58 115 190 165 297 111z m852 -13 c43 -19 95 -73 95 -97 0 -21 -18 -17 -30
7 -21 38 -99 79 -152 79 -92 0 -155 -51 -179 -143 -12 -48 -25 -59 -36 -31
-17 46 56 160 121 189 45 20 134 18 181 -4z m-735 -211 c0 -61 -55 -136 -124
-172 -57 -29 -156 -22 -212 15 -40 27 -92 102 -80 115 4 3 25 -14 46 -40 48
-55 93 -78 154 -78 88 0 162 59 185 148 14 49 31 56 31 12z m860 -5 c0 -36
-27 -95 -58 -129 -94 -100 -258 -80 -332 39 -34 55 -16 54 37 -3 73 -77 166
-92 245 -38 39 26 78 90 78 129 0 17 5 27 15 27 9 0 15 -9 15 -25z"/>
<path d="M11722 2323 c21 -20 115 -28 137 -10 12 10 13 9 7 -1 -7 -11 24 -12
166 -7 95 3 189 9 208 12 19 3 76 5 127 4 53 -1 94 3 98 9 4 7 -121 10 -377
10 -357 0 -381 -1 -366 -17z"/>
<path d="M12528 2333 c12 -2 30 -2 40 0 9 3 -1 5 -23 4 -22 0 -30 -2 -17 -4z"/>
<path d="M12643 2333 c15 -2 39 -2 55 0 15 2 2 4 -28 4 -30 0 -43 -2 -27 -4z"/>
<path d="M12971 2336 c10 -8 239 -14 239 -5 0 5 -54 9 -122 9 -67 0 -119 -2
-117 -4z"/>
<path d="M13226 2329 c3 -5 24 -9 47 -9 23 1 114 -4 202 -9 218 -14 238 -14
229 2 -5 7 -1 7 10 -2 14 -12 21 -13 38 -2 15 10 18 10 12 0 -11 -18 65 -4 85
16 14 14 -16 15 -307 15 -212 -1 -321 -4 -316 -11z"/>
<path d="M11719 2065 c-34 -18 -53 -65 -45 -108 9 -49 58 -118 110 -155 49
-35 73 -39 114 -18 38 20 120 109 127 139 11 41 2 102 -15 102 -8 0 -26 6 -40
14 -14 8 -27 14 -30 14 -3 -1 -7 1 -9 3 -2 2 11 4 30 5 32 0 33 1 11 12 -18 8
-35 7 -75 -7 -48 -16 -54 -16 -82 -2 -37 19 -62 20 -96 1z m82 -5 c30 -17 23
-30 -12 -20 -18 5 -40 5 -55 0 -28 -11 -33 4 -6 19 22 13 48 14 73 1z m-52
-190 c12 -18 13 -22 2 -19 -8 3 -21 16 -30 29 -12 18 -13 22 -2 19 8 -3 21
-16 30 -29z"/>
<path d="M13640 1943 l1 -138 53 57 52 57 57 -57 57 -57 0 138 0 137 -110 0
-110 0 0 -137z"/>
<path d="M12205 1998 c-49 -28 -60 -87 -24 -132 18 -23 27 -26 85 -26 l64 0 0
60 c0 51 -4 65 -25 85 -26 27 -67 32 -100 13z"/>
<path d="M12555 1989 c-11 -5 -42 -18 -69 -29 -53 -22 -54 -26 -8 -39 27 -8
34 -5 73 35 42 43 43 52 4 33z"/>
<path d="M12562 1947 c-37 -38 -42 -47 -36 -75 4 -18 11 -31 16 -30 9 3 70
139 65 145 -2 1 -22 -17 -45 -40z"/>
<path d="M16952 4828 c-34 -34 6 -90 48 -68 35 19 20 80 -20 80 -9 0 -21 -5
-28 -12z"/>
<path d="M14827 4862 c-37 -40 -9 -102 46 -102 34 0 57 24 57 60 0 16 -7 36
-16 44 -21 22 -67 20 -87 -2z"/>
<path d="M15477 4834 c-15 -16 -5 -24 29 -24 24 0 34 4 32 13 -5 13 -50 22
-61 11z"/>
<path d="M15877 4833 c-4 -3 -7 -19 -7 -34 0 -31 28 -53 54 -43 22 8 31 51 16
69 -13 15 -51 20 -63 8z"/>
<path d="M16137 4834 c-15 -16 -5 -24 29 -24 24 0 34 4 32 13 -5 13 -50 22
-61 11z"/>
<path d="M16647 4834 c-15 -16 -5 -24 29 -24 24 0 34 4 32 13 -5 13 -50 22
-61 11z"/>
<path d="M16790 4776 c0 -20 16 -29 40 -21 32 10 25 35 -10 35 -19 0 -30 -5
-30 -14z"/>
<path d="M17247 4834 c-15 -16 -5 -24 29 -24 24 0 34 4 32 13 -5 13 -50 22
-61 11z"/>
<path d="M15457 4573 c-4 -3 -7 -19 -7 -34 0 -31 28 -53 54 -43 22 8 31 51 16
69 -13 15 -51 20 -63 8z"/>
<path d="M16832 4568 c-34 -34 6 -90 48 -68 35 19 20 80 -20 80 -9 0 -21 -5
-28 -12z"/>
<path d="M14962 4568 c-34 -34 6 -90 48 -68 35 19 20 80 -20 80 -9 0 -21 -5
-28 -12z"/>
<path d="M15630 4565 c-11 -13 -7 -15 28 -15 33 0 40 3 36 15 -4 8 -16 15 -29
15 -12 0 -28 -7 -35 -15z"/>
<path d="M16047 4573 c-4 -3 -7 -19 -7 -34 0 -31 28 -53 54 -43 22 8 31 51 16
69 -13 15 -51 20 -63 8z"/>
<path d="M16482 4568 c-34 -34 6 -90 48 -68 35 19 20 80 -20 80 -9 0 -21 -5
-28 -12z"/>
<path d="M17007 4574 c-15 -16 -5 -24 29 -24 24 0 34 4 32 13 -5 13 -50 22
-61 11z"/>
<path d="M17216 4521 c-3 -5 1 -14 8 -21 16 -12 56 2 56 20 0 12 -57 13 -64 1z"/>
<path d="M17477 4574 c-15 -16 -5 -24 29 -24 24 0 34 4 32 13 -5 13 -50 22
-61 11z"/>
<path d="M15667 3939 c-37 -28 -50 -86 -50 -219 0 -167 27 -240 91 -240 71 0
97 65 97 240 0 139 -12 188 -52 220 -33 25 -54 25 -86 -1z"/>
<path d="M16231 3959 c-6 -18 -11 -53 -11 -79 0 -69 17 -110 45 -110 38 0 50
26 50 110 0 84 -12 110 -50 110 -17 0 -26 -9 -34 -31z"/>
<path d="M16809 3663 c-9 -11 -14 -43 -14 -98 0 -86 11 -115 46 -115 29 0 43
39 43 115 0 39 -6 80 -12 93 -15 26 -44 29 -63 5z"/>
<path d="M2044 3430 c-27 -10 -34 -29 -23 -57 8 -22 23 -28 59 -24 21 3 60 49
60 72 0 15 -7 19 -37 18 -21 0 -47 -4 -59 -9z"/>
<path d="M14990 2755 c0 -8 9 -15 20 -15 11 0 20 7 20 15 0 8 -9 15 -20 15
-11 0 -20 -7 -20 -15z"/>
<path d="M15403 2754 c-8 -20 8 -48 30 -52 19 -4 39 30 31 52 -8 21 -53 21
-61 0z"/>
<path d="M15536 2755 c-7 -20 10 -55 27 -55 24 0 39 18 35 41 -4 29 -52 40
-62 14z"/>
<path d="M981 2498 c0 -10 -8 -18 -16 -18 -8 0 -15 -4 -15 -10 0 -5 5 -10 10
-10 6 0 10 -7 10 -15 0 -8 -7 -15 -15 -15 -8 0 -15 -4 -15 -10 0 -5 7 -10 15
-10 9 0 12 -6 9 -15 -4 -8 -1 -15 5 -15 6 0 11 7 11 15 0 8 7 15 15 15 8 0 15
-7 15 -15 0 -8 5 -15 10 -15 6 0 10 5 10 11 0 7 8 18 18 25 16 13 16 13 0 14
-22 0 -24 30 -3 30 8 0 15 5 15 10 0 6 -4 10 -10 10 -5 0 -10 8 -10 18 -1 16
-1 16 -11 0 -5 -10 -16 -18 -24 -18 -7 0 -16 8 -18 18 -4 16 -5 16 -6 0z m39
-53 c0 -8 -9 -15 -20 -15 -20 0 -26 11 -13 23 12 13 33 7 33 -8z"/>
<path d="M1098 2469 c-22 -12 -24 -62 -4 -79 17 -13 58 -10 63 5 2 6 -9 11
-24 10 -23 0 -28 4 -28 25 0 21 5 25 28 25 15 -1 26 4 24 10 -5 14 -39 17 -59
4z"/>
<path d="M1192 2433 l3 -48 43 -1 42 -1 0 49 c0 56 -17 65 -22 11 -2 -30 -7
-38 -23 -38 -16 0 -21 8 -23 38 -5 55 -24 45 -20 -10z"/>
<path d="M1314 2471 c-9 -9 -4 -120 6 -126 6 -3 10 5 10 19 0 23 3 25 29 20
24 -5 32 -1 46 20 16 24 16 28 1 51 -13 20 -24 24 -52 22 -20 -1 -37 -4 -40
-6z m75 -25 c15 -18 3 -46 -20 -46 -22 0 -34 22 -25 45 7 19 30 19 45 1z"/>
<path d="M1446 2464 c-9 -8 -16 -24 -16 -34 0 -22 26 -50 46 -50 29 0 54 21
54 45 0 28 -24 55 -50 55 -10 0 -26 -7 -34 -16z m59 -34 c0 -18 -6 -26 -23
-28 -24 -4 -38 18 -28 44 3 9 15 14 28 12 17 -2 23 -10 23 -28z"/>
<path d="M1560 2428 c0 -56 17 -65 22 -10 2 29 7 37 23 37 16 0 21 -8 23 -37
2 -21 7 -38 12 -38 5 0 10 17 12 38 2 29 7 37 23 37 16 0 21 -8 23 -37 4 -50
22 -49 22 1 0 49 -20 69 -55 53 -15 -7 -27 -8 -30 -2 -3 5 -21 9 -40 8 -35 -1
-35 -1 -35 -50z"/>
<path d="M3023 2466 c6 -15 -26 -16 -358 -16 -237 0 -365 -4 -365 -10 0 -6
128 -10 365 -10 320 0 364 -2 359 -15 -7 -18 5 -19 29 -1 24 18 21 31 -10 51
-23 16 -25 16 -20 1z"/>
<path d="M1000 1785 l0 -56 35 27 c38 29 38 33 -5 64 l-30 21 0 -56z"/>
<path d="M1000 1590 c0 -55 3 -56 55 -16 l20 15 -20 16 c-52 40 -55 40 -55
-15z"/>
<path d="M1524 1626 c-10 -25 0 -61 19 -64 14 -3 17 4 17 37 0 30 -4 41 -15
41 -9 0 -18 -6 -21 -14z"/>
<path d="M1860 1600 c0 -44 21 -55 40 -20 13 24 -3 60 -25 60 -11 0 -15 -12
-15 -40z"/>
</g>
</svg>
