<?xml version="1.0" standalone="no"?>
<!DOCTYPE svg PUBLIC "-//W3C//DTD SVG 20010904//EN"
 "http://www.w3.org/TR/2001/REC-SVG-20010904/DTD/svg10.dtd">
<svg version="1.0" xmlns="http://www.w3.org/2000/svg"
 width="1920.000000pt" height="650.000000pt" viewBox="0 0 1920.000000 650.000000"
 preserveAspectRatio="xMidYMid meet">

<g transform="translate(0.000000,650.000000) scale(0.100000,-0.100000)"
fill="#000000" stroke="none">
<path d="M2077 6342 c-86 -86 -157 -163 -157 -170 0 -8 15 -12 43 -12 41 0 45
3 212 170 l170 170 -55 0 -55 0 -158 -158z"/>
<path d="M2545 6330 l-170 -170 55 0 55 0 170 170 170 170 -55 0 -55 0 -170
-170z"/>
<path d="M3015 6330 l-170 -170 60 0 60 0 170 170 170 170 -60 0 -60 0 -170
-170z"/>
<path d="M3502 6330 l-173 -170 58 0 58 0 170 170 170 170 -55 0 -55 -1 -173
-169z"/>
<path d="M3975 6330 l-170 -170 60 0 60 0 170 170 170 170 -60 0 -60 0 -170
-170z"/>
<path d="M4455 6330 l-170 -170 60 0 60 0 170 170 170 170 -60 0 -60 0 -170
-170z"/>
<path d="M4935 6330 l-170 -170 55 0 55 0 170 170 170 170 -55 0 -55 0 -170
-170z"/>
<path d="M5415 6330 l-170 -170 55 0 55 0 170 170 170 170 -55 0 -55 0 -170
-170z"/>
<path d="M5895 6330 l-170 -170 55 0 55 0 170 170 170 170 -55 0 -55 0 -170
-170z"/>
<path d="M6365 6330 l-170 -170 60 0 60 0 170 170 170 170 -60 0 -60 0 -170
-170z"/>
<path d="M6845 6330 l-170 -170 60 0 60 0 170 170 170 170 -60 0 -60 0 -170
-170z"/>
<path d="M7325 6330 l-170 -170 55 0 55 0 170 170 170 170 -55 0 -55 0 -170
-170z"/>
<path d="M7805 6330 l-170 -170 55 0 55 0 170 170 170 170 -55 0 -55 0 -170
-170z"/>
<path d="M8280 6330 l-175 -169 60 -1 60 0 170 170 170 170 -55 0 -55 -1 -175
-169z"/>
<path d="M8755 6330 l-170 -170 60 0 60 0 170 170 170 170 -60 0 -60 0 -170
-170z"/>
<path d="M9235 6330 l-170 -170 60 0 60 0 170 170 170 170 -60 0 -60 0 -170
-170z"/>
<path d="M9600 6358 c0 -140 0 -142 -27 -170 l-27 -28 27 0 27 0 0 -895 0
-895 215 0 215 0 0 34 c0 32 2 34 41 40 23 4 55 16 71 27 35 25 68 88 68 129
0 73 -66 147 -140 157 l-40 6 0 117 0 117 41 7 c23 4 55 16 71 27 35 25 68 88
68 129 0 73 -66 147 -140 157 l-40 6 0 117 0 117 41 7 c23 4 55 16 71 27 35
25 68 88 68 129 0 73 -66 144 -145 157 l-35 6 0 133 0 134 1914 0 1914 0 -30
-56 c-31 -57 -58 -122 -87 -212 -10 -29 -21 -49 -26 -45 -4 5 -5 3 -2 -4 6
-10 -15 -129 -31 -173 -3 -8 -7 -26 -9 -40 -2 -14 -8 -38 -13 -55 -6 -16 -11
-65 -12 -109 -1 -43 -7 -80 -13 -82 -5 -2 -11 -30 -12 -62 -4 -147 -6 -172
-12 -167 -4 2 -8 -1 -8 -8 0 -7 -4 -21 -8 -32 -6 -17 -5 -18 5 -5 10 13 11 12
6 -3 -3 -10 -6 -28 -7 -40 0 -21 -1 -21 -8 -2 -7 18 -8 17 -14 -7 -4 -14 -4
-41 -1 -60 4 -25 3 -29 -5 -18 -10 13 -11 13 -12 0 -2 -40 -7 -67 -13 -85 -6
-15 -6 -17 2 -5 8 11 11 7 10 -18 -1 -33 -12 -42 -22 -19 -3 6 -4 -1 0 -17 3
-16 0 -32 -6 -36 -5 -3 -16 -28 -24 -56 -58 -207 -123 -374 -146 -374 -5 0
-10 -6 -10 -12 0 -21 -67 -180 -84 -199 -8 -10 -16 -30 -18 -46 -2 -21 1 -28
14 -27 14 1 15 -2 8 -16 -6 -11 -10 -22 -10 -27 1 -4 7 4 15 19 11 20 20 25
37 20 22 -5 23 -5 4 13 -17 17 -17 20 -2 31 11 7 14 18 9 30 -7 18 -6 18 11 1
10 -10 25 -16 34 -12 12 4 12 2 4 -8 -7 -8 -11 -16 -9 -18 1 -2 -3 2 -9 9 -9
10 -13 10 -18 -3 -3 -9 -2 -13 4 -10 6 3 10 3 11 -2 0 -4 2 -16 4 -25 2 -10
-1 -18 -7 -18 -10 0 -38 -25 -38 -34 0 -9 24 -2 33 9 5 6 7 4 4 -5 -2 -8 -9
-15 -15 -15 -20 0 -41 -39 -42 -78 0 -23 4 -36 10 -32 14 9 12 -29 -2 -43 -10
-10 -10 -14 -1 -20 10 -6 8 -17 -7 -45 -11 -20 -17 -37 -13 -37 5 0 4 -4 -2
-8 -24 -18 -51 -87 -75 -197 -5 -22 -16 -58 -24 -80 l-15 -40 0 38 c-1 20 -6
37 -12 37 -7 0 -9 -14 -5 -37 16 -101 17 -138 6 -207 -6 -42 -18 -90 -27 -107
-14 -27 -15 -71 -11 -323 l6 -291 27 -55 c17 -33 29 -72 30 -100 1 -49 24
-130 35 -130 12 0 17 31 16 88 -1 29 2 52 7 52 5 0 7 6 4 13 -2 6 -10 11 -16
10 -12 -3 -15 55 -3 73 4 7 16 13 27 15 11 3 21 12 23 23 3 14 -1 17 -20 12
-13 -4 -8 2 14 14 45 24 52 35 40 57 -9 15 -13 13 -30 -16 -12 -20 -21 -28
-24 -19 -3 8 -11 2 -21 -17 -9 -16 -16 -25 -17 -19 0 6 17 35 38 65 l39 55
-31 -4 c-24 -3 -28 -1 -16 7 12 9 9 11 -13 11 -16 0 -37 -5 -49 -11 -23 -12
-39 -2 -18 11 11 7 12 10 2 10 -10 0 -9 4 3 16 12 12 13 19 5 24 -8 5 -7 9 5
13 9 4 13 3 10 -3 -3 -5 3 -9 12 -9 47 -1 104 -9 111 -16 4 -4 -6 -5 -23 -1
-20 4 -25 3 -15 -3 26 -15 63 -24 56 -13 -4 7 4 8 21 3 16 -4 34 -18 40 -32
13 -24 13 -24 13 8 0 17 -6 34 -12 36 -8 3 -6 6 5 6 12 1 17 -7 17 -26 0 -21
3 -24 9 -13 6 8 7 18 4 24 -9 15 -11 66 -2 60 4 -2 10 0 14 6 3 5 17 10 31 10
17 0 24 5 24 20 0 15 7 20 25 20 19 0 25 5 23 17 -2 11 6 22 20 28 12 5 22 16
22 23 0 7 5 10 10 7 6 -3 10 -1 10 5 0 6 5 8 11 5 5 -4 19 1 29 10 10 9 24 15
32 14 33 -4 49 3 82 37 19 20 39 33 44 30 5 -3 15 0 21 8 9 11 8 15 -5 20 -22
9 -26 8 -18 -5 4 -7 -6 -10 -32 -9 -60 4 -108 1 -101 -6 6 -6 -28 -42 -42 -45
-43 -10 -48 -6 -46 32 2 33 -1 38 -24 43 -49 12 -271 19 -271 9 0 -10 -33 -10
-73 1 -26 8 -26 9 -10 22 11 8 13 13 5 14 -10 0 -10 4 0 20 13 21 68 29 68 10
0 -5 5 -10 11 -10 5 0 7 5 3 12 -4 6 -3 8 3 5 6 -4 40 -9 76 -11 36 -3 79 -11
94 -19 44 -23 77 -31 68 -18 -5 8 1 10 19 5 14 -3 37 -7 50 -8 13 0 22 -4 19
-8 -2 -5 0 -8 6 -8 6 0 15 9 21 20 14 26 30 26 30 -1 0 -16 4 -19 23 -14 12 4
29 14 37 22 13 12 13 13 -2 7 -11 -4 -18 -1 -18 6 0 7 -7 10 -14 7 -18 -7 -11
19 13 46 9 11 16 26 16 35 0 8 7 18 15 20 13 5 13 3 1 -11 -12 -15 -11 -17 4
-17 15 0 17 -7 11 -52 -6 -45 -5 -50 8 -39 12 10 14 9 9 -10 -5 -19 -4 -20 16
-10 11 7 21 18 21 25 0 8 18 30 41 49 26 23 39 43 37 54 -2 10 -9 17 -15 16
-7 -1 -9 6 -5 19 4 18 2 20 -14 14 -15 -6 -16 -5 -7 5 8 8 10 31 7 68 -5 49
-3 59 15 75 11 11 21 24 21 30 0 6 -5 3 -11 -7 -10 -17 -12 -17 -25 8 -16 32
-19 57 -3 35 8 -12 9 -11 5 6 -4 11 1 42 9 70 27 88 15 91 -15 4 -15 -47 -27
-87 -25 -90 2 -3 -4 -11 -12 -19 -13 -12 -14 -11 -8 9 5 15 4 20 -4 16 -7 -5
-9 -1 -5 11 4 11 -4 6 -20 -12 -14 -16 -25 -33 -26 -37 0 -4 -13 -21 -29 -38
l-29 -32 13 53 c7 30 21 88 32 129 11 41 21 91 22 110 1 19 4 43 7 53 3 9 3
17 0 17 -5 0 -40 -107 -41 -125 0 -5 -8 -19 -18 -30 -10 -10 -15 -25 -13 -32
3 -7 1 -13 -4 -13 -6 0 -10 -6 -10 -14 0 -8 -13 -43 -30 -78 -16 -34 -30 -71
-30 -80 0 -9 -5 -20 -12 -24 -17 -11 -4 44 33 134 17 42 32 83 32 90 0 6 4 12
9 12 4 0 8 9 8 20 0 10 8 41 19 67 28 73 33 100 18 100 -9 0 -12 -11 -9 -31 2
-23 1 -27 -7 -16 -5 8 -7 18 -4 24 4 5 1 6 -6 2 -7 -5 -10 -10 -7 -13 6 -7
-20 -59 -34 -68 -5 -3 -3 11 6 32 l15 38 -26 -30 c-35 -41 -135 -192 -135
-204 0 -6 -4 -12 -8 -15 -4 -2 -7 7 -6 21 0 13 6 28 13 32 7 5 12 12 12 17 -1
5 20 36 47 69 61 77 172 293 172 335 0 17 -4 29 -9 26 -5 -3 -8 12 -7 34 0 22
6 40 12 40 15 0 26 28 17 43 -4 7 2 5 13 -3 18 -14 18 -14 2 6 -10 11 -18 31
-17 45 0 22 1 23 9 4 7 -16 9 -12 10 20 1 22 5 31 7 21 4 -15 7 -16 14 -5 6
10 9 6 9 -13 0 -16 -4 -28 -9 -28 -6 0 -5 -15 1 -37 9 -32 6 -84 -8 -172 -3
-17 -1 -22 4 -13 7 10 11 8 15 -10 7 -23 -11 -78 -25 -78 -5 0 -8 -4 -8 -10 0
-5 7 -10 15 -10 17 0 19 -23 5 -82 -33 -146 -51 -240 -48 -256 4 -21 68 86 68
114 0 16 2 17 10 4 8 -12 9 -9 8 11 -1 14 9 47 22 75 21 43 24 63 24 166 1 65
-2 118 -5 118 -3 0 -6 14 -6 30 0 17 4 30 9 30 4 0 8 14 8 31 0 16 -3 28 -7
26 -5 -3 -9 23 -11 57 -1 33 -7 63 -12 64 -6 2 -9 13 -9 25 1 17 2 18 6 4 2
-9 9 -15 14 -12 5 4 9 -6 10 -22 0 -15 5 -37 10 -48 10 -22 4 101 -7 143 -4
14 -2 22 6 22 7 0 10 -7 7 -15 -4 -8 -2 -17 3 -20 6 -4 10 -41 11 -83 0 -54 3
-71 9 -57 6 13 9 -18 7 -88 -1 -59 1 -108 5 -110 4 -1 9 -39 11 -84 2 -46 6
-86 10 -90 4 -3 7 2 8 13 1 49 11 139 15 143 4 4 7 -75 5 -134 -3 -80 -2 -107
4 -125 3 -11 -1 -48 -10 -82 -12 -49 -13 -63 -3 -70 7 -4 9 -8 3 -8 -5 0 -10
-19 -9 -43 0 -23 -5 -45 -10 -49 -7 -5 -6 -8 2 -8 8 0 16 9 19 20 3 11 10 20
15 20 5 0 6 5 3 10 -3 6 -1 10 6 10 7 0 10 2 7 6 -3 3 3 27 13 55 10 27 17 49
14 49 -3 0 3 17 14 39 11 21 23 61 27 90 4 28 8 51 10 51 1 0 13 -4 26 -9 20
-8 24 -6 26 14 1 12 10 42 20 66 10 24 17 50 15 57 -3 6 0 12 5 12 5 0 24 13
41 29 35 32 39 70 21 172 -17 98 -29 253 -22 289 6 26 10 31 15 17 3 -9 11
-17 17 -17 6 0 8 5 3 13 -26 42 -1 49 39 10 54 -52 27 -16 -43 58 -39 41 -86
92 -105 115 -40 48 -123 190 -148 254 -23 57 -56 227 -56 286 0 25 -6 55 -12
67 -7 12 -13 33 -13 47 -1 14 -6 34 -12 45 -6 11 -16 40 -23 65 -7 25 -17 48
-22 51 -6 4 -2 12 10 18 17 9 21 9 16 -2 -3 -8 2 -20 11 -27 8 -7 15 -19 15
-26 0 -8 5 -14 11 -14 6 0 9 -9 6 -20 -3 -11 -2 -20 2 -20 4 0 8 -10 8 -22 3
-30 22 -66 54 -98 l27 -26 6 58 c5 52 11 64 49 103 50 50 78 60 143 50 42 -6
46 -9 41 -31 -4 -21 -1 -23 22 -17 14 3 32 10 39 16 10 8 16 7 23 -4 8 -12 10
-12 18 1 6 9 6 19 -1 27 -5 7 -8 19 -5 28 4 8 2 17 -3 20 -6 4 -10 15 -10 26
0 11 -4 18 -9 15 -5 -3 -15 2 -22 11 -12 14 -12 16 1 8 12 -6 12 -5 4 4 -7 7
-28 15 -48 18 -28 4 -36 1 -36 -11 0 -13 -11 -16 -54 -16 -47 0 -57 3 -74 27
-18 25 -22 26 -61 16 -22 -6 -41 -8 -41 -4 0 3 -12 7 -26 8 -18 1 -23 -2 -16
-9 14 -14 -13 -42 -29 -32 -7 4 -9 3 -5 -4 3 -6 1 -14 -4 -17 -7 -4 -8 -19 -5
-36 4 -16 2 -29 -3 -29 -5 0 -9 15 -10 32 0 18 -6 34 -11 36 -6 2 -11 8 -11
13 0 4 7 6 15 3 8 -4 15 -1 15 5 0 6 -5 11 -11 11 -5 0 -7 5 -4 11 4 6 13 8
21 5 13 -5 19 16 15 52 -1 6 3 12 9 12 5 0 10 -3 10 -8 0 -4 10 -13 23 -21 21
-13 22 -13 4 6 -20 23 -12 37 13 23 13 -7 21 -5 30 5 15 18 50 20 50 3 0 -9 3
-9 9 1 7 12 13 12 24 3 7 -7 17 -9 20 -5 15 15 5 23 -27 23 l-35 0 24 59 c13
32 44 87 67 122 24 35 49 76 55 91 7 15 40 44 80 68 37 23 93 59 123 81 30 21
60 37 65 35 6 -2 19 2 30 10 10 8 29 14 41 14 13 0 29 7 38 15 8 8 18 15 23
15 18 1 55 51 49 66 -5 14 -4 15 9 4 11 -9 12 -16 4 -26 -8 -10 -7 -17 4 -29
8 -8 17 -18 19 -22 1 -5 30 -28 63 -53 58 -43 102 -88 98 -101 -1 -3 27 -37
62 -75 35 -37 62 -70 60 -72 -2 -3 1 -14 8 -26 18 -32 37 -139 26 -150 -5 -6
-9 -19 -9 -30 0 -17 2 -18 10 -6 8 12 10 11 10 -7 0 -13 4 -23 10 -23 5 0 7 7
4 15 -4 9 0 15 10 15 10 0 16 -9 17 -22 1 -15 3 -17 6 -7 3 12 16 17 49 17
l46 1 -16 -24 c-9 -14 -13 -25 -8 -25 11 0 13 -40 1 -41 -5 -1 -15 -2 -21 -3
-7 0 -13 -10 -13 -21 0 -11 -4 -19 -10 -18 -6 1 -10 -68 -10 -190 -1 -220 -13
-293 -71 -433 -47 -115 -101 -208 -159 -272 -25 -28 -45 -55 -44 -59 1 -4 -39
-30 -90 -57 l-91 -49 27 -14 c21 -11 33 -12 51 -4 31 15 37 14 22 -4 -10 -12
-10 -15 0 -15 8 0 10 -8 7 -21 -5 -17 -3 -18 11 -7 14 11 15 10 8 -6 -7 -19
-6 -19 14 -1 11 10 20 24 20 30 0 7 7 16 16 19 13 5 15 1 10 -18 -5 -21 -3
-23 24 -21 20 2 30 -2 30 -11 0 -8 6 -14 14 -14 9 0 17 -17 21 -52 4 -29 14
-62 22 -74 12 -19 12 -24 -2 -37 -9 -9 -22 -14 -29 -11 -9 3 -13 -2 -12 -16 0
-11 3 -21 6 -22 12 -5 70 28 70 39 0 7 5 13 10 13 6 0 10 7 10 15 0 9 9 15 24
15 14 0 27 4 30 9 9 13 -31 20 -44 7 -8 -8 -15 -6 -26 8 -26 36 -15 73 14 44
7 -7 12 -9 12 -5 0 3 14 0 32 -7 27 -12 35 -12 54 1 20 13 26 12 52 -1 39 -20
170 -56 204 -56 16 0 36 -5 46 -11 13 -8 28 -9 46 -3 l28 10 -37 44 c-36 44
-104 169 -130 242 -12 31 -11 52 2 135 14 93 61 259 88 313 12 22 10 28 -11
53 -26 31 -29 48 -13 79 8 15 17 18 35 14 27 -7 27 -13 4 144 -5 36 -19 135
-30 220 -48 354 -118 591 -221 748 l-21 32 2041 0 2041 0 0 175 0 175 -4800 0
-4800 0 0 -142z m5085 -178 c3 -5 1 -10 -4 -10 -6 0 -11 5 -11 10 0 6 2 10 4
10 3 0 8 -4 11 -10z m-855 -455 c0 -8 -4 -15 -10 -15 -5 0 -7 7 -4 15 4 8 8
15 10 15 2 0 4 -7 4 -15z m-38 -90 c-9 -26 -18 -42 -20 -36 -3 10 24 81 32 81
3 0 -3 -20 -12 -45z m83 -14 c-8 -17 -19 -33 -25 -36 -5 -3 -1 10 11 29 25 43
36 48 14 7z m-155 -81 c-5 -22 -8 -27 -9 -13 -1 21 9 56 14 51 2 -2 0 -19 -5
-38z m114 3 c-7 -27 -26 -53 -38 -53 -4 0 3 18 14 40 24 46 33 52 24 13z m79
-28 c-3 -9 -8 -14 -10 -11 -3 3 -2 9 2 15 9 16 15 13 8 -4z m-205 -49 c-9 -22
-9 -32 0 -47 10 -16 10 -23 -2 -34 -13 -13 -15 -13 -21 4 -3 10 -3 27 1 37 15
47 27 74 31 71 2 -3 -2 -17 -9 -31z m38 9 c-3 -13 -10 -32 -16 -42 -11 -18
-10 -10 6 50 8 26 15 21 10 -8z m120 -22 c-2 -16 -4 -37 -5 -48 -1 -11 -11
-31 -22 -45 -11 -14 -19 -20 -16 -15 3 6 8 28 11 49 10 61 17 86 26 86 5 0 7
-12 6 -27z m-185 -154 c-5 -13 -10 -19 -10 -12 -1 15 10 45 15 40 3 -2 0 -15
-5 -28z m130 -3 c-14 -36 -22 -33 -9 5 6 16 12 28 14 26 3 -2 0 -16 -5 -31z
m1329 -25 c0 -5 3 -16 6 -24 3 -8 -2 -17 -10 -20 -12 -5 -16 1 -16 23 0 17 5
30 10 30 6 0 10 -4 10 -9z m-1417 -21 c-3 -11 -7 -20 -9 -20 -2 0 -4 9 -4 20
0 11 4 20 9 20 5 0 7 -9 4 -20z m1465 -102 c4 -46 -23 -72 -44 -43 -16 21 -19
19 -34 -15 -10 -23 -10 -22 -5 9 3 18 5 41 5 50 0 16 44 41 65 37 6 -2 11 -18
13 -38z m-47 -91 c-14 -36 -19 -34 -16 6 4 43 4 42 15 31 7 -7 8 -19 1 -37z
m-1496 -11 c0 -25 -3 -42 -7 -40 -4 3 -5 -3 -1 -12 4 -12 2 -15 -8 -12 -15 5
-14 43 2 85 12 32 14 29 14 -21z m-18 -163 c-3 -10 -5 -2 -5 17 0 19 2 27 5
18 2 -10 2 -26 0 -35z m7 -48 c-4 -8 -8 -15 -10 -15 -2 0 -4 7 -4 15 0 8 4 15
10 15 5 0 7 -7 4 -15z m169 -175 c3 -11 1 -20 -4 -20 -5 0 -9 9 -9 20 0 11 2
20 4 20 2 0 6 -9 9 -20z m4 -62 c-3 -7 -5 -2 -5 12 0 14 2 19 5 13 2 -7 2 -19
0 -25z m47 -173 c4 -20 3 -25 -3 -15 -5 8 -11 31 -15 50 -7 41 7 13 18 -35z
m-434 -115 c0 -5 -5 -10 -11 -10 -5 0 -7 5 -4 10 3 6 8 10 11 10 2 0 4 -4 4
-10z m383 -110 c-3 -11 -7 -20 -9 -20 -2 0 -4 9 -4 20 0 11 4 20 9 20 5 0 7
-9 4 -20z m1140 -40 c3 -11 1 -18 -4 -14 -5 3 -9 12 -9 20 0 20 7 17 13 -6z
m-1083 -10 c0 -5 -4 -10 -10 -10 -5 0 -10 5 -10 10 0 6 5 10 10 10 6 0 10 -4
10 -10z m-571 -54 c0 -7 -2 -6 -6 2 -2 6 -9 10 -14 6 -5 -3 -9 2 -9 12 0 13 3
14 15 4 8 -7 15 -18 14 -24z m308 -68 c-3 -8 -6 -5 -6 6 -1 11 2 17 5 13 3 -3
4 -12 1 -19z m-12 -105 c-4 -30 -9 -53 -11 -50 -3 2 -1 35 3 73 4 38 9 61 11
50 2 -10 1 -43 -3 -73z m-58 25 c-3 -8 -6 -5 -6 6 -1 11 2 17 5 13 3 -3 4 -12
1 -19z m300 0 c-3 -8 -6 -5 -6 6 -1 11 2 17 5 13 3 -3 4 -12 1 -19z m-497 2
c0 -5 -5 -10 -11 -10 -5 0 -7 5 -4 10 3 6 8 10 11 10 2 0 4 -4 4 -10z m647
-42 c-3 -8 -6 -5 -6 6 -1 11 2 17 5 13 3 -3 4 -12 1 -19z m-401 -122 c-2 -36
-7 -70 -11 -75 -3 -6 0 -11 7 -11 9 -1 7 -5 -4 -14 -10 -7 -22 -24 -27 -37
l-10 -24 0 28 c-1 35 21 107 33 107 4 0 3 7 -4 15 -7 9 -9 26 -5 45 12 54 25
32 21 -34z m-96 -111 c-17 -50 -27 -72 -24 -50 4 22 8 47 9 55 10 75 19 110
26 110 5 0 10 12 11 28 1 17 3 12 5 -13 2 -26 -7 -71 -27 -130z m163 120 c-3
-9 -8 -14 -10 -11 -3 3 -2 9 2 15 9 16 15 13 8 -4z m370 -47 l-10 -43 1 52 c1
31 5 48 10 43 5 -5 5 -26 -1 -52z m-583 -159 c-7 -11 -14 -18 -17 -15 -3 3 0
12 7 21 18 21 23 19 10 -6z m200 -9 c-6 -11 -13 -20 -16 -20 -2 0 0 9 6 20 6
11 13 20 16 20 2 0 0 -9 -6 -20z m-113 -22 c-2 -13 -11 -38 -21 -57 -10 -18
-13 -30 -7 -27 17 11 13 -9 -8 -35 -10 -13 -28 -44 -41 -69 -26 -51 -55 -91
-62 -85 -6 7 62 145 72 145 4 0 11 7 14 16 6 15 4 15 -10 3 -11 -9 -7 4 11 36
15 28 26 50 25 50 -2 0 3 10 11 23 7 12 15 22 17 22 1 0 1 -10 -1 -22z m-116
-27 c-6 -10 -8 -21 -4 -24 3 -4 1 -12 -4 -19 -14 -19 -24 -50 -14 -44 5 3 12
-1 15 -10 3 -8 2 -13 -3 -10 -5 3 -24 -10 -44 -29 -20 -19 -39 -35 -42 -35 -8
0 89 189 98 189 4 1 3 -7 -2 -18z m56 -25 c-7 -13 -15 -22 -19 -20 -4 3 -12
-5 -18 -16 -6 -11 -16 -20 -22 -20 -6 0 -4 8 5 18 10 10 14 22 10 27 -5 4 -3
5 4 1 7 -4 17 2 23 14 15 28 30 25 17 -4z m-93 -140 c-26 -46 -54 -68 -50 -38
2 9 8 18 15 20 6 2 18 17 26 33 9 16 20 29 25 29 5 0 -2 -20 -16 -44z m-99
-366 c-3 -5 -15 -10 -26 -10 -11 0 -17 5 -14 10 3 6 15 10 26 10 11 0 17 -4
14 -10z m102 4 c-3 -3 -12 -4 -19 -1 -8 3 -5 6 6 6 11 1 17 -2 13 -5z m-92
-34 c11 -5 15 -9 9 -9 -5 -1 -19 -8 -30 -17 -18 -14 -18 -15 4 -4 13 6 30 9
39 6 9 -4 17 1 20 13 3 11 14 19 28 19 21 0 22 -2 9 -16 -13 -12 -13 -16 -2
-23 10 -7 10 -9 1 -9 -7 0 -13 -11 -13 -24 0 -24 -4 -26 -107 -73 -21 -9 -41
-18 -45 -20 -14 -7 4 32 21 46 15 12 14 13 -1 8 -10 -4 -18 -2 -18 3 0 6 3 10
8 10 4 0 13 10 21 21 11 18 11 21 -1 17 -7 -3 -19 0 -25 8 -10 10 -7 17 14 33
28 23 37 24 68 11z m10 -140 c4 -6 -7 -15 -24 -21 -17 -6 -31 -15 -31 -20 0
-5 -7 -9 -15 -9 -24 0 -18 20 9 30 13 5 27 14 31 19 8 14 22 14 30 1z m-32
-77 c-7 -2 -19 -2 -25 0 -7 3 -2 5 12 5 14 0 19 -2 13 -5z"/>
<path d="M13690 5410 c0 -5 5 -10 11 -10 5 0 7 5 4 10 -3 6 -8 10 -11 10 -2 0
-4 -4 -4 -10z"/>
<path d="M13481 3724 c0 -11 3 -14 6 -6 3 7 2 16 -1 19 -3 4 -6 -2 -5 -13z"/>
<path d="M13288 2913 c7 -3 16 -2 19 1 4 3 -2 6 -13 5 -11 0 -14 -3 -6 -6z"/>
<path d="M10954 5745 c-10 -25 4 -45 30 -45 13 0 26 7 30 15 9 25 -5 45 -30
45 -14 0 -27 -7 -30 -15z"/>
<path d="M14826 5582 c-3 -5 -19 -7 -35 -4 -31 4 -156 -32 -166 -49 -8 -12 -3
-12 40 7 21 8 49 13 62 9 14 -3 22 -2 19 3 -3 5 18 12 47 15 30 3 54 1 56 -5
2 -6 6 -6 10 1 6 8 16 8 40 0 42 -15 51 -5 12 15 -32 17 -77 21 -85 8z"/>
<path d="M14185 5530 c3 -5 8 -10 11 -10 2 0 4 5 4 10 0 6 -5 10 -11 10 -5 0
-7 -4 -4 -10z"/>
<path d="M14240 5519 c0 -5 5 -7 10 -4 6 3 10 8 10 11 0 2 -4 4 -10 4 -5 0
-10 -5 -10 -11z"/>
<path d="M14270 5520 c0 -5 10 -10 23 -10 18 0 19 2 7 10 -19 13 -30 13 -30 0z"/>
<path d="M15114 5512 c-7 -4 -8 -15 -3 -27 7 -19 8 -19 8 2 1 12 7 24 14 26 6
3 8 6 2 6 -5 0 -15 -3 -21 -7z"/>
<path d="M10954 5495 c-10 -25 4 -45 30 -45 25 0 39 20 30 45 -4 8 -17 15 -30
15 -14 0 -27 -7 -30 -15z"/>
<path d="M12713 5466 c-16 -23 -47 -68 -71 -101 -55 -75 -66 -95 -52 -95 5 0
25 23 42 50 29 44 36 50 60 46 37 -7 70 34 67 84 -2 20 0 40 4 46 3 6 0 11 -8
11 -8 0 -27 -19 -42 -41z"/>
<path d="M14788 5503 c7 -3 16 -2 19 1 4 3 -2 6 -13 5 -11 0 -14 -3 -6 -6z"/>
<path d="M14835 5489 c-16 -11 -40 -19 -52 -19 -60 0 -161 -56 -166 -92 -2 -7
-7 -15 -12 -17 -19 -8 -32 -34 -27 -54 3 -13 7 -15 12 -7 4 7 10 -4 15 -26 7
-42 34 -97 64 -131 28 -33 35 -28 10 6 -27 37 -29 100 -3 138 10 15 17 35 16
44 -4 24 29 29 113 19 6 0 -1 -10 -15 -22 l-25 -21 25 8 c24 7 74 8 114 3 10
-2 23 6 30 17 6 11 15 23 20 27 12 8 56 -12 56 -25 0 -15 14 1 16 18 1 8 -2
15 -7 15 -6 0 -7 15 -3 35 5 28 3 36 -12 42 -28 10 -46 31 -34 38 5 3 10 12
10 18 0 9 -2 9 -8 0 -8 -12 -78 -12 -99 0 -4 2 -21 -4 -38 -14z"/>
<path d="M14310 5489 c0 -5 5 -7 10 -4 6 3 10 8 10 11 0 2 -4 4 -10 4 -5 0
-10 -5 -10 -11z"/>
<path d="M12938 5443 c-6 -16 -22 -53 -35 -83 l-24 -55 57 58 c53 55 56 60 44
83 -17 31 -28 30 -42 -3z"/>
<path d="M14540 5351 c0 -6 4 -13 10 -16 6 -3 7 1 4 9 -7 18 -14 21 -14 7z"/>
<path d="M14385 5339 c-4 -6 -5 -12 -2 -15 2 -3 7 2 10 11 7 17 1 20 -8 4z"/>
<path d="M14418 5329 c-20 -21 -24 -49 -8 -49 6 0 10 5 10 12 0 6 10 22 22 35
15 16 17 23 7 22 -8 0 -22 -9 -31 -20z"/>
<path d="M14502 5317 c20 -20 34 -28 36 -21 4 16 -33 54 -53 54 -10 0 -5 -11
17 -33z"/>
<path d="M12884 5292 c-21 -17 -64 -75 -64 -86 0 -3 7 -3 15 0 8 4 13 10 10
14 -2 4 4 18 15 30 29 33 49 13 25 -24 -10 -14 -15 -26 -12 -26 12 0 55 83 50
96 -7 18 -13 17 -39 -4z"/>
<path d="M10957 5253 c-12 -11 -8 -40 7 -52 26 -22 63 10 50 44 -6 15 -45 21
-57 8z"/>
<path d="M12567 5253 c-16 -15 -4 -32 34 -47 32 -13 44 -14 55 -5 21 17 18 22
-29 42 -47 19 -51 20 -60 10z"/>
<path d="M14390 5249 c0 -5 5 -7 10 -4 6 3 10 8 10 11 0 2 -4 4 -10 4 -5 0
-10 -5 -10 -11z"/>
<path d="M14547 5240 c3 -11 7 -20 9 -20 2 0 4 9 4 20 0 11 -4 20 -9 20 -5 0
-7 -9 -4 -20z"/>
<path d="M13004 5236 c-5 -14 -14 -17 -35 -12 -22 4 -31 1 -39 -14 -6 -12 -7
-20 -1 -20 5 0 11 6 14 13 3 9 9 7 24 -5 11 -10 24 -18 30 -18 15 0 32 45 23
61 -7 11 -10 10 -16 -5z"/>
<path d="M14385 5220 c3 -5 8 -10 11 -10 2 0 4 5 4 10 0 6 -5 10 -11 10 -5 0
-7 -4 -4 -10z"/>
<path d="M14325 5199 c-4 -6 -5 -12 -2 -15 2 -3 7 2 10 11 7 17 1 20 -8 4z"/>
<path d="M14570 5190 c0 -8 5 -22 10 -30 9 -13 10 -13 10 0 0 8 -5 22 -10 30
-9 13 -10 13 -10 0z"/>
<path d="M14365 5169 c-4 -6 -5 -12 -2 -15 2 -3 7 2 10 11 7 17 1 20 -8 4z"/>
<path d="M14605 5130 c3 -5 8 -10 11 -10 2 0 4 5 4 10 0 6 -5 10 -11 10 -5 0
-7 -4 -4 -10z"/>
<path d="M12870 5050 c0 -5 5 -10 11 -10 5 0 7 5 4 10 -3 6 -8 10 -11 10 -2 0
-4 -4 -4 -10z"/>
<path d="M10957 5003 c-12 -11 -8 -40 7 -52 28 -23 68 17 45 45 -12 15 -41 19
-52 7z"/>
<path d="M14727 4854 c-4 -4 -7 -15 -7 -24 0 -20 -33 -52 -48 -48 -13 4 -65
-56 -51 -60 23 -8 154 99 146 121 -4 14 -30 21 -40 11z"/>
<path d="M15747 4835 c-4 -8 -1 -17 4 -21 6 -4 8 -20 4 -40 l-6 -34 28 15 c15
8 50 24 76 37 l48 22 -53 12 c-29 7 -56 10 -60 8 -5 -3 -8 0 -8 5 0 16 -27 13
-33 -4z"/>
<path d="M14240 4822 c0 -7 85 -62 96 -62 2 0 -11 16 -30 35 -32 32 -66 46
-66 27z"/>
<path d="M15682 4795 c28 -51 28 -51 28 -32 0 9 -11 29 -25 44 l-26 28 23 -40z"/>
<path d="M16066 4798 c3 -4 -14 -8 -38 -9 l-43 -1 55 -13 c30 -8 56 -14 58
-15 2 0 0 5 -4 11 -4 8 0 9 15 4 16 -5 20 -3 15 8 -3 8 -18 17 -34 19 -16 2
-27 1 -24 -4z"/>
<path d="M13043 4782 c-6 -4 -14 -28 -18 -53 -7 -48 3 -66 41 -74 11 -2 26 -6
34 -9 8 -3 21 -2 29 3 12 8 11 14 -5 37 -32 46 -34 48 -44 77 -10 28 -17 32
-37 19z"/>
<path d="M16154 4746 c-1 -17 6 -27 23 -35 35 -16 39 -8 13 28 -26 37 -35 39
-36 7z"/>
<path d="M10953 4744 c-15 -39 38 -67 60 -32 8 12 7 21 -2 32 -17 21 -50 20
-58 0z"/>
<path d="M16197 4599 c27 -46 55 -100 63 -119 7 -19 33 -74 57 -122 24 -48 43
-90 43 -92 0 -2 -12 -1 -26 3 -22 6 -32 20 -55 81 -30 78 -80 180 -118 240
l-22 35 6 -35 c18 -95 40 -142 244 -534 55 -105 62 -115 59 -80 l-3 39 55 3
c30 1 66 5 78 8 l24 5 -25 33 -26 33 87 12 c48 7 121 18 162 26 41 8 128 21
192 31 65 9 116 19 114 23 -2 3 -62 7 -133 9 -70 2 -180 8 -243 14 -63 6 -145
11 -182 12 -47 1 -64 4 -57 12 12 14 1 24 -26 24 -18 0 -36 28 -104 163 -75
145 -89 166 -135 201 -28 21 -57 43 -64 49 -7 6 9 -28 35 -74z m310 -515 c-3
-3 -12 -4 -19 -1 -8 3 -5 6 6 6 11 1 17 -2 13 -5z"/>
<path d="M10957 4504 c-15 -16 -7 -53 14 -59 30 -10 58 19 43 43 -12 18 -45
28 -57 16z"/>
<path d="M15947 4383 c-11 -11 -8 -28 9 -49 13 -15 15 -16 10 -2 -3 12 -1 15
10 11 7 -3 14 -9 14 -13 0 -5 3 -16 6 -25 5 -13 2 -15 -20 -9 l-26 6 6 -63 c5
-51 18 -86 61 -169 30 -58 61 -112 69 -121 8 -8 14 -21 14 -27 0 -7 7 -12 16
-12 8 0 13 -4 10 -9 -4 -5 2 -23 11 -40 20 -35 33 -35 105 -3 l38 17 -56 130
c-31 72 -71 168 -90 214 -41 102 -44 106 -102 127 -26 10 -54 23 -63 31 -9 7
-19 10 -22 6z m240 -329 c-3 -3 -12 -4 -19 -1 -8 3 -5 6 6 6 11 1 17 -2 13 -5z
m-63 -63 c4 -5 -3 -7 -14 -4 -23 6 -26 13 -6 13 8 0 17 -4 20 -9z"/>
<path d="M16206 4263 c26 -105 123 -373 135 -373 3 0 14 6 24 14 18 13 18 15
-12 62 -32 51 -63 138 -84 238 -13 60 -30 86 -55 86 -11 0 -13 -7 -8 -27z"/>
<path d="M16905 4279 c-50 -6 -51 -7 -5 -15 93 -15 215 -54 218 -68 2 -9 12
-16 23 -16 11 0 23 -8 26 -17 8 -20 157 -279 362 -628 l140 -239 -27 -12 c-15
-6 -27 -11 -28 -10 -8 7 -287 475 -344 576 -42 74 -91 160 -109 191 l-32 57
27 6 c21 6 24 10 14 21 -8 10 -18 11 -34 5 -19 -7 -26 -4 -36 16 -14 24 -30
32 -30 14 0 -5 4 -10 9 -10 5 0 7 -8 4 -18 -3 -13 -28 -26 -85 -44 -53 -16
-82 -30 -84 -40 -2 -14 7 -13 70 4 133 37 117 43 176 -69 92 -171 107 -196
264 -463 127 -214 152 -262 138 -266 -9 -3 -39 -14 -66 -25 -27 -11 -50 -18
-52 -16 -6 6 -12 56 -7 61 3 3 7 22 9 42 2 20 1 34 -3 31 -11 -11 -43 14 -43
33 0 11 -7 20 -15 20 -8 0 -12 6 -9 14 3 8 -3 19 -16 26 -11 6 -19 14 -16 18
2 4 -3 18 -12 30 -15 19 -21 21 -52 12 -44 -13 -73 -13 -65 -1 3 5 1 12 -5 16
-16 10 -12 55 5 55 8 0 19 9 25 20 15 28 -20 63 -55 54 -20 -5 -25 -2 -25 11
0 10 -8 24 -17 31 -17 13 -17 15 2 32 25 20 39 52 24 52 -6 0 -7 4 -4 10 6 10
-24 72 -38 79 -5 2 -21 17 -37 35 -30 32 -115 84 -124 75 -9 -8 50 -169 66
-182 21 -17 59 -87 48 -87 -14 0 -12 -27 5 -60 10 -19 20 -27 33 -23 13 3 22
-4 32 -24 8 -15 16 -31 18 -35 2 -3 -6 -9 -16 -13 -19 -5 -19 -8 -5 -44 14
-36 18 -38 42 -31 26 7 30 3 92 -96 35 -57 73 -119 84 -138 18 -31 22 -32 41
-20 18 12 21 12 21 0 0 -7 -29 -27 -64 -45 -59 -29 -84 -61 -48 -61 16 0 32 7
190 78 64 29 92 37 98 29 4 -7 46 -79 92 -161 82 -143 125 -225 233 -441 28
-55 61 -119 74 -143 l23 -43 -25 -20 c-14 -11 -93 -79 -176 -150 -121 -103
-151 -134 -147 -150 6 -23 5 -24 103 61 128 111 261 220 269 220 4 0 20 -14
37 -31 l29 -31 -50 -41 c-27 -23 -75 -64 -106 -92 -30 -27 -95 -84 -142 -125
-62 -52 -86 -79 -81 -90 3 -8 15 -41 26 -72 12 -35 37 -77 63 -105 37 -42 52
-50 111 -66 38 -9 78 -17 90 -17 19 0 237 219 303 305 14 19 56 72 94 118 37
47 67 91 67 99 0 8 -13 32 -29 54 -15 21 -95 152 -176 289 -246 416 -540 889
-765 1230 -65 99 -150 229 -187 290 -37 60 -84 127 -103 148 l-35 38 -120 -3
c-66 -2 -142 -6 -170 -9z m842 -1119 c29 -52 92 -171 138 -265 47 -93 116
-224 155 -290 38 -66 70 -125 70 -131 0 -6 -11 -16 -25 -22 -24 -11 -26 -9
-59 56 -19 37 -52 99 -73 138 -21 38 -73 137 -117 220 -43 82 -107 199 -141
259 -57 99 -62 111 -47 123 9 7 23 11 31 10 7 -2 38 -46 68 -98z m411 -756
l21 -31 -24 -13 c-21 -11 -26 -10 -49 15 -14 15 -26 29 -26 31 0 4 54 33 56
31 0 -1 10 -16 22 -33z m-121 -576 c-3 -7 -5 -2 -5 12 0 14 2 19 5 13 2 -7 2
-19 0 -25z"/>
<path d="M16560 4260 c0 -6 -4 -8 -10 -5 -5 3 -10 1 -10 -5 0 -7 6 -10 13 -7
6 2 20 0 30 -5 11 -5 17 -5 17 1 0 6 -9 15 -20 21 -14 8 -20 8 -20 0z"/>
<path d="M10926 3985 c-15 -23 -15 -25 1 -25 10 1 32 12 48 25 l30 25 -31 0
c-23 0 -36 -7 -48 -25z"/>
<path d="M13234 3982 c-21 -14 -23 -38 -2 -39 13 -1 18 3 14 13 -3 8 1 14 9
14 8 0 15 5 15 10 0 12 -20 13 -36 2z"/>
<path d="M8180 3821 l0 -121 29 0 c26 0 30 4 33 33 3 31 5 32 55 37 65 7 93
30 93 80 0 60 -33 82 -130 88 l-80 5 0 -122z m140 54 c18 -21 8 -48 -21 -59
-38 -13 -59 -2 -59 32 0 16 3 32 7 35 12 12 60 7 73 -8z"/>
<path d="M8430 3820 l0 -120 35 0 c33 0 35 2 35 35 0 47 27 47 59 0 19 -28 30
-35 58 -35 l34 0 -25 37 c-26 37 -26 37 -6 58 21 23 26 74 10 105 -14 26 -63
40 -136 40 l-64 0 0 -120z m138 58 c29 -29 2 -68 -47 -68 -18 0 -21 6 -21 40
0 37 2 40 28 40 15 0 33 -5 40 -12z"/>
<path d="M8732 3920 c-45 -28 -68 -82 -53 -130 6 -20 22 -47 37 -61 22 -20 36
-24 89 -24 53 0 67 4 89 24 111 105 -31 271 -162 191z m118 -50 c41 -41 12
-120 -45 -120 -14 0 -34 9 -45 20 -41 41 -12 120 45 120 14 0 34 -9 45 -20z"/>
<path d="M8980 3820 l0 -120 65 0 c116 0 170 39 170 120 0 83 -55 120 -177
120 l-58 0 0 -120z m148 54 c16 -11 22 -25 22 -54 0 -46 -26 -70 -77 -70 l-33
0 0 70 0 70 33 0 c18 0 43 -7 55 -16z"/>
<path d="M9260 3849 c0 -87 1 -92 29 -120 23 -23 38 -29 71 -29 91 0 120 41
120 166 l0 74 -30 0 -30 0 0 -67 c0 -79 -16 -117 -50 -121 -37 -6 -50 22 -50
110 l0 78 -30 0 -30 0 0 -91z"/>
<path d="M9510 3915 c0 -22 4 -25 35 -25 l35 0 0 -95 0 -95 30 0 30 0 0 95 0
95 40 0 c36 0 40 3 40 25 l0 25 -105 0 -105 0 0 -25z"/>
<path d="M9805 3930 c-44 -18 -70 -59 -70 -112 0 -44 4 -53 37 -84 31 -28 45
-34 83 -34 57 0 100 21 120 60 31 60 10 137 -45 165 -31 16 -93 19 -125 5z
m104 -66 c12 -15 21 -34 21 -44 0 -27 -39 -70 -64 -70 -40 0 -66 27 -66 70 0
67 69 95 109 44z"/>
<path d="M10063 3930 c-25 -10 -43 -39 -43 -69 0 -25 41 -57 84 -65 42 -8 66
-33 42 -42 -9 -4 -39 -4 -65 0 -40 5 -50 3 -55 -10 -10 -27 9 -38 78 -42 59
-4 67 -2 90 21 30 30 34 67 9 89 -10 9 -40 22 -68 30 -70 19 -68 43 3 43 40 0
56 5 63 17 7 13 5 20 -10 28 -23 12 -97 12 -128 0z"/>
<path d="M10384 3828 c-27 -61 -50 -115 -52 -120 -2 -4 10 -8 27 -8 24 0 34 6
43 25 10 22 17 25 64 25 49 0 54 -2 60 -25 5 -21 12 -25 40 -25 l34 0 -14 33
c-92 213 -88 207 -122 207 -31 0 -33 -3 -80 -112z m106 -20 c0 -12 -8 -18 -24
-18 -33 0 -36 8 -19 50 l15 34 14 -24 c7 -14 13 -33 14 -42z"/>
<path d="M10600 3915 c0 -22 4 -25 35 -25 l35 0 0 -95 0 -95 35 0 35 0 0 95 0
95 35 0 c31 0 35 3 35 25 l0 25 -105 0 -105 0 0 -25z"/>
<path d="M10840 3820 l0 -120 95 0 c95 0 95 0 95 25 0 24 -2 25 -66 25 -62 0
-65 1 -62 23 3 19 10 22 56 25 43 3 52 6 52 22 0 16 -9 19 -52 22 -46 3 -53 6
-56 26 -3 21 0 22 57 22 58 0 61 1 61 25 0 25 -1 25 -90 25 l-90 0 0 -120z"/>
<path d="M13922 3880 c0 -14 2 -19 5 -12 2 6 2 18 0 25 -3 6 -5 1 -5 -13z"/>
<path d="M13766 3855 c-4 -15 -5 -30 -1 -33 3 -3 5 2 5 11 0 10 3 16 8 16 18
-3 32 2 32 12 0 5 -5 7 -11 3 -6 -3 -15 -1 -19 6 -5 8 -10 3 -14 -15z"/>
<path d="M13267 3823 c-4 -3 -7 -11 -7 -17 0 -6 5 -5 12 2 6 6 9 14 7 17 -3 3
-9 2 -12 -2z"/>
<path d="M13727 3761 c-4 -17 -3 -21 5 -13 5 5 8 16 6 23 -3 8 -7 3 -11 -10z"/>
<path d="M13816 3495 c-9 -26 -7 -32 5 -12 6 10 9 21 6 23 -2 3 -7 -2 -11 -11z"/>
<path d="M13883 3492 c-8 -5 -9 -13 -3 -22 7 -12 10 -12 16 3 8 21 3 29 -13
19z"/>
<path d="M8253 3449 c-99 -19 -176 -81 -222 -178 -24 -52 -26 -66 -26 -186 0
-113 3 -136 22 -178 36 -78 78 -124 147 -157 52 -26 74 -31 134 -31 100 0 165
23 222 80 86 86 123 219 101 361 -26 164 -114 264 -255 289 -66 12 -64 12
-123 0z m100 -199 c33 -26 52 -111 44 -202 -7 -79 -23 -118 -56 -134 -64 -32
-105 35 -104 171 0 102 18 160 55 175 32 12 32 12 61 -10z"/>
<path d="M8806 3440 c-38 -12 -85 -57 -103 -99 -20 -46 -18 -142 3 -186 28
-60 76 -89 154 -93 75 -5 108 8 151 55 67 72 63 222 -7 285 -48 42 -130 58
-198 38z m93 -113 c31 -38 24 -139 -11 -158 -18 -10 -25 -8 -40 11 -20 25 -25
108 -8 141 12 22 43 25 59 6z"/>
<path d="M7430 3428 c-1 -7 -9 -104 -18 -215 l-18 -203 127 0 c70 0 139 -4
152 -9 36 -14 44 -48 18 -75 -29 -29 -133 -28 -211 3 -30 11 -55 21 -56 21 -3
0 -74 -161 -74 -168 0 -40 281 -81 386 -56 80 19 152 73 187 139 40 77 21 203
-40 257 -36 33 -114 60 -189 65 l-74 6 0 33 0 34 140 0 140 0 0 90 0 90 -235
0 c-181 0 -235 -3 -235 -12z"/>
<path d="M9139 3218 c-226 -331 -315 -462 -323 -475 -5 -10 12 -13 76 -13 l84
0 141 208 c78 114 186 273 242 355 l101 147 -85 0 -84 0 -152 -222z"/>
<path d="M2100 3347 c-81 -19 -125 -44 -174 -98 -49 -55 -76 -121 -76 -186 l0
-43 -55 0 -55 0 0 -120 0 -120 55 0 55 0 0 -250 0 -250 160 0 160 0 0 250 0
250 80 0 80 0 0 120 0 120 -86 0 -86 0 6 28 c4 15 17 35 29 45 20 18 45 19
108 4 6 -1 28 47 49 108 29 82 36 111 27 117 -44 29 -200 43 -277 25z"/>
<path d="M4040 3130 l0 -110 -55 0 -55 0 0 -120 0 -120 54 0 54 0 4 -147 c4
-162 19 -216 76 -276 79 -83 250 -116 402 -76 66 17 66 16 25 139 -31 92 -40
110 -54 105 -45 -18 -79 -17 -100 4 -19 19 -21 32 -21 136 l0 115 80 0 80 0 0
120 0 120 -80 0 -80 0 0 110 0 110 -165 0 -165 0 0 -110z"/>
<path d="M9320 3103 c-69 -26 -110 -94 -110 -182 0 -97 29 -147 105 -182 67
-31 155 -19 209 29 31 28 56 93 56 151 0 118 -72 192 -186 190 -32 0 -66 -3
-74 -6z m94 -106 c27 -20 34 -108 12 -142 -20 -30 -51 -33 -66 -6 -15 30 -12
113 6 139 18 26 24 27 48 9z"/>
<path d="M13825 3100 c-3 -5 -1 -10 4 -10 6 0 11 5 11 10 0 6 -2 10 -4 10 -3
0 -8 -4 -11 -10z"/>
<path d="M1160 3070 c-226 -39 -375 -220 -357 -433 19 -219 199 -368 447 -370
202 -2 355 84 428 241 24 51 27 69 27 167 0 101 -2 114 -29 167 -87 173 -298
266 -516 228z m160 -266 c55 -33 77 -134 46 -208 -42 -100 -172 -102 -217 -3
-48 108 5 227 103 227 22 0 52 -7 68 -16z"/>
<path d="M2740 3074 c-51 -10 -126 -37 -166 -61 -59 -34 -131 -114 -162 -181
-24 -50 -27 -69 -27 -162 0 -96 3 -110 29 -165 54 -110 164 -193 296 -226 86
-21 236 -16 317 10 63 20 163 81 163 99 0 4 -37 45 -83 90 l-83 83 -45 -25
c-82 -47 -216 -30 -257 32 l-14 22 271 0 271 0 1 43 c3 133 -12 194 -67 274
-42 62 -132 125 -208 148 -53 16 -192 27 -236 19z m158 -240 c19 -13 52 -63
52 -79 0 -3 -56 -5 -124 -5 l-125 0 11 31 c6 17 25 39 42 50 38 23 113 25 144
3z"/>
<path d="M3823 3070 c-48 -10 -114 -42 -132 -64 -21 -25 -31 -19 -31 19 l0 35
-155 0 -155 0 0 -390 0 -390 165 0 165 0 0 203 c0 177 2 207 18 237 26 49 72
70 155 70 l68 0 -3 143 -3 142 -25 2 c-14 0 -44 -3 -67 -7z"/>
<path d="M4895 3070 c-87 -14 -235 -67 -235 -85 0 -3 23 -51 51 -108 l51 -103
52 26 c43 21 64 25 144 25 l94 0 31 -35 31 -35 -128 -7 c-207 -12 -294 -48
-341 -141 -60 -121 -4 -261 129 -318 38 -16 71 -22 131 -22 92 0 142 17 193
65 l32 32 0 -42 0 -42 156 0 156 0 -4 258 c-4 199 -8 268 -21 305 -47 146
-171 223 -372 232 -49 2 -117 0 -150 -5z m215 -514 c0 -67 -89 -118 -145 -82
-19 12 -25 25 -25 52 0 30 5 37 33 49 17 8 56 14 85 15 l52 0 0 -34z"/>
<path d="M5823 3070 c-181 -33 -283 -128 -283 -265 0 -75 28 -134 80 -170 54
-38 99 -51 231 -70 125 -18 159 -35 124 -62 -30 -22 -191 -13 -270 17 -33 12
-67 24 -76 27 -12 3 -26 -18 -58 -94 -22 -54 -41 -101 -41 -105 0 -23 132 -62
262 -79 99 -12 232 1 315 33 72 27 157 107 172 163 24 90 6 163 -54 221 -51
50 -102 68 -244 89 -104 16 -141 28 -141 45 0 35 162 41 250 9 30 -11 61 -21
69 -22 9 -1 29 35 57 100 l43 103 -29 15 c-76 39 -300 64 -407 45z"/>
<path d="M13820 3049 c0 -5 5 -7 10 -4 6 3 10 8 10 11 0 2 -4 4 -10 4 -5 0
-10 -5 -10 -11z"/>
<path d="M15670 2968 c0 -14 7 -28 15 -32 19 -7 19 13 0 38 -14 19 -15 19 -15
-6z"/>
<path d="M17503 2883 c-37 -19 -41 -37 -15 -71 18 -23 19 -23 55 -6 l36 17
-20 39 c-11 21 -20 38 -22 37 -1 0 -17 -8 -34 -16z"/>
<path d="M15686 2763 c-7 -20 -17 -37 -63 -109 -44 -68 -57 -133 -43 -215 7
-35 14 -90 17 -122 7 -71 18 -82 21 -20 1 26 4 55 8 65 3 10 1 18 -5 18 -6 0
-11 5 -11 11 0 5 3 8 8 6 4 -3 7 7 8 21 2 54 15 144 24 167 5 12 6 26 3 29 -4
3 0 6 7 6 7 0 11 3 8 6 -4 3 0 22 8 41 9 19 13 38 10 41 -3 3 -1 11 5 19 6 7
8 13 4 13 -5 0 0 9 10 20 15 17 16 20 3 20 -9 0 -19 -8 -22 -17z"/>
<path d="M16887 2750 c3 -14 12 -41 20 -60 11 -30 12 -31 8 -6 -4 16 -13 43
-20 60 -11 23 -13 25 -8 6z"/>
<path d="M17578 2724 c-32 -17 -34 -24 -13 -65 l16 -29 39 20 40 20 -17 35
c-19 39 -26 41 -65 19z"/>
<path d="M13311 2671 c-23 -15 16 -24 49 -11 3 1 9 2 13 1 5 -1 6 3 2 9 -8 12
-45 13 -64 1z"/>
<path d="M16923 2630 c9 -33 25 -180 26 -237 1 -18 5 -33 11 -33 17 0 -17 272
-37 289 -3 3 -3 -5 0 -19z"/>
<path d="M13347 2633 c-4 -3 -7 -11 -7 -17 0 -6 5 -5 12 2 6 6 9 14 7 17 -3 3
-9 2 -12 -2z"/>
<path d="M17657 2579 l-37 -20 16 -32 c9 -18 18 -34 20 -36 2 -2 29 14 72 45
4 2 -27 64 -31 64 -1 -1 -19 -10 -40 -21z"/>
<path d="M17545 2491 c8 -45 17 -62 28 -58 17 6 9 38 -14 62 -18 19 -19 19
-14 -4z"/>
<path d="M13235 2480 c3 -5 10 -10 16 -10 5 0 9 5 9 10 0 6 -7 10 -16 10 -8 0
-12 -4 -9 -10z"/>
<path d="M13230 2451 c0 -5 5 -13 10 -16 6 -3 10 -2 10 4 0 5 -4 13 -10 16 -5
3 -10 2 -10 -4z"/>
<path d="M9600 1065 l0 -1065 1810 0 1809 0 21 47 c19 44 49 159 54 213 2 14
6 40 10 58 l8 32 -1641 0 -1641 0 0 84 0 84 38 7 c57 10 98 41 123 91 48 100
-12 203 -133 229 l-28 5 0 114 0 114 38 7 c57 10 98 41 123 91 48 100 -12 203
-133 229 l-28 5 0 114 0 114 38 7 c87 16 150 95 139 176 -9 72 -83 139 -151
139 -26 0 -26 0 -26 85 l0 85 -215 0 -215 0 0 -1065z"/>
<path d="M15674 2086 c-4 -10 -2 -22 4 -28 8 -8 13 -7 18 6 4 10 2 22 -4 28
-8 8 -13 7 -18 -6z"/>
<path d="M10953 1984 c-15 -39 38 -67 60 -32 8 12 7 21 -2 32 -17 21 -50 20
-58 0z"/>
<path d="M3358 1875 c-16 -18 -28 -36 -28 -39 0 -3 14 -6 32 -6 29 0 117 54
118 73 0 4 -21 7 -47 6 -42 0 -52 -5 -75 -34z"/>
<path d="M2640 1811 c-103 -20 -166 -115 -140 -212 30 -111 158 -159 283 -106
l37 16 0 70 0 71 -50 0 -50 0 0 -39 c0 -45 -20 -58 -63 -42 -49 19 -64 94 -27
131 24 24 77 26 109 4 21 -15 24 -15 54 12 18 16 34 31 37 32 12 8 -58 52 -90
58 -19 3 -42 7 -50 9 -8 1 -31 -1 -50 -4z"/>
<path d="M4150 1810 c-71 -13 -110 -51 -110 -107 0 -47 34 -79 108 -100 35
-10 64 -23 65 -28 3 -17 -68 -17 -107 -1 l-36 15 -15 -36 c-9 -21 -14 -42 -11
-49 6 -15 83 -34 137 -34 54 0 122 33 137 66 33 71 -2 125 -93 145 -69 15 -85
25 -65 39 14 10 58 8 106 -6 17 -5 24 1 37 33 15 38 15 38 -11 49 -37 15 -100
22 -142 14z"/>
<path d="M790 1645 l0 -165 55 0 55 0 0 50 0 50 70 0 70 0 0 45 0 45 -70 0
c-68 0 -70 1 -70 25 0 25 1 25 80 25 l80 0 0 45 0 45 -135 0 -135 0 0 -165z"/>
<path d="M1090 1645 l0 -165 55 0 55 0 0 40 c0 29 4 40 15 40 8 0 27 -18 41
-40 26 -39 28 -40 85 -40 33 0 59 3 59 8 0 4 -14 25 -30 46 -30 39 -30 40 -11
60 44 49 52 96 25 147 -25 49 -82 69 -196 69 l-98 0 0 -165z m178 66 c8 -4 12
-19 10 -32 -2 -20 -10 -25 -40 -27 -37 -3 -38 -3 -38 32 0 33 3 36 28 36 15 0
33 -4 40 -9z"/>
<path d="M1440 1645 l0 -165 135 0 135 0 0 40 0 40 -80 0 c-73 0 -80 2 -80 20
0 17 8 19 68 22 l67 3 0 40 0 40 -67 3 c-51 2 -68 7 -68 17 0 11 19 15 78 17
l77 3 0 40 0 40 -132 3 -133 3 0 -166z"/>
<path d="M1724 1796 c-3 -8 -4 -27 -2 -43 3 -26 7 -28 51 -31 l47 -3 0 -120 0
-119 55 0 55 0 0 120 0 120 50 0 50 0 0 45 0 45 -150 0 c-121 0 -152 -3 -156
-14z"/>
<path d="M2057 1803 c-4 -3 -7 -78 -7 -165 l0 -158 140 0 140 0 0 40 0 40 -80
0 c-73 0 -80 2 -80 20 0 18 7 20 65 20 l65 0 0 45 0 45 -65 0 c-51 0 -65 3
-65 15 0 12 15 15 75 15 l75 0 0 45 0 45 -128 0 c-71 0 -132 -3 -135 -7z"/>
<path d="M2867 1803 c-4 -3 -7 -78 -7 -165 l0 -158 60 0 60 0 0 40 c0 27 4 40
14 40 7 0 25 -18 40 -40 l26 -40 115 0 c113 0 116 0 127 25 10 23 17 25 74 25
59 0 64 -2 70 -25 6 -23 11 -25 65 -25 32 0 59 2 59 4 0 3 -31 76 -69 163
l-70 158 -56 0 -56 0 -66 -150 c-36 -82 -68 -154 -72 -158 -8 -8 -61 64 -61
82 0 6 6 14 14 18 22 13 36 49 36 92 0 50 -37 96 -88 111 -41 11 -205 14 -215
3z m186 -104 c17 -28 1 -49 -38 -49 -33 0 -35 2 -35 36 0 34 1 35 31 32 18 -2
37 -10 42 -19z m347 -75 c0 -2 -11 -4 -25 -4 -29 0 -28 -2 -14 40 l12 32 13
-32 c8 -18 14 -34 14 -36z"/>
<path d="M3560 1765 l0 -45 50 0 50 0 0 -120 0 -120 55 0 55 0 0 120 0 120 50
0 50 0 0 45 0 45 -155 0 -155 0 0 -45z"/>
<path d="M3890 1645 l0 -165 60 0 60 0 -2 163 -3 162 -57 3 -58 3 0 -166z"/>
<path d="M10957 1744 c-15 -16 -7 -53 14 -59 30 -10 58 19 43 43 -12 18 -45
28 -57 16z"/>
<path d="M15435 1513 c-11 -2 -29 -8 -40 -13 -41 -18 -140 -32 -215 -30 -34 1
-220 -29 -237 -38 -16 -9 -15 -11 10 -17 15 -4 27 -11 27 -16 0 -17 -40 -9
-61 12 -15 15 -28 19 -50 14 -16 -4 -29 -13 -29 -21 0 -11 -7 -13 -27 -8 -16
4 -32 11 -37 15 -16 14 -33 10 -33 -7 0 -8 18 -24 39 -35 21 -11 38 -26 38
-34 0 -8 17 -26 38 -41 60 -44 78 -74 46 -74 -13 0 -12 -4 5 -26 11 -14 17
-32 14 -39 -3 -8 4 -30 16 -48 12 -19 21 -42 21 -51 0 -19 -1 -19 56 -5 28 7
43 16 40 24 -2 7 4 19 15 28 10 9 19 26 19 37 0 30 36 26 44 -5 8 -30 -8 -65
-29 -65 -8 0 -15 -4 -15 -9 0 -4 19 -5 43 0 23 4 76 13 117 19 41 6 112 18
157 26 45 7 97 14 115 14 55 1 68 18 67 91 -1 35 -7 80 -14 101 -12 37 -102
195 -113 201 -4 2 -16 2 -27 0z m-381 -109 c23 -22 20 -34 -8 -34 -26 0 -51
24 -41 40 9 15 31 12 49 -6z m-99 -44 c27 -7 27 -8 5 -8 -14 0 -36 4 -50 8
-20 6 -21 8 -5 8 11 0 34 -4 50 -8z m227 -252 c-15 -15 -24 -6 -16 16 5 12 10
14 17 7 8 -8 8 -14 -1 -23z m-142 -4 c0 -8 -4 -13 -9 -9 -6 3 -14 -3 -20 -12
-6 -10 -11 -15 -11 -10 0 11 24 47 32 47 5 0 8 -7 8 -16z"/>
<path d="M10962 1491 c-8 -4 -12 -19 -10 -32 4 -29 45 -34 61 -7 19 30 -19 60
-51 39z"/>
<path d="M13361 1341 c-1 -96 3 -160 14 -210 22 -97 35 -102 273 -115 81 -5
92 -4 92 11 0 15 1 15 13 1 6 -8 27 -18 45 -22 25 -4 32 -2 32 11 0 14 2 14
19 -1 13 -12 27 -15 41 -11 l22 7 -20 21 c-30 32 -36 72 -22 132 11 47 11 58
-4 89 -18 37 -14 128 6 153 8 10 -1 12 -39 12 l-48 -2 0 -38 c0 -68 -24 -68
-28 -1 -2 39 -4 42 -32 43 -87 3 -112 -11 -95 -55 5 -15 14 -24 20 -21 5 3 12
-7 16 -22 3 -15 14 -61 25 -101 15 -56 17 -78 8 -94 -16 -31 -28 -12 -60 99
-30 103 -38 183 -17 183 8 0 8 3 3 9 -12 12 -190 35 -203 27 -5 -3 -17 3 -27
14 -10 11 -21 20 -26 20 -4 0 -8 -62 -8 -139z m446 -297 c-10 -10 -37 16 -37
34 0 13 4 12 22 -5 12 -13 19 -25 15 -29z"/>
<path d="M13890 1401 c0 -11 5 -23 10 -26 6 -3 10 -24 10 -46 0 -35 4 -42 35
-60 34 -20 55 -46 55 -68 0 -6 -18 -28 -40 -50 -46 -45 -49 -64 -17 -110 17
-24 32 -35 55 -37 32 -4 44 9 18 19 -17 7 -51 67 -38 67 4 0 25 -18 47 -40 22
-21 48 -39 57 -40 16 0 15 3 -2 43 -26 56 -26 87 -1 87 32 0 49 -35 43 -85 -4
-38 -2 -45 12 -45 10 0 14 4 11 10 -3 5 -2 18 4 27 9 16 11 15 20 -9 8 -22 17
-28 39 -28 27 0 29 2 27 38 -2 29 -17 57 -66 123 -70 93 -93 131 -102 170 -11
43 -40 68 -88 74 -24 3 -38 2 -31 -1 14 -7 16 -34 2 -34 -5 0 -10 6 -10 13 0
8 -4 7 -10 -3 -8 -12 -10 -11 -10 8 0 13 -6 22 -15 22 -8 0 -15 -9 -15 -19z"/>
<path d="M14096 1371 c18 -43 18 -43 38 -35 19 7 21 25 4 44 -7 8 -1 4 15 -9
20 -19 27 -34 27 -62 0 -54 27 -108 51 -102 14 4 19 15 19 44 0 21 4 48 9 61
10 27 3 98 -10 98 -5 0 -9 -7 -9 -17 0 -15 -1 -15 -18 0 -21 19 -57 23 -46 6
4 -8 0 -8 -14 0 -12 6 -35 10 -51 9 l-30 -2 15 -35z"/>
<path d="M14350 1402 c0 -5 40 -39 89 -75 66 -49 98 -82 123 -122 57 -96 75
-136 70 -161 -3 -18 0 -24 13 -24 11 0 15 5 11 15 -7 19 3 19 24 0 24 -21 102
-10 98 14 -2 9 -15 17 -31 19 -27 3 -50 30 -46 55 3 17 -19 67 -30 67 -4 0
-11 14 -15 30 -4 24 -12 32 -36 36 -16 4 -30 11 -30 16 0 6 14 7 33 2 17 -4
55 -8 84 -9 43 -1 60 -8 100 -39 30 -23 49 -33 52 -25 5 15 -32 45 -89 72 -34
15 -63 20 -116 20 -62 -1 -75 1 -92 20 -11 12 -22 35 -24 52 -2 19 -9 31 -21
33 -26 5 -49 -6 -41 -19 5 -8 9 -8 14 1 10 17 20 -2 14 -27 -8 -28 -42 -19
-89 23 -37 32 -65 44 -65 26z"/>
<path d="M14580 1388 c-24 -19 -24 -20 -5 -34 28 -21 45 -17 45 11 0 15 6 25
15 25 8 0 12 -6 9 -14 -3 -8 0 -24 6 -36 16 -30 32 -12 28 31 -3 31 -6 34 -38
36 -22 1 -44 -6 -60 -19z"/>
<path d="M15770 1361 c0 -6 5 -13 10 -16 6 -3 10 1 10 9 0 9 -4 16 -10 16 -5
0 -10 -4 -10 -9z"/>
<path d="M14400 1318 c-6 -52 -6 -128 0 -128 5 0 20 4 34 9 19 8 30 6 50 -10
14 -11 26 -29 26 -39 0 -11 11 -27 25 -36 14 -9 28 -27 31 -40 7 -27 31 -32
40 -9 8 19 -59 128 -90 149 -13 8 -39 36 -57 61 -18 25 -38 45 -46 45 -7 0
-13 -1 -13 -2z"/>
<path d="M14272 1248 c-5 -7 -12 -46 -15 -87 l-6 -73 37 -34 c20 -19 40 -34
45 -34 12 0 8 29 -9 62 -12 24 -14 41 -7 82 13 74 -13 123 -45 84z"/>
<path d="M10960 1235 c-18 -22 -8 -50 19 -50 32 0 49 28 32 49 -17 20 -35 20
-51 1z"/>
<path d="M14750 1150 c0 -38 3 -46 14 -42 12 4 56 -39 56 -55 0 -18 49 -17 91
2 19 8 31 15 27 16 -5 1 -12 3 -18 4 -5 1 -14 3 -19 4 -5 0 -29 17 -53 37 -23
19 -51 42 -61 50 -26 21 -37 17 -37 -16z"/>
<path d="M14840 1145 c0 -14 37 -41 46 -33 6 6 -26 48 -37 48 -5 0 -9 -7 -9
-15z"/>
<path d="M14337 1123 c-11 -10 -8 -27 9 -69 15 -37 17 -38 31 -19 13 19 15 19
27 3 16 -21 26 -23 26 -5 0 7 -13 20 -29 30 -16 9 -32 28 -35 42 -6 25 -16 31
-29 18z"/>
<path d="M14500 1041 c0 -6 5 -13 10 -16 6 -3 10 1 10 9 0 9 -4 16 -10 16 -5
0 -10 -4 -10 -9z"/>
<path d="M10962 988 c-30 -30 1 -73 36 -51 23 14 25 29 7 47 -20 19 -27 20
-43 4z"/>
<path d="M10960 735 c-18 -21 -8 -50 19 -53 37 -6 52 26 25 52 -19 20 -28 20
-44 1z"/>
<path d="M680 722 c0 -7 -4 -11 -9 -8 -5 3 -8 -5 -8 -19 0 -14 3 -22 8 -19 5
3 9 -1 9 -8 0 -10 2 -10 9 1 5 7 14 10 20 7 6 -4 11 -3 11 3 0 5 -6 12 -12 14
-10 4 -10 6 0 6 6 1 12 6 12 12 0 5 -5 7 -11 3 -6 -3 -15 0 -20 7 -7 11 -9 11
-9 1z"/>
<path d="M1320 660 c0 -40 4 -70 10 -70 6 0 10 30 10 70 0 40 -4 70 -10 70 -6
0 -10 -30 -10 -70z"/>
<path d="M3028 708 c-9 -15 -13 -40 -10 -70 5 -58 22 -64 22 -8 0 29 4 40 15
40 8 0 15 5 15 10 0 6 -7 10 -16 10 -9 0 -14 6 -11 13 2 6 9 12 15 12 5 0 14
3 18 8 4 4 -2 7 -13 7 -11 0 -27 -10 -35 -22z"/>
<path d="M3770 715 c-7 -8 -8 -15 -2 -15 5 0 15 7 22 15 7 8 8 15 2 15 -5 0
-15 -7 -22 -15z"/>
<path d="M3920 720 c0 -5 4 -10 9 -10 6 0 13 5 16 10 3 6 -1 10 -9 10 -9 0
-16 -4 -16 -10z"/>
<path d="M4510 660 c0 -40 4 -70 10 -70 6 0 10 30 10 70 0 40 -4 70 -10 70 -6
0 -10 -30 -10 -70z"/>
<path d="M4560 720 c0 -5 5 -10 10 -10 6 0 10 5 10 10 0 6 -4 10 -10 10 -5 0
-10 -4 -10 -10z"/>
<path d="M4690 706 c0 -19 -4 -22 -25 -18 -33 6 -55 -14 -55 -48 0 -36 18 -50
63 -48 l37 1 0 69 c0 39 -4 68 -10 68 -5 0 -10 -11 -10 -24z m-5 -66 c0 -20
-6 -26 -26 -28 -17 -2 -29 3 -32 12 -11 28 4 47 32 44 20 -2 26 -8 26 -28z"/>
<path d="M4930 706 c0 -19 -4 -22 -25 -18 -33 6 -55 -14 -55 -48 0 -36 18 -50
63 -48 l37 1 0 69 c0 39 -4 68 -10 68 -5 0 -10 -11 -10 -24z m-5 -66 c0 -18
-6 -26 -23 -28 -24 -4 -38 18 -28 44 3 9 15 14 28 12 17 -2 23 -10 23 -28z"/>
<path d="M5230 706 c0 -19 -4 -22 -25 -18 -29 5 -65 -21 -65 -48 0 -28 33 -50
73 -48 l37 1 0 69 c0 39 -4 68 -10 68 -5 0 -10 -11 -10 -24z m-5 -56 c8 -27
-1 -40 -30 -40 -25 0 -38 21 -29 45 9 22 51 19 59 -5z"/>
<path d="M6210 722 c0 -4 14 -9 30 -10 17 -1 30 1 30 5 0 5 -14 9 -30 10 -17
1 -30 -1 -30 -5z"/>
<path d="M1371 694 c-9 -11 -10 -18 -3 -23 6 -3 12 -22 14 -41 2 -27 8 -36 26
-38 12 -2 22 1 22 7 0 6 -7 11 -15 11 -19 0 -21 56 -3 62 9 3 8 9 -4 21 -20
20 -19 20 -37 1z"/>
<path d="M3278 698 c-8 -22 4 -87 18 -98 7 -7 21 -10 31 -7 16 4 15 6 -4 12
-17 5 -23 15 -23 36 0 19 5 29 15 29 8 0 15 5 15 10 0 6 -7 10 -15 10 -8 0
-15 5 -15 10 0 14 -17 12 -22 -2z"/>
<path d="M3843 696 c-6 -8 -8 -17 -3 -22 5 -5 10 -25 12 -44 2 -27 8 -36 26
-38 12 -2 22 1 22 7 0 6 -7 11 -15 11 -21 0 -19 50 3 66 16 13 16 13 0 14 -10
0 -18 5 -18 10 0 14 -13 12 -27 -4z"/>
<path d="M747 672 c-22 -24 -21 -45 2 -66 20 -19 62 -19 68 0 2 6 -8 9 -26 6
-33 -5 -45 9 -36 39 6 17 13 20 36 17 18 -3 28 -1 26 6 -6 19 -52 18 -70 -2z"/>
<path d="M856 674 c-9 -8 -16 -24 -16 -34 0 -40 60 -66 88 -38 15 15 15 61 0
76 -17 17 -54 15 -72 -4z m68 -19 c9 -25 -5 -45 -30 -45 -26 0 -40 20 -30 45
3 8 16 15 30 15 13 0 26 -7 30 -15z"/>
<path d="M970 638 c0 -56 17 -65 22 -11 5 65 57 56 58 -9 0 -16 5 -28 10 -28
13 0 13 41 0 74 -8 22 -15 26 -50 24 l-40 -1 0 -49z"/>
<path d="M1094 675 c-8 -20 13 -45 37 -45 11 0 19 -4 19 -10 0 -5 -14 -10 -32
-10 -23 0 -29 -3 -21 -11 6 -6 23 -9 39 -7 21 2 30 9 32 26 3 18 -2 23 -27 28
-40 8 -40 24 0 24 17 0 28 4 24 10 -10 16 -65 12 -71 -5z"/>
<path d="M1190 659 c0 -52 15 -69 60 -67 l40 1 0 49 c0 56 -17 65 -22 11 -3
-33 -6 -38 -28 -38 -22 0 -25 5 -28 38 -4 44 -22 50 -22 6z"/>
<path d="M1457 672 c-22 -24 -21 -45 1 -65 21 -19 57 -22 67 -7 4 6 -6 10 -24
10 -16 0 -33 5 -36 10 -4 6 10 10 34 10 33 0 41 4 41 18 0 41 -54 57 -83 24z
m63 -12 c0 -5 -14 -10 -31 -10 -17 0 -28 4 -24 10 3 6 17 10 31 10 13 0 24 -4
24 -10z"/>
<path d="M1620 680 c0 -5 14 -10 30 -10 17 0 30 -4 30 -10 0 -5 -11 -10 -24
-10 -29 0 -49 -22 -40 -44 4 -11 17 -15 45 -14 38 1 39 2 39 38 0 20 -5 41
-12 48 -14 14 -68 16 -68 2z m60 -59 c0 -12 -29 -23 -41 -15 -18 10 -9 24 16
24 14 0 25 -4 25 -9z"/>
<path d="M1730 675 c-16 -19 3 -45 31 -45 11 0 19 -4 19 -10 0 -5 -14 -10 -32
-10 -23 0 -29 -3 -21 -11 18 -18 68 -7 71 17 2 16 -5 25 -30 35 l-33 13 33 3
c17 3 32 8 32 14 0 15 -56 10 -70 -6z"/>
<path d="M1880 639 c0 -27 5 -49 10 -49 6 0 10 16 10 35 0 22 6 38 15 41 23 9
18 22 -10 22 -23 0 -25 -4 -25 -49z"/>
<path d="M1962 678 c-7 -7 -12 -24 -12 -38 0 -14 5 -31 12 -38 15 -15 64 -16
73 -2 4 6 -6 10 -24 10 -16 0 -33 5 -36 10 -4 6 10 10 34 10 29 0 41 4 41 14
0 37 -61 61 -88 34z m63 -18 c4 -6 -7 -10 -25 -10 -18 0 -29 4 -25 10 3 6 15
10 25 10 10 0 22 -4 25 -10z"/>
<path d="M2076 674 c-22 -21 -20 -40 5 -65 15 -15 28 -19 46 -14 18 4 24 2 20
-7 -2 -8 -19 -13 -41 -12 -37 1 -48 -9 -20 -20 54 -21 84 7 84 78 l0 53 -39 1
c-25 1 -46 -4 -55 -14z m69 -28 c0 -30 -31 -44 -51 -24 -24 24 -11 50 23 46
20 -2 28 -9 28 -22z"/>
<path d="M2200 638 c0 -26 5 -48 10 -48 6 0 10 15 10 34 0 24 7 38 23 49 22
15 22 15 -10 15 -33 -1 -33 -2 -33 -50z"/>
<path d="M2280 680 c0 -5 14 -10 30 -10 17 0 30 -4 30 -10 0 -5 -11 -10 -24
-10 -29 0 -49 -22 -40 -44 4 -11 17 -15 45 -14 38 1 39 2 39 38 0 20 -5 41
-12 48 -14 14 -68 16 -68 2z m60 -59 c0 -12 -29 -23 -41 -15 -18 10 -9 24 16
24 14 0 25 -4 25 -9z"/>
<path d="M2390 675 c-16 -19 3 -45 31 -45 11 0 19 -4 19 -10 0 -5 -14 -10 -32
-10 -23 0 -29 -3 -21 -11 18 -18 68 -7 71 17 2 16 -5 25 -30 35 l-33 13 33 3
c17 3 32 8 32 14 0 15 -56 10 -70 -6z"/>
<path d="M2540 618 c0 -44 4 -67 10 -63 6 3 10 14 10 24 0 14 6 17 25 13 33
-6 55 14 55 48 0 36 -18 50 -63 48 l-37 -1 0 -69z m75 22 c0 -18 -6 -26 -23
-28 -13 -2 -25 3 -28 12 -10 26 4 48 28 44 17 -2 23 -10 23 -28z"/>
<path d="M2665 680 c-4 -6 6 -10 24 -10 16 0 33 -4 36 -10 3 -6 -4 -10 -17
-10 -33 0 -51 -14 -46 -36 2 -15 13 -19 46 -20 l42 -2 0 37 c0 20 -5 42 -12
49 -15 15 -64 16 -73 2z m53 -66 c-9 -9 -21 -13 -27 -10 -20 13 -11 26 16 26
25 0 26 -1 11 -16z"/>
<path d="M2780 639 c0 -27 5 -49 10 -49 6 0 10 16 10 35 0 22 6 38 15 41 23 9
18 22 -10 22 -23 0 -25 -4 -25 -49z"/>
<path d="M2855 680 c-4 -6 6 -10 24 -10 16 0 33 -4 36 -10 3 -6 -4 -10 -17
-10 -33 0 -51 -14 -46 -36 2 -15 13 -19 46 -20 l42 -2 0 37 c0 20 -5 42 -12
49 -15 15 -64 16 -73 2z m53 -66 c-9 -9 -21 -13 -27 -10 -20 13 -11 26 16 26
25 0 26 -1 11 -16z"/>
<path d="M3090 639 c0 -27 5 -49 10 -49 6 0 10 16 10 35 0 22 6 38 15 41 23 9
18 22 -10 22 -23 0 -25 -4 -25 -49z"/>
<path d="M3172 678 c-7 -7 -12 -24 -12 -38 0 -14 5 -31 12 -38 15 -15 64 -16
73 -2 4 6 -6 10 -24 10 -16 0 -33 5 -36 10 -4 6 10 10 34 10 29 0 41 4 41 14
0 37 -61 61 -88 34z m63 -18 c4 -6 -7 -10 -25 -10 -18 0 -29 4 -25 10 3 6 15
10 25 10 10 0 22 -4 25 -10z"/>
<path d="M3366 674 c-32 -32 -8 -84 39 -84 13 0 27 5 30 10 4 6 -6 10 -24 10
-16 0 -33 5 -36 10 -4 6 10 10 34 10 42 0 48 8 31 41 -13 23 -53 25 -74 3z
m59 -14 c4 -6 -7 -10 -25 -10 -18 0 -29 4 -25 10 3 6 15 10 25 10 10 0 22 -4
25 -10z"/>
<path d="M3532 678 c-32 -32 11 -98 53 -82 13 5 16 3 13 -7 -3 -8 -18 -14 -36
-14 -18 0 -32 -3 -32 -7 0 -14 48 -20 69 -8 18 9 21 20 21 68 l0 57 -38 3
c-21 1 -43 -3 -50 -10z m66 -35 c-3 -32 -44 -46 -54 -19 -10 26 4 46 31 46 23
0 26 -4 23 -27z"/>
<path d="M3660 639 c0 -27 5 -49 10 -49 6 0 10 16 10 35 0 22 6 38 15 41 23 9
18 22 -10 22 -23 0 -25 -4 -25 -49z"/>
<path d="M3735 681 c-4 -7 5 -11 24 -11 40 0 40 -16 0 -24 -25 -5 -30 -10 -27
-28 2 -19 10 -23 41 -24 l38 -1 -3 46 c-3 44 -5 46 -35 49 -17 2 -34 -2 -38
-7z m53 -67 c-9 -9 -21 -13 -27 -10 -20 13 -11 26 16 26 25 0 26 -1 11 -16z"/>
<path d="M3920 640 c0 -27 5 -50 10 -50 6 0 10 23 10 50 0 28 -4 50 -10 50 -5
0 -10 -22 -10 -50z"/>
<path d="M3974 675 c-8 -20 13 -45 37 -45 11 0 19 -4 19 -10 0 -5 -14 -10 -32
-10 -23 0 -29 -3 -21 -11 6 -6 23 -9 39 -7 21 2 30 9 32 26 3 18 -2 23 -27 28
-40 8 -40 24 0 24 17 0 28 4 24 10 -10 16 -65 12 -71 -5z"/>
<path d="M4132 678 c-7 -7 -12 -24 -12 -38 0 -14 5 -31 12 -38 15 -15 64 -16
73 -2 4 6 -8 10 -29 10 -20 0 -36 5 -36 10 0 6 15 10 34 10 42 0 50 10 30 38
-17 24 -53 29 -72 10z m58 -18 c0 -5 -11 -10 -25 -10 -14 0 -25 5 -25 10 0 6
11 10 25 10 14 0 25 -4 25 -10z"/>
<path d="M4293 640 c11 -27 26 -50 32 -50 6 0 21 23 32 50 12 28 17 50 12 50
-6 0 -17 -17 -26 -37 l-15 -38 -19 38 c-29 55 -41 45 -16 -13z"/>
<path d="M4395 680 c-4 -6 6 -10 24 -10 16 0 33 -4 36 -10 3 -6 -4 -10 -17
-10 -33 0 -51 -14 -46 -36 2 -15 13 -19 46 -20 l42 -2 0 37 c0 20 -5 42 -12
49 -15 15 -64 16 -73 2z m53 -66 c-9 -9 -21 -13 -27 -10 -20 13 -11 26 16 26
25 0 26 -1 11 -16z"/>
<path d="M4560 640 c0 -27 5 -50 10 -50 6 0 10 23 10 50 0 28 -4 50 -10 50 -5
0 -10 -22 -10 -50z"/>
<path d="M4745 681 c-4 -7 5 -11 24 -11 40 0 40 -16 0 -24 -25 -5 -30 -10 -27
-28 2 -19 10 -23 41 -24 l38 -1 -3 46 c-3 44 -5 46 -35 49 -17 2 -34 -2 -38
-7z m53 -67 c-9 -9 -21 -13 -27 -10 -20 13 -11 26 16 26 25 0 26 -1 11 -16z"/>
<path d="M4992 678 c-7 -7 -12 -24 -12 -38 0 -14 5 -31 12 -38 15 -15 64 -16
73 -2 4 6 -6 10 -24 10 -16 0 -33 5 -36 10 -4 6 10 10 34 10 29 0 41 4 41 14
0 37 -61 61 -88 34z m63 -18 c4 -6 -7 -10 -25 -10 -18 0 -29 4 -25 10 3 6 15
10 25 10 10 0 22 -4 25 -10z"/>
<path d="M5285 681 c-4 -7 5 -11 24 -11 17 0 31 -4 31 -10 0 -5 -11 -10 -25
-10 -29 0 -50 -31 -33 -48 7 -7 27 -12 46 -12 l33 0 -3 48 c-3 45 -5 47 -35
50 -17 2 -34 -2 -38 -7z m55 -60 c0 -12 -29 -23 -41 -15 -18 10 -9 24 16 24
14 0 25 -4 25 -9z"/>
<path d="M5440 624 c0 -35 5 -66 10 -69 6 -3 10 4 10 18 0 20 4 23 28 19 51
-7 81 47 46 82 -9 10 -30 15 -55 14 l-39 -1 0 -63z m85 16 c0 -20 -6 -26 -26
-28 -28 -3 -43 16 -32 44 3 9 15 14 32 12 20 -2 26 -8 26 -28z"/>
<path d="M5570 638 c0 -26 5 -48 10 -48 6 0 10 11 10 24 0 35 10 56 26 56 8 0
14 4 14 9 0 5 -13 9 -30 9 -29 -1 -30 -3 -30 -50z"/>
<path d="M5657 672 c-22 -24 -21 -45 1 -65 24 -22 55 -21 75 1 22 24 21 45 -1
65 -24 22 -55 21 -75 -1z m68 -22 c8 -27 -1 -40 -30 -40 -25 0 -38 21 -29 45
9 22 51 19 59 -5z"/>
<path d="M5770 639 c0 -57 17 -66 22 -12 5 65 57 56 58 -9 0 -16 5 -28 10 -28
6 0 10 18 10 41 0 36 2 40 23 37 18 -2 23 -10 25 -40 2 -21 7 -38 13 -38 14 0
11 76 -3 88 -7 5 -46 10 -85 9 l-73 0 0 -48z"/>
<path d="M5977 672 c-22 -24 -21 -45 1 -65 24 -22 55 -21 75 1 22 24 21 45 -1
65 -24 22 -55 21 -75 -1z m68 -22 c8 -27 -1 -40 -30 -40 -25 0 -38 21 -29 45
9 22 51 19 59 -5z"/>
<path d="M6097 672 c-24 -26 -21 -42 13 -79 26 -27 27 -32 12 -36 -12 -3 -10
-5 7 -6 18 -1 22 3 18 18 -3 12 1 22 9 25 25 10 15 23 -15 18 -33 -5 -45 9
-36 39 6 17 13 20 36 17 18 -3 28 -1 26 6 -6 19 -52 18 -70 -2z"/>
<path d="M6200 680 c0 -5 14 -10 30 -10 17 0 30 -4 30 -10 0 -5 -11 -10 -24
-10 -29 0 -49 -22 -40 -44 4 -11 17 -15 45 -14 38 1 39 2 39 38 0 20 -5 41
-12 48 -14 14 -68 16 -68 2z m60 -59 c0 -12 -29 -23 -41 -15 -18 10 -9 24 16
24 14 0 25 -4 25 -9z"/>
<path d="M6317 672 c-22 -24 -21 -45 1 -65 24 -22 55 -21 75 1 22 24 21 45 -1
65 -24 22 -55 21 -75 -1z m68 -22 c8 -27 -1 -40 -30 -40 -25 0 -38 21 -29 45
9 22 51 19 59 -5z"/>
<path d="M132 247 l-133 -133 3 -52 3 -52 185 185 185 185 -55 0 -55 0 -133
-133z"/>
<path d="M555 190 l-190 -190 55 0 55 0 190 190 190 190 -55 0 -55 0 -190
-190z"/>
<path d="M1025 190 l-190 -190 60 0 60 0 190 190 190 190 -60 0 -60 0 -190
-190z"/>
<path d="M1505 190 l-190 -190 60 0 60 0 190 190 190 190 -60 0 -60 0 -190
-190z"/>
<path d="M1985 190 l-190 -190 60 0 60 0 190 190 190 190 -60 0 -60 0 -190
-190z"/>
<path d="M2465 190 l-190 -190 60 0 60 0 190 190 190 190 -60 0 -60 0 -190
-190z"/>
<path d="M2945 190 l-190 -190 55 0 55 1 195 189 195 189 -60 1 -60 0 -190
-190z"/>
<path d="M3425 190 l-190 -190 55 0 55 0 190 190 190 190 -55 0 -55 0 -190
-190z"/>
<path d="M3905 190 l-190 -190 55 0 55 0 190 190 190 190 -55 0 -55 0 -190
-190z"/>
<path d="M4375 190 l-190 -190 60 0 60 0 190 190 190 190 -60 0 -60 0 -190
-190z"/>
<path d="M4855 190 l-190 -190 60 0 60 0 190 190 190 190 -60 0 -60 0 -190
-190z"/>
<path d="M5335 190 l-190 -190 60 0 60 0 190 190 190 190 -60 0 -60 0 -190
-190z"/>
<path d="M5815 190 l-190 -190 55 0 55 0 190 190 190 190 -55 0 -55 0 -190
-190z"/>
<path d="M16190 365 c-7 -8 -24 -15 -39 -15 -20 0 -46 -20 -105 -79 l-79 -79
12 -49 c7 -26 20 -69 29 -96 l16 -47 56 0 55 0 175 175 175 175 -99 0 c-86 0
-97 2 -86 15 11 13 5 15 -43 15 -36 0 -59 -5 -67 -15z"/>
<path d="M16670 365 c-7 -8 -24 -15 -39 -15 -21 0 -63 -37 -201 -175 l-175
-175 180 0 180 0 175 175 175 175 -99 0 c-86 0 -97 2 -86 15 11 13 5 15 -43
15 -36 0 -59 -5 -67 -15z"/>
<path d="M17150 365 c-7 -8 -27 -15 -44 -15 -27 0 -54 -23 -206 -175 l-175
-175 185 0 185 0 175 175 175 175 -99 0 c-86 0 -97 2 -86 15 11 13 5 15 -43
15 -36 0 -59 -5 -67 -15z"/>
<path d="M17630 365 c-7 -8 -27 -15 -44 -15 -27 0 -54 -23 -206 -175 l-175
-175 185 0 185 0 175 175 175 175 -99 0 c-86 0 -97 2 -86 15 11 13 5 15 -43
15 -36 0 -59 -5 -67 -15z"/>
<path d="M18110 365 c-7 -8 -27 -15 -44 -15 -27 0 -54 -23 -206 -175 l-175
-175 183 0 183 0 169 166 c94 92 170 171 170 175 0 5 -43 9 -96 9 -85 0 -95 2
-84 15 11 13 6 15 -38 15 -32 0 -54 -5 -62 -15z"/>
<path d="M18580 365 c-7 -8 -24 -15 -39 -15 -21 0 -63 -37 -201 -175 l-175
-175 180 0 180 0 175 175 175 175 -99 0 c-86 0 -97 2 -86 15 11 13 5 15 -43
15 -36 0 -59 -5 -67 -15z"/>
<path d="M19060 365 c-7 -8 -24 -15 -39 -15 -21 0 -63 -37 -201 -175 l-175
-175 180 0 180 0 98 98 97 97 0 78 c0 72 -1 77 -21 77 -18 0 -19 2 -9 15 11
13 5 15 -43 15 -36 0 -59 -5 -67 -15z"/>
<path d="M15946 328 c9 -33 12 -33 34 -13 28 25 25 35 -11 35 -27 0 -30 -3
-23 -22z"/>
<path d="M6245 140 l-140 -140 55 0 55 0 88 88 88 89 -3 52 -3 51 -140 -140z"/>
<path d="M19160 35 l-34 -35 37 0 c36 0 37 1 37 35 0 19 -1 35 -3 35 -2 0 -18
-16 -37 -35z"/>
</g>
</svg>
