<?xml version="1.0" standalone="no"?>
<!DOCTYPE svg PUBLIC "-//W3C//DTD SVG 20010904//EN"
 "http://www.w3.org/TR/2001/REC-SVG-20010904/DTD/svg10.dtd">
<svg version="1.0" xmlns="http://www.w3.org/2000/svg"
 width="1920.000000pt" height="578.000000pt" viewBox="0 0 1920.000000 578.000000"
 preserveAspectRatio="xMidYMid meet">

<g transform="translate(0.000000,578.000000) scale(0.100000,-0.100000)"
fill="#000000" stroke="none">
<path d="M1740 4650 l-21 -30 21 0 c11 0 32 8 46 17 25 16 25 17 8 30 -25 18
-30 17 -54 -17z"/>
<path d="M1242 4518 c-34 -79 -62 -146 -62 -150 0 -5 11 -8 24 -8 19 0 27 8
36 35 l12 35 74 0 74 0 17 -35 c12 -25 23 -35 40 -35 13 0 23 3 23 8 0 4 -28
70 -63 147 -54 122 -65 140 -87 143 -23 3 -29 -7 -88 -140z m107 38 c39 -88
39 -86 -23 -86 l-55 0 27 65 c15 36 28 65 29 65 1 0 11 -20 22 -44z"/>
<path d="M1510 4610 c0 -20 -5 -30 -15 -30 -8 0 -15 -9 -15 -20 0 -11 7 -20
15 -20 12 0 15 -14 15 -68 0 -83 17 -112 63 -112 41 0 59 12 52 33 -4 9 -17
15 -33 14 -27 -2 -27 -1 -30 66 l-3 67 36 0 c28 0 35 4 35 20 0 16 -7 20 -35
20 -32 0 -35 2 -35 30 0 25 -4 30 -25 30 -21 0 -25 -5 -25 -30z"/>
<path d="M1704 4576 c-43 -19 -64 -53 -64 -104 0 -54 12 -77 52 -98 38 -20
112 -14 136 10 23 22 3 42 -26 27 -31 -17 -77 -13 -95 7 -10 10 -17 22 -17 25
0 4 36 7 80 7 l80 0 0 36 c0 48 -15 73 -55 90 -42 17 -51 17 -91 0z m84 -42
c42 -29 28 -44 -43 -44 -62 0 -65 1 -55 20 21 40 62 50 98 24z"/>
<path d="M11401 3971 c-13 -13 -22 -16 -29 -9 -6 6 -22 8 -35 4 l-24 -6 28
-142 c39 -196 37 -188 58 -188 45 0 49 7 36 68 l-11 57 42 -3 c70 -6 103 43
90 133 -10 65 -47 105 -97 105 -25 0 -46 -7 -58 -19z m68 -55 c19 -22 25 -84
11 -101 -30 -36 -80 6 -80 68 0 42 44 63 69 33z"/>
<path d="M10783 3953 c-13 -2 -23 -7 -23 -11 0 -12 61 -316 64 -319 1 -2 17 0
35 3 29 6 32 10 27 33 -3 14 -9 53 -12 86 -5 50 -4 63 11 75 12 10 21 11 33 4
18 -12 26 -33 42 -117 l12 -58 31 7 c18 3 33 7 34 8 2 1 -5 42 -14 90 -19 96
-44 136 -87 136 -29 0 -76 -19 -76 -32 0 -4 -4 -8 -10 -8 -5 0 -10 11 -10 24
0 42 -12 86 -24 85 -6 -1 -21 -4 -33 -6z"/>
<path d="M11124 3926 c-43 -19 -64 -53 -64 -104 0 -80 44 -132 113 -132 73 0
116 40 117 108 0 64 -23 110 -64 127 -43 18 -62 18 -102 1z m81 -70 c10 -15
15 -40 13 -63 -3 -34 -6 -38 -34 -41 -24 -2 -33 2 -42 23 -35 76 20 146 63 81z"/>
<path d="M10604 3900 c-43 -13 -68 -45 -68 -85 0 -47 35 -82 101 -101 40 -12
53 -20 53 -34 0 -29 -35 -43 -87 -35 l-44 6 7 -28 c10 -42 12 -43 54 -43 83 0
140 41 140 102 0 49 -23 72 -94 94 -30 10 -57 23 -60 29 -9 25 13 40 58 39 39
-1 45 2 51 24 3 13 4 26 1 29 -10 10 -83 12 -112 3z"/>
<path d="M2327 3871 c-134 -30 -227 -80 -324 -177 -46 -45 -83 -88 -83 -97 0
-9 57 -47 146 -97 l147 -81 46 45 c105 103 270 126 360 50 62 -51 62 -154 0
-247 -16 -24 -164 -169 -328 -323 l-300 -279 -1 -132 0 -133 758 0 757 1 105
144 c57 80 107 145 110 145 4 0 51 -65 105 -145 l99 -145 223 0 c123 0 223 2
223 4 0 2 -94 131 -210 285 -115 155 -210 286 -210 292 0 6 42 65 93 132 51
67 144 188 205 270 l113 147 -210 0 -209 0 -102 -140 c-71 -97 -106 -137 -114
-131 -6 5 -51 68 -101 140 l-90 130 -224 1 -223 0 24 -32 c116 -154 388 -527
388 -532 0 -4 -84 -118 -187 -253 l-188 -246 -3 132 -3 131 -277 0 -277 1 125
116 c344 321 385 385 385 598 0 104 -2 114 -33 177 -56 115 -171 203 -317 243
-96 26 -292 29 -398 6z"/>
<path d="M14102 3878 c-7 -7 -12 -18 -12 -25 0 -15 26 -18 35 -3 4 6 18 4 37
-6 31 -16 33 -16 50 6 31 38 19 53 -22 28 -15 -10 -22 -10 -32 0 -15 15 -41
15 -56 0z"/>
<path d="M17082 3878 c-7 -7 -12 -18 -12 -25 0 -15 26 -18 35 -3 4 6 18 4 37
-6 31 -16 33 -16 50 6 31 38 19 53 -22 28 -15 -10 -22 -10 -32 0 -15 15 -41
15 -56 0z"/>
<path d="M13760 3720 l0 -150 25 0 c24 0 24 1 27 102 l3 102 75 -102 c63 -86
79 -101 103 -102 l28 0 -3 148 c-3 143 -4 147 -25 150 -22 3 -22 0 -25 -104
l-3 -108 -80 107 c-60 82 -85 107 -102 107 -23 0 -23 0 -23 -150z"/>
<path d="M1190 3700 l0 -160 135 0 135 0 0 -570 0 -570 205 0 205 0 0 730 0
730 -340 0 -340 0 0 -160z"/>
<path d="M17511 3834 c-12 -15 -21 -33 -21 -40 0 -22 37 -16 43 6 9 36 87 22
87 -16 0 -6 -13 -28 -30 -49 -35 -44 -38 -65 -10 -65 11 0 20 5 20 11 0 6 14
27 30 46 59 67 31 133 -56 133 -34 0 -47 -5 -63 -26z"/>
<path d="M14647 3843 c-4 -3 -7 -16 -7 -29 0 -12 -7 -24 -15 -28 -19 -7 -20
-36 -1 -36 9 0 15 -22 19 -77 4 -57 10 -81 23 -90 20 -15 63 -17 83 -4 19 12
6 45 -15 37 -30 -11 -44 13 -44 75 l0 59 35 0 c28 0 35 4 35 20 0 16 -7 20
-35 20 -32 0 -35 2 -35 30 0 22 -5 30 -18 30 -10 0 -22 -3 -25 -7z"/>
<path d="M16907 3843 c-4 -3 -7 -17 -7 -31 0 -20 -4 -23 -24 -18 -15 4 -32 -1
-49 -14 -25 -20 -25 -20 -30 0 -3 12 -14 20 -26 20 -20 0 -21 -5 -21 -115 l0
-115 25 0 c24 0 25 2 25 70 0 80 19 110 69 110 28 0 28 0 34 -77 4 -57 10 -81
23 -90 20 -15 63 -17 83 -4 19 12 6 45 -15 37 -30 -11 -44 13 -44 75 l0 59 35
0 c28 0 35 4 35 20 0 16 -7 20 -35 20 -32 0 -35 2 -35 30 0 22 -5 30 -18 30
-10 0 -22 -3 -25 -7z"/>
<path d="M14102 3785 c-19 -8 -32 -20 -29 -27 4 -14 13 -14 63 -3 26 6 37 2
55 -16 l24 -24 -58 -7 c-71 -9 -95 -22 -103 -54 -15 -58 67 -105 128 -73 16 9
23 9 26 0 2 -6 12 -11 23 -11 17 0 19 8 19 93 0 80 -3 96 -19 111 -27 24 -89
29 -129 11z m108 -123 c0 -4 -7 -18 -16 -30 -18 -26 -81 -31 -90 -7 -13 32 4
45 56 45 27 0 50 -3 50 -8z"/>
<path d="M14343 3785 c-105 -45 -67 -215 48 -215 76 0 118 39 119 110 0 54
-20 87 -66 106 -41 17 -60 17 -101 -1z m116 -72 c21 -46 -12 -103 -61 -103
-54 0 -85 60 -57 111 24 45 96 40 118 -8z"/>
<path d="M14834 3786 c-42 -19 -64 -53 -64 -99 0 -76 42 -117 119 -117 46 0
93 32 75 50 -9 9 -17 9 -32 1 -31 -17 -77 -13 -95 7 -10 10 -17 21 -17 25 0 3
37 7 83 9 l82 3 -2 40 c-5 72 -79 113 -149 81z m84 -42 c41 -29 28 -44 -38
-44 -46 0 -60 3 -60 14 0 17 38 46 60 46 9 0 26 -7 38 -16z"/>
<path d="M15020 3685 l0 -115 25 0 c24 0 25 2 25 73 0 82 15 107 61 107 41 0
49 -18 49 -102 0 -77 0 -78 25 -78 24 0 25 2 25 70 0 78 19 110 64 110 39 0
56 -35 56 -112 0 -67 0 -68 26 -68 l27 0 -5 91 c-5 75 -9 95 -27 112 -30 30
-92 29 -124 -1 -21 -20 -25 -21 -30 -7 -11 26 -57 38 -99 25 -21 -6 -38 -16
-39 -23 0 -7 -4 -2 -9 11 -6 12 -18 22 -30 22 -19 0 -20 -6 -20 -115z"/>
<path d="M15527 3793 c-11 -11 -8 -137 4 -172 19 -54 84 -69 133 -30 l26 20 0
-20 c0 -16 6 -21 25 -21 l26 0 -3 113 c-3 106 -4 112 -24 115 -20 3 -22 -2
-26 -72 -4 -79 -13 -98 -55 -110 -15 -5 -28 -1 -42 13 -18 18 -21 34 -21 96 0
66 -2 75 -18 75 -10 0 -22 -3 -25 -7z"/>
<path d="M15790 3685 l0 -115 25 0 c24 0 25 2 25 73 0 82 15 107 61 107 41 0
49 -18 49 -102 0 -77 0 -78 25 -78 24 0 25 2 25 70 0 78 19 110 64 110 39 0
56 -35 56 -112 0 -67 0 -68 26 -68 l27 0 -5 91 c-5 75 -9 95 -27 112 -30 30
-92 29 -124 -1 -21 -20 -25 -21 -30 -7 -11 26 -57 38 -99 25 -21 -6 -38 -16
-39 -23 0 -7 -4 -2 -9 11 -6 12 -18 22 -30 22 -19 0 -20 -6 -20 -115z"/>
<path d="M16343 3785 c-107 -46 -67 -215 51 -215 51 0 99 30 80 50 -9 9 -17 9
-32 1 -74 -40 -144 38 -96 107 17 25 81 31 102 10 10 -10 15 -10 22 2 15 24
12 30 -25 46 -42 17 -61 17 -102 -1z"/>
<path d="M16552 3785 c-19 -8 -32 -20 -29 -27 4 -14 13 -14 63 -3 26 6 37 2
55 -16 l24 -24 -58 -7 c-71 -9 -95 -22 -103 -54 -15 -58 67 -105 128 -73 16 9
23 9 26 0 2 -6 12 -11 23 -11 17 0 19 8 19 93 0 80 -3 96 -19 111 -27 24 -89
29 -129 11z m108 -123 c0 -4 -7 -18 -16 -30 -18 -26 -81 -31 -90 -7 -13 32 4
45 56 45 27 0 50 -3 50 -8z"/>
<path d="M17082 3785 c-19 -8 -32 -20 -29 -27 4 -14 13 -14 63 -3 26 6 37 2
55 -16 l24 -24 -58 -7 c-71 -9 -95 -22 -103 -54 -15 -58 67 -105 128 -73 16 9
23 9 26 0 2 -6 12 -11 23 -11 17 0 19 8 19 93 0 80 -3 96 -19 111 -27 24 -89
29 -129 11z m108 -123 c0 -4 -7 -18 -16 -30 -18 -26 -81 -31 -90 -7 -13 32 4
45 56 45 27 0 50 -3 50 -8z"/>
<path d="M17324 3786 c-43 -19 -64 -53 -64 -104 0 -37 6 -50 34 -78 29 -29 41
-34 81 -34 40 0 52 5 81 34 28 28 34 41 34 78 0 52 -21 85 -66 104 -41 17 -60
17 -100 0z m99 -54 c26 -23 23 -87 -5 -106 -51 -36 -108 -7 -108 53 0 69 61
97 113 53z"/>
<path d="M10351 3773 c-16 -3 -28 -17 -39 -44 l-15 -40 -31 30 c-25 23 -37 28
-63 24 -18 -3 -33 -8 -33 -11 0 -4 20 -27 45 -52 l45 -46 -25 -63 c-15 -35
-24 -65 -22 -68 3 -2 19 0 37 4 26 7 36 17 50 52 l17 44 28 -36 c22 -31 32
-36 54 -31 56 12 56 13 3 67 l-51 52 18 41 c39 87 39 88 -18 77z"/>
<path d="M9823 3763 c-28 -5 -28 0 2 -158 38 -199 31 -184 78 -166 l24 10 -31
157 c-17 87 -36 158 -41 159 -6 1 -20 0 -32 -2z"/>
<path d="M11528 3743 c-34 -5 -38 -33 -5 -33 37 0 68 12 64 24 -4 13 -20 15
-59 9z"/>
<path d="M9680 3713 c-36 -7 -74 -15 -86 -18 l-21 -5 19 -97 c39 -208 38 -203
61 -203 43 0 50 13 38 69 -6 29 -11 54 -11 56 0 2 20 7 45 11 51 7 59 15 50
45 -6 18 -14 20 -58 17 -52 -3 -52 -3 -55 29 -3 31 -2 32 43 39 49 7 64 23 49
53 -8 16 -14 17 -74 4z"/>
<path d="M10014 3706 c-61 -27 -81 -96 -50 -171 21 -49 56 -69 116 -63 66 7
99 29 93 62 -5 22 -8 24 -26 15 -38 -21 -79 -29 -98 -18 -38 20 -21 37 51 50
79 14 87 27 50 87 -31 50 -78 63 -136 38z m80 -65 c6 -9 -26 -21 -56 -21 -23
0 -23 26 -1 39 17 9 46 0 57 -18z"/>
<path d="M10465 3531 c-658 -130 -840 -170 -840 -181 0 -8 7 -14 15 -13 19 2
1648 323 1678 330 26 6 30 33 5 32 -10 0 -396 -76 -858 -168z"/>
<path d="M17554 3605 c-4 -9 -2 -21 4 -27 15 -15 44 -1 40 19 -4 23 -36 29
-44 8z"/>
<path d="M13855 3150 c-105 -41 -206 -143 -246 -250 -79 -209 16 -443 221
-543 l65 -32 1780 -3 c1610 -2 1784 -1 1834 14 195 56 325 247 307 449 -13
143 -112 288 -241 351 l-60 29 -1805 2 c-1767 2 -1806 2 -1855 -17z m3598 -20
c213 -34 360 -247 317 -455 -31 -148 -137 -264 -277 -300 -87 -23 -3500 -23
-3587 0 -112 29 -200 106 -253 222 -37 79 -39 209 -4 296 45 113 171 217 287
237 71 11 3446 12 3517 0z"/>
<path d="M14457 2903 c-15 -14 -7 -43 12 -43 26 0 36 17 21 35 -14 16 -23 19
-33 8z"/>
<path d="M14360 2765 c0 -128 1 -135 20 -135 19 0 20 7 20 135 0 128 -1 135
-20 135 -19 0 -20 -7 -20 -135z"/>
<path d="M14184 2876 c-17 -8 -40 -26 -52 -41 -66 -84 -7 -205 101 -205 44 0
100 26 94 43 -4 12 -14 12 -87 1 -82 -13 -124 95 -59 150 35 30 74 33 108 10
19 -14 25 -14 32 -3 14 23 11 29 -26 45 -42 17 -71 17 -111 0z"/>
<path d="M14450 2730 c0 -93 1 -100 20 -100 19 0 20 7 20 100 0 93 -1 100 -20
100 -19 0 -20 -7 -20 -100z"/>
<path d="M14563 2811 c-77 -47 -41 -181 49 -181 16 0 38 5 49 10 17 10 19 7
19 -35 0 -41 2 -45 25 -45 l25 0 0 130 c0 112 -2 132 -16 137 -10 4 -22 0 -28
-9 -10 -14 -14 -14 -31 -2 -26 19 -54 17 -92 -5z m99 -38 c27 -24 24 -79 -7
-99 -29 -19 -60 -11 -81 21 -39 59 35 126 88 78z"/>
<path d="M14770 2750 c0 -67 3 -83 20 -100 24 -24 67 -26 98 -4 20 14 22 14
22 0 0 -9 9 -16 20 -16 19 0 20 7 20 100 0 93 -1 100 -20 100 -18 0 -20 -7
-20 -63 0 -69 -17 -97 -56 -97 -34 0 -44 21 -44 92 0 61 -2 68 -20 68 -18 0
-20 -7 -20 -80z"/>
<path d="M15033 2816 c-93 -42 -59 -186 45 -186 47 0 99 34 70 45 -9 4 -26 1
-38 -5 -28 -15 -66 -5 -80 20 -10 19 -7 20 66 20 l77 0 -6 37 c-11 67 -70 97
-134 69z m85 -38 c26 -26 13 -38 -43 -38 -57 0 -66 8 -39 34 18 19 65 21 82 4z"/>
<path d="M15314 2820 c-78 -31 -70 -166 11 -186 31 -8 92 3 101 17 12 20 -11
29 -43 17 -26 -10 -35 -9 -57 5 -42 28 -31 37 44 37 81 0 89 8 66 64 -20 49
-69 67 -122 46z m86 -49 c15 -30 14 -31 -45 -31 -38 0 -55 4 -55 13 0 39 81
53 100 18z"/>
<path d="M15557 2823 c-4 -3 -7 -64 -7 -135 l0 -128 25 0 c23 0 25 4 25 45 0
42 2 45 19 35 33 -17 78 -11 108 14 57 49 27 155 -49 171 -19 5 -37 1 -52 -9
-21 -13 -25 -13 -30 -1 -6 16 -28 20 -39 8z m137 -49 c20 -20 21 -78 1 -94 -8
-7 -26 -12 -40 -12 -36 0 -55 20 -55 58 0 38 22 64 55 64 13 0 31 -7 39 -16z"/>
<path d="M15824 2820 c-78 -31 -70 -166 11 -186 31 -8 92 3 101 17 12 20 -11
29 -43 17 -26 -10 -35 -9 -57 5 -42 28 -31 37 44 37 81 0 89 8 66 64 -20 49
-69 67 -122 46z m86 -49 c15 -30 14 -31 -45 -31 -38 0 -55 4 -55 13 0 39 81
53 100 18z"/>
<path d="M16024 2821 c-76 -32 -71 -162 6 -186 12 -4 19 -13 16 -20 -2 -7 2
-16 10 -19 9 -3 12 -11 9 -17 -4 -6 -13 -8 -21 -5 -8 3 -14 -1 -14 -9 0 -21
49 -19 57 1 3 9 1 25 -6 36 -10 17 -8 20 24 34 19 8 35 21 35 29 0 18 -17 28
-25 15 -3 -5 -24 -10 -45 -10 -43 0 -60 18 -60 63 0 45 67 76 98 45 9 -9 15
-9 24 0 29 29 -60 63 -108 43z"/>
<path d="M16202 2819 c-50 -15 -35 -35 23 -31 32 3 50 0 56 -10 15 -22 11 -25
-41 -30 -59 -6 -80 -21 -80 -58 0 -50 60 -77 111 -50 13 7 19 7 19 0 0 -5 9
-10 20 -10 18 0 20 7 20 79 0 74 -2 81 -26 100 -29 23 -50 25 -102 10z m88
-119 c0 -10 -9 -24 -21 -30 -29 -16 -69 -4 -69 19 0 23 13 29 58 30 25 1 32
-3 32 -19z"/>
<path d="M16495 2821 c-100 -43 -69 -191 40 -191 91 0 136 108 71 169 -26 24
-81 35 -111 22z m80 -47 c25 -26 16 -85 -16 -103 -24 -13 -29 -13 -53 2 -49
32 -28 117 29 117 13 0 31 -7 40 -16z"/>
<path d="M16760 2817 c-18 -9 -26 -22 -28 -45 -3 -31 0 -34 47 -55 51 -21 65
-42 36 -53 -8 -3 -29 -1 -47 5 -21 8 -35 8 -42 1 -30 -30 77 -53 119 -26 47
31 28 78 -42 106 -18 7 -33 19 -33 28 0 11 9 14 44 10 53 -6 73 16 30 32 -33
13 -54 12 -84 -3z"/>
<path d="M16933 2814 c-60 -30 -69 -122 -16 -164 31 -24 89 -26 122 -4 31 22
13 37 -27 23 -26 -9 -37 -8 -57 5 -41 27 -29 36 45 36 l70 0 0 29 c0 65 -75
106 -137 75z m91 -46 c15 -24 5 -30 -53 -26 l-52 3 17 23 c19 27 71 27 88 0z"/>
<path d="M17090 2750 c0 -67 3 -83 20 -100 24 -24 67 -26 98 -4 20 14 22 14
22 0 0 -9 9 -16 20 -16 19 0 20 7 20 101 0 90 -2 100 -17 97 -14 -3 -19 -17
-23 -71 -5 -71 -15 -87 -57 -87 -31 0 -43 28 -43 99 0 54 -2 61 -20 61 -18 0
-20 -7 -20 -80z"/>
<path d="M4858 3099 c-39 -22 -17 -71 45 -97 56 -24 22 -55 -36 -33 -19 8 -27
6 -31 -4 -7 -19 24 -35 66 -35 48 0 70 19 66 55 -2 24 -12 34 -45 50 -56 26
-58 50 -4 42 28 -3 41 -1 45 8 9 25 -71 35 -106 14z"/>
<path d="M5013 3095 c-28 -19 -39 -76 -23 -114 19 -47 94 -67 135 -38 24 18
11 41 -15 27 -28 -15 -55 -12 -73 8 -10 10 -17 22 -17 25 0 4 32 7 71 7 l72 0
-7 32 c-10 48 -33 68 -80 68 -23 0 -51 -7 -63 -15z m95 -27 c22 -22 13 -28
-38 -28 -48 0 -50 1 -40 20 12 23 59 27 78 8z"/>
<path d="M5180 3020 c0 -81 2 -90 19 -90 16 0 19 10 23 61 3 45 10 65 23 75
46 34 75 4 75 -77 0 -52 2 -59 20 -59 18 0 20 7 20 58 0 46 4 63 20 77 17 15
24 16 45 7 23 -11 25 -17 25 -77 0 -58 2 -65 20 -65 18 0 20 7 20 68 0 85 -16
112 -67 112 -20 0 -44 -7 -53 -15 -15 -14 -18 -14 -30 0 -15 18 -81 20 -99 3
-11 -10 -14 -10 -18 0 -3 6 -13 12 -24 12 -17 0 -19 -8 -19 -90z"/>
<path d="M7330 2999 c-19 -5 -47 -6 -61 -3 -21 4 -32 -1 -48 -22 -11 -15 -21
-36 -20 -48 1 -16 3 -14 10 9 8 29 33 55 52 55 5 0 -3 -10 -17 -21 -26 -20
-27 -26 -23 -78 3 -31 10 -74 16 -97 6 -23 13 -56 15 -75 3 -19 10 -52 15 -74
5 -22 10 -71 9 -110 0 -65 2 -71 31 -97 17 -15 41 -28 54 -28 29 0 127 28 107
30 -8 1 -4 6 10 10 18 5 7 7 -34 6 -59 -1 -60 0 -87 39 -35 49 -35 53 -4 61
38 9 31 31 -8 26 -32 -4 -33 -2 -46 48 -7 28 -12 53 -10 55 2 2 20 10 39 18
l35 15 -42 1 -43 1 0 59 c0 54 2 59 25 65 30 8 34 36 4 36 -14 0 -19 5 -16 14
3 8 9 30 12 49 6 28 13 36 48 49 45 18 33 21 -23 7z m-30 -502 c0 -10 12 -29
26 -43 14 -15 20 -24 13 -22 -19 6 -46 49 -53 83 -5 22 -4 26 4 15 5 -8 10
-23 10 -33z m137 -63 c-3 -3 -12 -4 -19 -1 -8 3 -5 6 6 6 11 1 17 -2 13 -5z"/>
<path d="M4853 2814 c-8 -21 13 -42 28 -27 13 13 5 43 -11 43 -6 0 -13 -7 -17
-16z"/>
<path d="M4850 2645 l0 -105 -26 0 c-19 0 -25 -5 -22 -17 5 -26 43 -28 67 -4
19 19 21 33 21 126 0 98 -1 105 -20 105 -19 0 -20 -7 -20 -105z"/>
<path d="M4930 2682 c0 -82 17 -112 62 -112 17 0 40 7 50 17 17 15 18 15 18 0
0 -10 8 -17 20 -17 19 0 20 7 20 90 0 83 -1 90 -20 90 -17 0 -20 -7 -20 -53 0
-66 -16 -90 -55 -85 -30 3 -30 4 -33 71 -3 59 -5 67 -22 67 -18 0 -20 -7 -20
-68z"/>
<path d="M5140 2660 c0 -83 1 -90 20 -90 17 0 20 7 20 50 0 41 5 56 25 75 13
14 29 25 35 25 5 0 10 7 10 15 0 20 -29 19 -52 -2 -17 -15 -18 -15 -18 0 0 10
-8 17 -20 17 -19 0 -20 -7 -20 -90z"/>
<path d="M5275 2725 c-36 -35 -35 -97 1 -130 36 -34 93 -34 131 -1 37 32 39
93 4 130 -34 36 -101 37 -136 1z m111 -31 c23 -34 9 -75 -28 -88 -35 -12 -68
15 -68 55 0 58 65 81 96 33z"/>
<path d="M5468 2739 c-39 -22 -17 -71 45 -97 56 -24 22 -55 -36 -33 -19 8 -27
6 -31 -4 -7 -19 24 -35 66 -35 48 0 70 19 66 55 -2 24 -12 34 -45 50 -56 26
-58 50 -4 42 28 -3 41 -1 45 8 9 25 -71 35 -106 14z"/>
<path d="M3342 1918 c-7 -7 -12 -18 -12 -25 0 -15 26 -18 35 -3 4 6 18 4 37
-6 31 -16 33 -16 50 6 31 38 19 53 -22 28 -15 -10 -22 -10 -32 0 -15 15 -41
15 -56 0z"/>
<path d="M4040 1865 l0 -56 -31 17 c-41 21 -93 11 -125 -23 -19 -21 -24 -37
-24 -80 0 -47 4 -59 29 -84 34 -33 91 -40 129 -13 20 14 22 14 22 0 0 -10 9
-16 25 -16 l25 0 0 155 0 155 -25 0 c-24 0 -25 -3 -25 -55z m-17 -93 c24 -21
22 -77 -3 -102 -54 -54 -141 12 -109 83 21 46 71 55 112 19z"/>
<path d="M3170 1861 c0 -27 -3 -29 -35 -28 -20 1 -42 -6 -55 -18 -20 -18 -20
-18 -20 4 0 17 -5 22 -22 19 -22 -3 -23 -7 -26 -115 l-3 -113 26 0 c24 0 25 2
25 70 0 83 18 110 75 110 l35 0 0 -73 c0 -87 16 -111 72 -105 25 2 34 8 36 25
3 18 -1 22 -25 20 -28 -2 -28 -2 -31 66 l-3 67 31 0 c23 0 30 4 30 20 0 16 -7
20 -30 20 -27 0 -30 3 -30 30 0 25 -4 30 -25 30 -21 0 -25 -5 -25 -29z"/>
<path d="M1210 1725 l0 -115 25 0 c24 0 25 2 25 73 0 84 17 111 66 105 38 -4
54 -38 54 -115 0 -56 2 -63 20 -63 18 0 20 7 20 88 0 97 -12 125 -56 136 -31
8 -94 -10 -95 -27 0 -7 -4 -2 -9 11 -6 12 -18 22 -30 22 -19 0 -20 -6 -20
-115z"/>
<path d="M1513 1825 c-105 -45 -67 -215 48 -215 76 0 118 39 119 110 0 54 -20
87 -66 106 -41 17 -60 17 -101 -1z m93 -43 c54 -36 27 -132 -38 -132 -57 0
-88 68 -52 118 15 22 66 30 90 14z"/>
<path d="M1831 1827 c-61 -31 -52 -92 17 -117 49 -18 67 -34 58 -49 -9 -14
-61 -14 -88 0 -16 9 -22 8 -29 -2 -13 -22 14 -41 65 -46 115 -13 143 93 34
129 -45 15 -62 43 -32 55 9 3 31 1 47 -5 24 -9 33 -9 39 1 13 20 10 24 -23 36
-41 14 -58 14 -88 -2z"/>
<path d="M2034 1826 c-43 -19 -64 -53 -64 -104 0 -54 12 -77 52 -98 38 -20
112 -14 136 10 23 22 3 42 -26 27 -31 -17 -77 -13 -95 7 -10 10 -17 22 -17 25
0 4 36 7 80 7 l80 0 0 36 c0 48 -15 73 -55 90 -42 17 -51 17 -91 0z m84 -42
c42 -29 28 -44 -43 -44 -62 0 -65 1 -55 20 21 40 62 50 98 24z"/>
<path d="M2210 1750 c0 -83 2 -93 25 -115 28 -29 79 -33 113 -9 20 14 22 14
22 0 0 -10 9 -16 25 -16 l25 0 0 116 c0 114 0 115 -22 112 -21 -3 -23 -9 -26
-63 -3 -85 -8 -100 -38 -114 -22 -9 -31 -9 -50 4 -20 13 -23 24 -26 92 -3 72
-5 78 -25 81 -22 3 -23 1 -23 -88z"/>
<path d="M2603 1824 c-100 -51 -65 -214 47 -214 46 0 103 25 97 43 -4 12 -12
12 -78 1 -31 -5 -39 -2 -58 21 -25 33 -27 62 -5 93 17 24 70 30 105 12 15 -9
21 -7 26 5 15 41 -78 68 -134 39z"/>
<path d="M2813 1826 c-24 -11 -31 -20 -27 -31 5 -12 13 -15 28 -10 54 17 67
17 86 0 11 -10 20 -21 20 -25 0 -4 -25 -10 -56 -13 -32 -3 -64 -13 -75 -23
-27 -24 -25 -79 3 -98 26 -18 80 -21 109 -6 13 7 19 7 19 0 0 -5 12 -10 26
-10 l26 0 -4 90 c-2 75 -6 93 -24 110 -27 27 -89 35 -131 16z m107 -130 c0
-44 -100 -65 -108 -22 -5 25 14 36 66 36 30 0 42 -4 42 -14z"/>
<path d="M3342 1825 c-19 -8 -32 -20 -29 -27 4 -14 13 -14 63 -3 26 6 37 2 55
-16 l24 -24 -58 -7 c-71 -9 -95 -22 -103 -54 -15 -58 67 -105 128 -73 16 9 23
9 26 0 2 -6 12 -11 23 -11 17 0 19 8 19 93 0 80 -3 96 -19 111 -27 24 -89 29
-129 11z m108 -123 c0 -4 -7 -18 -16 -30 -18 -26 -81 -31 -90 -7 -13 32 4 45
56 45 27 0 50 -3 50 -8z"/>
<path d="M3583 1825 c-105 -45 -67 -215 48 -215 76 0 118 39 119 110 0 54 -20
87 -66 106 -41 17 -60 17 -101 -1z m116 -72 c21 -46 -12 -103 -61 -103 -54 0
-85 60 -57 111 24 45 96 40 118 -8z"/>
<path d="M4183 1829 c-37 -11 -45 -20 -34 -38 7 -10 16 -10 48 -1 30 9 45 9
62 1 38 -21 25 -38 -35 -44 -65 -7 -94 -28 -94 -69 0 -56 73 -88 131 -58 13 7
19 7 19 0 0 -5 11 -10 25 -10 25 0 25 1 25 80 0 93 -12 125 -53 140 -35 12
-50 12 -94 -1z m97 -139 c0 -36 -75 -55 -100 -25 -20 25 5 45 56 45 37 0 44
-3 44 -20z"/>
<path d="M14066 1701 c-4 -5 -2 -12 3 -15 5 -4 12 -2 15 3 4 5 2 12 -3 15 -5
4 -12 2 -15 -3z"/>
<path d="M15050 1641 c0 -41 4 -71 10 -71 6 0 10 28 10 64 0 36 -4 68 -10 71
-6 4 -10 -20 -10 -64z"/>
<path d="M15105 1699 c-10 -15 3 -25 16 -12 7 7 7 13 1 17 -6 3 -14 1 -17 -5z"/>
<path d="M15220 1694 c0 -8 5 -12 10 -9 6 3 10 10 10 16 0 5 -4 9 -10 9 -5 0
-10 -7 -10 -16z"/>
<path d="M15590 1684 c0 -21 -4 -24 -20 -19 -31 10 -60 -12 -60 -44 0 -37 18
-51 63 -49 l37 1 0 69 c0 39 -4 68 -10 68 -5 0 -10 -12 -10 -26z m-5 -64 c0
-18 -6 -26 -23 -28 -24 -4 -38 18 -28 44 3 9 15 14 28 12 17 -2 23 -10 23 -28z"/>
<path d="M15790 1640 c0 -40 4 -70 10 -70 6 0 10 30 10 70 0 40 -4 70 -10 70
-6 0 -10 -30 -10 -70z"/>
<path d="M15846 1701 c-4 -5 -2 -12 3 -15 5 -4 12 -2 15 3 4 5 2 12 -3 15 -5
4 -12 2 -15 -3z"/>
<path d="M15890 1642 l0 -68 38 -1 c45 -1 62 11 62 47 0 35 -22 54 -55 46 -22
-6 -25 -3 -25 19 0 14 -4 25 -10 25 -6 0 -10 -29 -10 -68z m75 -22 c0 -18 -6
-26 -21 -28 -26 -4 -40 24 -23 45 18 21 44 11 44 -17z"/>
<path d="M16404 1699 c-3 -5 4 -9 15 -9 12 0 24 0 28 -1 4 0 9 3 10 8 4 11
-46 13 -53 2z"/>
<path d="M16730 1685 c0 -22 -3 -25 -25 -19 -33 8 -55 -11 -55 -46 0 -36 18
-50 63 -48 l37 1 0 69 c0 39 -4 68 -10 68 -5 0 -10 -11 -10 -25z m-11 -49 c15
-18 3 -46 -20 -46 -22 0 -34 22 -25 45 7 19 30 19 45 1z"/>
<path d="M17136 1694 c-4 -10 -1 -14 6 -12 15 5 23 28 10 28 -5 0 -13 -7 -16
-16z"/>
<path d="M17280 1685 c0 -22 -3 -25 -25 -19 -33 8 -55 -11 -55 -46 0 -36 18
-50 63 -48 l37 1 0 69 c0 39 -4 68 -10 68 -5 0 -10 -11 -10 -25z m-11 -49 c15
-18 3 -46 -20 -46 -22 0 -34 22 -25 45 7 19 30 19 45 1z"/>
<path d="M17330 1694 c0 -8 5 -12 10 -9 6 3 10 10 10 16 0 5 -4 9 -10 9 -5 0
-10 -7 -10 -16z"/>
<path d="M13860 1635 l0 -65 40 0 c22 0 40 5 40 10 0 6 -13 10 -30 10 -30 0
-30 1 -30 55 0 30 -4 55 -10 55 -6 0 -10 -28 -10 -65z"/>
<path d="M15148 1673 c-2 -10 -1 -36 2 -58 4 -32 10 -41 28 -43 12 -2 22 1 22
7 0 6 -7 11 -15 11 -22 0 -20 57 3 63 16 4 16 5 0 6 -10 0 -18 8 -18 16 0 21
-17 19 -22 -2z"/>
<path d="M17378 1673 c-2 -10 -1 -36 2 -58 4 -32 10 -41 28 -43 12 -2 22 1 22
7 0 6 -7 11 -15 11 -10 0 -15 10 -15 30 0 20 5 30 15 30 12 0 11 4 -5 20 -24
24 -27 25 -32 3z"/>
<path d="M13965 1654 c-19 -20 -16 -63 6 -77 10 -6 27 -7 45 -2 l29 9 -30 4
c-46 6 -55 22 -12 22 29 0 37 4 37 18 0 40 -45 55 -75 26z m55 -14 c0 -5 -12
-10 -26 -10 -14 0 -23 4 -19 10 3 6 15 10 26 10 10 0 19 -4 19 -10z"/>
<path d="M14060 1620 c0 -27 5 -50 10 -50 6 0 10 23 10 50 0 28 -4 50 -10 50
-5 0 -10 -22 -10 -50z"/>
<path d="M14120 1660 c-16 -10 -8 -13 28 -10 32 2 27 -18 -5 -22 -22 -2 -28
-8 -28 -28 0 -22 5 -25 38 -27 l37 -1 0 43 c0 52 -30 71 -70 45z m50 -60 c0
-5 -9 -10 -20 -10 -11 0 -20 5 -20 10 0 6 9 10 20 10 11 0 20 -4 20 -10z"/>
<path d="M14260 1619 c0 -27 5 -49 10 -49 6 0 10 13 10 29 0 31 22 57 40 46 5
-3 10 -22 10 -41 0 -19 5 -34 10 -34 11 0 14 89 3 91 -5 1 -25 3 -45 4 l-38 2
0 -48z"/>
<path d="M14385 1650 c-24 -27 -13 -68 22 -76 34 -9 57 6 61 42 6 49 -49 72
-83 34z m60 -30 c0 -18 -6 -26 -21 -28 -26 -4 -40 24 -23 45 18 21 44 11 44
-17z"/>
<path d="M14497 1663 c-15 -15 -5 -41 21 -54 l27 -13 -33 -4 c-36 -4 -34 -22
2 -22 33 0 53 25 36 45 -7 8 -19 15 -26 15 -8 0 -14 5 -14 10 0 6 9 10 21 10
11 0 17 5 14 10 -7 11 -38 13 -48 3z"/>
<path d="M14583 1663 c-14 -5 -18 -43 -5 -43 5 0 17 -7 28 -16 18 -15 18 -15
-9 -11 -18 3 -26 0 -24 -7 2 -6 17 -11 33 -11 22 0 29 5 29 20 0 11 -10 24
-22 30 -30 13 -29 25 3 25 14 0 23 4 19 10 -6 10 -31 12 -52 3z"/>
<path d="M14670 1660 c-12 -8 -9 -10 12 -10 15 0 30 -4 33 -10 3 -6 -4 -10
-18 -10 -14 0 -30 -7 -37 -15 -19 -23 5 -45 46 -43 32 1 34 3 34 38 0 53 -31
75 -70 50z m45 -60 c-3 -5 -15 -10 -26 -10 -10 0 -19 5 -19 10 0 6 12 10 26
10 14 0 23 -4 19 -10z"/>
<path d="M14810 1604 c0 -35 5 -66 10 -69 6 -4 10 5 10 20 0 22 3 25 25 19 33
-8 55 11 55 46 0 36 -17 48 -62 47 l-38 -1 0 -62z m75 16 c0 -18 -6 -26 -21
-28 -26 -4 -40 24 -23 45 18 21 44 11 44 -17z"/>
<path d="M14934 1645 c-15 -23 -15 -27 0 -50 10 -15 26 -25 41 -25 15 0 31 10
41 25 15 23 15 27 0 50 -10 15 -26 25 -41 25 -15 0 -31 -10 -41 -25z m61 -25
c0 -29 -32 -41 -41 -16 -9 24 4 48 23 44 12 -2 18 -12 18 -28z"/>
<path d="M15100 1620 c0 -27 5 -50 10 -50 6 0 10 23 10 50 0 28 -4 50 -10 50
-5 0 -10 -22 -10 -50z"/>
<path d="M15220 1620 c0 -27 5 -50 10 -50 6 0 10 23 10 50 0 28 -4 50 -10 50
-5 0 -10 -22 -10 -50z"/>
<path d="M15275 1654 c-19 -20 -16 -63 6 -77 17 -10 76 -1 65 11 -4 3 -19 6
-34 7 -22 0 -27 5 -27 25 0 20 5 25 25 27 43 2 45 3 30 13 -22 14 -47 12 -65
-6z"/>
<path d="M15377 1663 c-14 -13 -6 -20 17 -16 13 3 27 0 30 -6 5 -7 -2 -11 -17
-11 -29 0 -52 -23 -43 -45 4 -10 18 -14 46 -13 39 1 40 2 40 38 0 20 -5 41
-12 48 -13 13 -50 16 -61 5z m48 -63 c-3 -5 -15 -10 -26 -10 -10 0 -19 5 -19
10 0 6 12 10 26 10 14 0 23 -4 19 -10z"/>
<path d="M15645 1650 c-36 -40 11 -98 62 -74 14 6 11 9 -14 12 -44 4 -42 22 2
22 39 0 46 17 19 44 -21 22 -47 20 -69 -4z m60 -10 c4 -6 -5 -10 -19 -10 -14
0 -26 5 -26 10 0 6 9 10 19 10 11 0 23 -4 26 -10z"/>
<path d="M15840 1620 c0 -27 5 -50 10 -50 6 0 10 23 10 50 0 28 -4 50 -10 50
-5 0 -10 -22 -10 -50z"/>
<path d="M16014 1645 c-15 -23 -15 -27 0 -50 17 -25 59 -34 71 -15 4 6 -7 10
-24 10 -17 0 -31 5 -31 10 0 6 16 10 35 10 39 0 46 17 19 44 -23 23 -51 20
-70 -9z m61 -5 c4 -6 -5 -10 -20 -10 -15 0 -24 4 -20 10 3 6 12 10 20 10 8 0
17 -4 20 -10z"/>
<path d="M16120 1619 c0 -27 5 -49 10 -49 6 0 10 15 10 34 0 21 6 36 15 40 23
9 18 21 -10 22 -23 2 -25 -1 -25 -47z"/>
<path d="M16197 1663 c-14 -13 -6 -20 17 -16 13 3 27 0 30 -6 5 -7 -2 -11 -17
-11 -29 0 -52 -23 -43 -45 4 -10 18 -14 46 -13 39 1 40 2 40 38 0 20 -5 41
-12 48 -13 13 -50 16 -61 5z m48 -63 c-3 -5 -15 -10 -26 -10 -10 0 -19 5 -19
10 0 6 12 10 26 10 14 0 23 -4 19 -10z"/>
<path d="M16294 1645 c-15 -23 -15 -27 0 -50 9 -14 21 -25 27 -25 7 0 9 -9 6
-21 -3 -13 -1 -19 6 -16 7 2 11 11 9 19 -1 9 4 18 13 22 24 9 17 22 -12 21
-23 0 -28 4 -28 25 0 21 4 25 28 23 29 -2 37 11 11 21 -29 11 -43 6 -60 -19z"/>
<path d="M16407 1663 c-14 -13 -6 -20 18 -15 14 2 25 0 25 -6 0 -5 -14 -12
-31 -16 -25 -5 -30 -10 -27 -28 2 -19 10 -24 46 -26 l42 -3 -6 43 c-4 24 -12
46 -18 50 -14 10 -41 10 -49 1z m43 -63 c0 -5 -9 -10 -20 -10 -11 0 -20 5 -20
10 0 6 9 10 20 10 11 0 20 -4 20 -10z"/>
<path d="M16505 1650 c-24 -27 -13 -68 22 -76 34 -9 57 6 61 42 6 49 -49 72
-83 34z m60 -30 c0 -18 -6 -26 -21 -28 -26 -4 -40 24 -23 45 18 21 44 11 44
-17z"/>
<path d="M16785 1654 c-19 -20 -16 -63 6 -77 10 -6 27 -7 45 -2 l29 9 -30 4
c-46 6 -55 22 -12 22 29 0 37 4 37 18 0 40 -45 55 -75 26z m55 -14 c0 -5 -12
-10 -26 -10 -14 0 -23 4 -19 10 3 6 15 10 26 10 10 0 19 -4 19 -10z"/>
<path d="M16935 1654 c-19 -20 -16 -63 6 -77 17 -10 76 -1 65 11 -4 3 -19 6
-34 7 -22 0 -27 5 -27 25 0 20 5 25 25 27 43 2 45 3 30 13 -22 14 -47 12 -65
-6z"/>
<path d="M17030 1619 c0 -27 5 -49 10 -49 6 0 10 13 10 29 0 20 8 35 22 45 12
9 20 16 18 17 -63 9 -60 11 -60 -42z"/>
<path d="M17105 1650 c-36 -40 11 -98 62 -74 14 6 11 9 -14 12 -44 4 -42 22 2
22 39 0 46 17 19 44 -21 22 -47 20 -69 -4z m60 -10 c4 -6 -5 -10 -19 -10 -14
0 -26 5 -26 10 0 6 9 10 19 10 11 0 23 -4 26 -10z"/>
<path d="M17330 1620 c0 -27 5 -50 10 -50 6 0 10 23 10 50 0 28 -4 50 -10 50
-5 0 -10 -22 -10 -50z"/>
<path d="M17455 1650 c-24 -27 -13 -68 22 -76 34 -9 57 6 61 42 6 49 -49 72
-83 34z m60 -30 c0 -18 -6 -26 -21 -28 -26 -4 -40 24 -23 45 18 21 44 11 44
-17z"/>
<path d="M14083 1553 c130 -2 344 -2 475 0 130 1 23 2 -238 2 -261 0 -368 -1
-237 -2z"/>
<path d="M15213 1553 c203 -2 531 -2 730 0 199 1 34 2 -368 2 -401 0 -564 -1
-362 -2z"/>
<path d="M16663 1553 c163 -2 431 -2 595 0 163 1 29 2 -298 2 -327 0 -461 -1
-297 -2z"/>
<path d="M1440 1325 c0 -148 1 -155 20 -155 19 0 20 7 20 155 0 148 -1 155
-20 155 -19 0 -20 -7 -20 -155z"/>
<path d="M2320 1325 l0 -155 25 0 c24 0 25 2 25 68 0 80 17 112 60 112 47 0
60 -22 60 -106 0 -73 0 -74 26 -74 l26 0 -4 90 c-4 77 -8 94 -26 113 -28 27
-93 28 -122 2 -20 -18 -20 -17 -20 43 0 59 -1 62 -25 62 l-25 0 0 -155z"/>
<path d="M1217 1463 c-4 -3 -7 -71 -7 -150 l0 -143 25 0 c24 0 25 3 25 60 l0
59 68 3 c59 3 67 5 67 23 0 18 -8 20 -67 23 l-68 3 0 39 0 40 75 0 c73 0 75 1
75 25 0 25 0 25 -93 25 -52 0 -97 -3 -100 -7z"/>
<path d="M2115 1454 c-37 -19 -45 -31 -45 -70 0 -39 20 -57 92 -84 31 -11 59
-28 62 -37 17 -44 -65 -61 -124 -27 -27 16 -32 17 -40 4 -16 -25 -12 -30 36
-52 63 -27 129 -21 161 17 46 53 22 103 -67 136 -61 22 -79 42 -58 66 11 14
41 14 113 1 12 -2 21 3 23 15 2 12 -7 22 -32 32 -45 19 -83 19 -121 -1z"/>
<path d="M1594 1389 c-45 -13 -66 -42 -72 -99 -4 -46 -2 -52 32 -86 34 -34 39
-36 87 -32 55 6 91 30 72 49 -8 8 -16 8 -31 0 -31 -17 -77 -13 -95 7 -32 35
-21 42 68 42 47 0 85 3 85 8 0 24 -23 81 -38 94 -23 21 -70 28 -108 17z m78
-46 c34 -31 23 -43 -42 -43 -66 0 -79 15 -38 44 29 21 57 20 80 -1z"/>
<path d="M2646 1390 c-127 -38 -99 -220 34 -220 106 0 157 128 78 195 -16 14
-36 25 -43 25 -7 0 -19 2 -27 4 -7 2 -26 0 -42 -4z m87 -62 c23 -27 22 -73 -3
-98 -42 -42 -120 -12 -120 46 0 74 76 106 123 52z"/>
<path d="M2930 1393 c-8 -3 -23 -12 -32 -21 -16 -14 -18 -13 -18 1 0 11 -8 17
-25 17 l-25 0 0 -150 0 -150 25 0 c24 0 25 3 25 55 l0 55 25 -16 c36 -24 103
-13 132 21 35 40 32 115 -4 154 -28 29 -74 45 -103 34z m59 -50 c51 -43 24
-133 -40 -133 -66 0 -95 88 -43 129 33 26 55 26 83 4z"/>
<path d="M1784 1339 l35 -52 -40 -58 -40 -59 28 0 c22 0 34 9 53 40 14 22 27
40 30 40 3 0 16 -18 30 -40 19 -31 31 -40 53 -40 l28 0 -40 59 -40 58 35 52
35 51 -26 0 c-17 0 -31 -10 -47 -35 -13 -19 -25 -35 -28 -35 -3 0 -14 16 -24
35 -15 27 -25 35 -48 35 l-29 0 35 -51z"/>
</g>
</svg>
